<svg width="148" height="212" viewBox="0 0 148 212" fill="none" xmlns="http://www.w3.org/2000/svg">
<g id="customer_service_outline 2">
<g id="customer_service_outline">
<path id="Path" d="M116.995 55.1244C116.403 55.1244 115.923 54.6448 115.923 54.0533V47.1985C115.544 22.7571 95.5967 3.14162 71.1204 3.14162C46.6442 3.14162 26.6969 22.7571 26.3183 47.1985V54.0533C26.3183 54.6448 25.8381 55.1244 25.2458 55.1244C24.6535 55.1244 24.1733 54.6448 24.1733 54.0533V47.1985C24.5611 21.5804 45.466 1.01587 71.1204 1.01587C96.7749 1.01587 117.68 21.5804 118.068 47.1985V54.0533C118.068 54.3374 117.955 54.6098 117.753 54.8107C117.552 55.0115 117.28 55.1244 116.995 55.1244Z" fill="#093F68"/>
<path id="Path_2" d="M113.799 197.041C113.799 201.121 121.06 201.1 130.015 201.1C138.97 201.1 146.22 201.1 146.22 197.041C146.22 192.981 138.959 187.401 130.015 187.401C121.07 187.401 113.799 192.96 113.799 197.041Z" fill="#080C20"/>
<path id="Shape" fill-rule="evenodd" clip-rule="evenodd" d="M129.843 202.171H130.347C134.141 202.292 137.938 202.117 141.705 201.646C143.088 201.411 147.292 200.672 147.292 197.041C147.292 192.232 139.324 186.33 130.015 186.33C120.706 186.33 112.727 192.221 112.727 197.041C112.727 200.672 116.931 201.411 118.314 201.646C122.138 202.116 125.992 202.291 129.843 202.171ZM130.337 200.029H129.843C126.115 200.14 122.383 199.975 118.679 199.536C114.872 198.872 114.872 197.587 114.872 197.041C114.872 193.667 121.66 188.472 130.015 188.472C138.369 188.472 145.147 193.656 145.147 197.041C145.147 197.587 145.147 198.872 141.34 199.536C137.69 199.981 134.012 200.146 130.337 200.029Z" fill="#093F68"/>
<path id="Path_3" d="M112.909 183.342C112.909 183.342 118.346 185.152 119.547 187.358C120.749 189.565 121.767 198.819 124.781 198.015C127.795 197.212 125.189 187.969 127.602 188.161C130.015 188.354 146.627 196.409 146.22 192.189C145.812 187.969 138.273 181.328 131.827 178.115C125.382 174.902 114.4 173.488 114.4 173.488L112.909 183.342Z" fill="#080C20"/>
<path id="Shape_2" fill-rule="evenodd" clip-rule="evenodd" d="M123.172 198.797C123.546 199.018 123.972 199.136 124.406 199.14C124.637 199.141 124.868 199.113 125.092 199.054C127.527 198.422 127.527 195.188 127.527 192.328C127.49 191.302 127.562 190.275 127.741 189.265C128.446 189.419 130.14 190.059 131.777 190.677C131.959 190.746 132.141 190.814 132.321 190.882C139.442 193.602 144.632 195.413 146.552 193.945C147.123 193.506 147.414 192.794 147.314 192.082C146.788 186.983 138.262 180.139 132.299 177.151C125.768 173.895 114.99 172.427 114.528 172.427C113.953 172.357 113.426 172.755 113.338 173.327L111.837 183.181C111.757 183.696 112.06 184.193 112.555 184.359C114.507 185.013 117.864 186.533 118.593 187.872C119.029 188.932 119.37 190.029 119.612 191.15C120.631 195.006 121.478 197.812 123.172 198.797ZM120.523 186.855C119.387 184.841 115.794 183.277 114.089 182.635L115.301 174.655C118.196 175.094 126.315 176.498 131.388 179.025C138.112 182.388 144.772 188.751 145.179 192.242C143.734 192.89 136.432 190.118 133.169 188.88L133.082 188.847C131.36 188.07 129.563 187.471 127.72 187.058C127.222 187.001 126.723 187.165 126.358 187.508C125.382 188.365 125.382 190.132 125.382 192.274C125.371 193.827 125.339 196.73 124.535 196.944C124.461 196.984 124.372 196.984 124.299 196.944C123.237 196.334 122.293 192.746 121.735 190.603C121.458 189.317 121.052 188.061 120.523 186.855Z" fill="#093F68"/>
<path id="Path_4" d="M78.0861 52.5966C62.7391 50.7116 43.0808 54.6638 31.8521 65.7493C30.0538 67.296 28.7054 69.2975 27.9484 71.5438C26.0287 78.9342 27.7768 86.1531 21.2455 91.712C19.5832 93.1365 17.6742 94.2825 16.1513 95.8677C11.2179 101.009 12.2368 110.563 18.1568 114.547C14.8214 117.76 14.3066 123.03 15.3255 127.55C17.1594 135.733 23.2617 142.545 30.533 146.69C37.8043 150.835 46.1803 152.773 54.5026 153.887C66.6107 155.505 79.0727 155.58 90.8805 152.474C102.688 149.367 113.853 142.888 121.178 133.119C123.669 130.071 125.325 126.428 125.982 122.548C126.733 116.539 123.837 110.766 121.06 105.411C125.135 100.623 126.132 93.7256 124.685 87.6205C123.237 81.5154 119.58 76.1065 115.29 71.5545C105.472 61.1086 92.3168 54.4051 78.0861 52.5966Z" fill="#080C20"/>
<path id="Shape_3" fill-rule="evenodd" clip-rule="evenodd" d="M54.3525 154.991C59.6033 155.695 64.8949 156.053 70.1928 156.062C77.2443 156.171 84.2805 155.372 91.1273 153.684C104.029 150.289 115 143.273 122.004 133.933C124.942 130.024 126.583 126.393 127.023 122.859C127.795 116.571 124.846 110.573 122.304 105.668C126.015 100.88 127.291 94.154 125.693 87.4598C124.363 81.8796 121.113 76.2993 116.041 70.8797C106.029 60.2798 92.6527 53.4677 78.1826 51.6006C63.3505 49.7904 43.0273 53.2821 31.0586 65.0638C29.1204 66.743 27.6749 68.9159 26.876 71.351C26.3557 73.5678 25.9972 75.8194 25.8035 78.088C25.7943 78.1693 25.7852 78.2504 25.7761 78.3313C25.231 83.1772 24.7571 87.3906 20.5377 90.9408C19.9157 91.4656 19.2722 91.9476 18.5966 92.451C17.4511 93.2681 16.375 94.178 15.3792 95.1715C12.7446 98.045 11.5126 101.932 12.0116 105.796C12.3201 109.253 13.953 112.457 16.5696 114.74C13.985 117.921 13.127 122.709 14.2745 127.828C16.0548 135.69 21.771 142.92 29.9968 147.664C36.3566 151.328 43.8638 153.587 54.3525 154.991ZM32.6029 66.5098C39.7455 59.4622 53.591 53.175 70.0534 53.175C72.6892 53.1888 75.3217 53.364 77.936 53.6998C91.897 55.4879 104.81 62.0418 114.486 72.2507C119.333 77.4025 122.379 82.6508 123.623 87.8668C125.092 94.0683 123.795 100.527 120.223 104.715C119.939 105.046 119.884 105.516 120.084 105.904C123.119 111.752 125.575 117.011 124.899 122.462C124.513 125.622 123.001 128.91 120.298 132.52C113.574 141.474 103.032 148.264 90.591 151.477C80.0809 154.241 68.316 154.701 54.6206 152.87C44.4 151.499 37.1287 149.325 31.0264 145.812C23.3261 141.367 17.9638 134.64 16.3229 127.357C15.229 122.452 16.1728 117.975 18.8539 115.361C19.0872 115.135 19.2055 114.816 19.1757 114.494C19.1487 114.174 18.9794 113.883 18.7145 113.701C16.1243 111.74 14.4591 108.798 14.112 105.571C13.7649 102.343 14.7666 99.1154 16.8806 96.6496C17.8033 95.7472 18.7967 94.9198 19.8513 94.1754C20.0657 94.0082 20.281 93.8441 20.4961 93.6802C20.9699 93.3193 21.4424 92.9592 21.8997 92.5688C26.7784 88.4681 27.3442 83.4078 27.8941 78.4893C27.9015 78.4233 27.9089 78.3574 27.9163 78.2915C28.1201 76.1266 28.4785 73.979 28.9887 71.8651C29.6932 69.7898 30.9411 67.9407 32.6029 66.5098Z" fill="#093F68"/>
<path id="Path_5" d="M70.6325 10.4073H72.3162C93.9413 10.4073 111.472 27.9151 111.472 49.512V61.0688H31.4875V49.512C31.4875 27.9151 49.0181 10.4073 70.6432 10.4073L70.6325 10.4073Z" fill="#080C20"/>
<path id="Shape_4" fill-rule="evenodd" clip-rule="evenodd" d="M31.4875 62.1506H111.536C112.129 62.1506 112.609 61.671 112.609 61.0795V49.512C112.579 27.3149 94.553 9.33628 72.3269 9.3363H70.6324C48.429 9.36582 30.4387 27.3375 30.415 49.512V61.0795C30.415 61.671 30.8952 62.1506 31.4875 62.1506ZM110.464 60.0084H32.6136V49.512C32.6313 28.5182 49.6648 11.5021 70.6861 11.4784H72.3805C93.4035 11.502 110.44 28.5164 110.464 49.512V60.0084Z" fill="#093F68"/>
<path id="Path_6" d="M78.5794 121.07C77.9871 121.07 77.507 120.59 77.507 119.999V112.501H64.809V119.999C64.809 120.59 64.3288 121.07 63.7365 121.07C63.1442 121.07 62.6641 120.59 62.6641 119.999V111.43C62.6641 110.839 63.1442 110.359 63.7365 110.359H78.5794C79.1717 110.359 79.6519 110.839 79.6519 111.43V119.999C79.6519 120.59 79.1717 121.07 78.5794 121.07Z" fill="#093F68"/>
<path id="Path_7" d="M71.1257 113.412C49.226 113.412 31.4446 100.398 31.4446 76.4064V59.6121C54.8136 63.9928 58.3741 39.7653 58.3741 39.7653C79.5768 76.5885 110.71 52.2325 110.71 52.2325V76.4064C110.753 100.398 93.0147 113.412 71.1257 113.412Z" fill="#080C20"/>
<path id="Shape_5" fill-rule="evenodd" clip-rule="evenodd" d="M30.3722 76.4065C30.3722 99.188 46.7702 114.483 71.1259 114.483C95.4493 114.483 111.837 99.188 111.794 76.385V52.2111C111.796 51.7995 111.562 51.423 111.191 51.2426C110.821 51.0622 110.38 51.1097 110.056 51.3649L110.049 51.3702C109.688 51.6439 96.9563 61.2998 82.7085 58.5304C73.5282 56.7952 65.6563 50.2939 59.3073 39.2512C59.0775 38.8546 58.6205 38.648 58.1705 38.7371C57.725 38.8224 57.3815 39.1783 57.3125 39.6261L57.312 39.6294C57.2762 39.8523 55.6119 50.2293 47.9392 55.692C43.5957 58.7981 38.0725 59.7514 31.6377 58.5411C31.3217 58.4833 30.9963 58.57 30.7512 58.7775C30.506 58.985 30.367 59.2913 30.3722 59.6121V76.4065ZM32.5172 76.4493V60.9296L32.5601 60.8867C39.0699 61.8507 44.6789 60.7046 49.269 57.5129C55.2856 53.2286 57.8488 46.4166 58.9212 42.6679C65.356 52.8644 73.2386 58.9374 82.3867 60.7153C94.7201 63.0503 105.606 57.0095 109.735 54.2889V76.4493C109.735 101.277 90.3659 112.384 71.1259 112.384C51.8859 112.384 32.5172 101.277 32.5172 76.4493Z" fill="#093F68"/>
<ellipse id="Oval" cx="51.489" cy="75.1105" rx="3.80725" ry="3.80228" fill="#093F68"/>
<ellipse id="Oval_2" cx="90.7518" cy="75.1105" rx="3.80725" ry="3.80228" fill="#093F68"/>
<path id="Path_8" d="M71.5333 87.5884C70.2979 87.5792 69.0648 87.479 67.8441 87.2885C67.5638 87.2389 67.3148 87.0801 67.1519 86.8471C66.989 86.614 66.9255 86.3259 66.9754 86.0461C67.025 85.7662 67.184 85.5175 67.4174 85.3548C67.6507 85.1921 67.9392 85.1287 68.2194 85.1785C70.1268 85.4858 72.0712 85.4858 73.9785 85.1785C74.311 84.1931 72.9061 80.016 70.7612 76.053C70.5721 75.7133 70.5822 75.298 70.7874 74.9678C70.9927 74.6376 71.3609 74.4444 71.7497 74.4629C72.1384 74.4814 72.4865 74.7087 72.6594 75.0569C73.7319 77.0384 76.9493 83.6897 75.8768 86.1318C75.6392 86.6744 75.1575 87.072 74.5791 87.2028C73.5832 87.454 72.5605 87.5835 71.5333 87.5884Z" fill="#093F68"/>
<path id="Path_9" d="M25.4925 47.2628H31.4876V86.3995H25.4925C21.1035 86.3995 17.5455 82.8462 17.5455 78.4629V55.1994C17.5455 50.8161 21.1035 47.2628 25.4925 47.2628Z" fill="#093F68"/>
<path id="Shape_6" fill-rule="evenodd" clip-rule="evenodd" d="M25.4924 87.4598H31.4875C32.0798 87.4598 32.56 86.9803 32.56 86.3888V47.2627C32.56 46.6712 32.0798 46.1917 31.4875 46.1917H25.4924C20.5136 46.1976 16.4789 50.227 16.473 55.1993V78.4629C16.4789 83.4335 20.5153 87.4598 25.4924 87.4598ZM18.6179 55.1993C18.6179 51.4076 21.6958 48.3338 25.4924 48.3338H30.4151V85.3177H25.4924C21.6999 85.3177 18.6239 82.2504 18.6179 78.4629V55.1993Z" fill="#093F68"/>
<path id="Path_10" d="M116.759 86.3888H110.764V47.252H116.759C121.148 47.252 124.706 50.8054 124.706 55.1886V78.4522C124.706 82.8355 121.148 86.3888 116.759 86.3888Z" fill="#093F68"/>
<path id="Shape_7" fill-rule="evenodd" clip-rule="evenodd" d="M110.764 87.4598H116.748C121.726 87.4598 125.762 83.4335 125.768 78.4629V55.1993C125.762 50.227 121.727 46.1976 116.748 46.1917H110.764C110.172 46.1917 109.692 46.6712 109.692 47.2627V86.3888C109.692 86.9803 110.172 87.4598 110.764 87.4598ZM116.748 85.3177H111.837V48.3338H116.748C120.545 48.3338 123.623 51.4076 123.623 55.1993V78.4629C123.617 82.2504 120.541 85.3177 116.748 85.3177Z" fill="#093F68"/>
<path id="Path_11" d="M71.4904 102.251C68.6532 102.31 65.8491 101.635 63.3504 100.291C61.0721 99.0882 59.2467 97.1788 58.149 94.8502C57.9298 94.3001 58.1987 93.6767 58.7495 93.4578C59.3004 93.2389 59.9246 93.5075 60.1437 94.0576C60.3153 94.4967 64.691 104.618 82.6655 97.6778C83.2193 97.4649 83.8411 97.7406 84.0543 98.2937C84.2675 98.8468 83.9915 99.4678 83.4377 99.6807C79.6446 101.255 75.5961 102.126 71.4904 102.251Z" fill="#093F68"/>
<path id="Path_12" d="M45.1078 106.707C39.9171 106.707 32.9031 106.107 29.3533 103.247C23.3689 98.4061 23.5942 86.9779 23.6049 86.4959C23.6049 85.9043 24.085 85.4248 24.6773 85.4248C25.2696 85.4248 25.7498 85.9043 25.7498 86.4959C25.7498 86.603 25.546 97.3565 30.6939 101.491C35.8417 105.625 51.0707 104.211 51.2423 104.201C51.8277 104.144 52.3493 104.57 52.4113 105.154C52.4413 105.437 52.3575 105.72 52.1785 105.94C51.9995 106.161 51.7398 106.302 51.4568 106.332C51.1994 106.439 48.5504 106.707 45.1078 106.707Z" fill="#093F68"/>
<path id="Shape_8" fill-rule="evenodd" clip-rule="evenodd" d="M43.6386 109.642H53.9128C56.5426 109.642 58.6745 107.512 58.6745 104.886C58.6745 102.26 56.5426 100.131 53.9128 100.131H43.6386C41.0087 100.131 38.8768 102.26 38.8768 104.886C38.8768 107.512 41.0087 109.642 43.6386 109.642ZM41.0218 104.865C41.0218 103.421 42.1933 102.251 43.6386 102.251H53.9128C55.358 102.251 56.5296 103.421 56.5296 104.865C56.5296 106.308 55.358 107.478 53.9128 107.478H43.6386C42.1933 107.478 41.0218 106.308 41.0218 104.865Z" fill="#093F68"/>
<path id="Path_13" d="M53.1298 119.999H89.1753C102.034 119.999 112.458 130.409 112.458 143.252V193.956H29.8788V143.262C29.8729 130.429 40.2792 120.017 53.1298 119.999Z" fill="#080C20"/>
<path id="Shape_9" fill-rule="evenodd" clip-rule="evenodd" d="M29.8896 195.038H112.469C112.761 195.049 113.045 194.942 113.256 194.74C113.466 194.537 113.585 194.258 113.585 193.967V143.262C113.573 129.828 102.671 118.94 89.2183 118.928H53.1728C39.7247 118.945 28.829 129.832 28.8171 143.262V193.967C28.8171 194.558 29.2973 195.038 29.8896 195.038ZM111.397 192.896H30.9621L30.9192 143.262C30.931 131.015 40.8664 121.088 53.1299 121.07H89.1754C101.441 121.088 111.379 131.013 111.397 143.262V192.896Z" fill="#093F68"/>
<path id="Path_14" d="M42.3409 67.3988C41.4607 67.3728 40.7451 66.6817 40.6895 65.8041C40.6339 64.9264 41.2565 64.1508 42.1264 64.0142L59.8435 61.7971C60.743 61.7413 61.5307 62.3943 61.6414 63.2876C61.7522 64.1808 61.1478 65.0059 60.2617 65.1709L42.5446 67.388L42.3409 67.3988Z" fill="#093F68"/>
<path id="Path_15" d="M99.9107 67.3988H99.7391L82.022 65.1817C81.136 65.0167 80.5316 64.1916 80.6423 63.2983C80.7531 62.405 81.5408 61.752 82.4403 61.8078L100.157 64.0249C101.026 64.1604 101.649 64.9333 101.596 65.8097C101.544 66.6862 100.832 67.379 99.9536 67.4095L99.9107 67.3988Z" fill="#093F68"/>
<path id="Path_16" d="M71.158 139.278C62.1601 139.278 49.194 119.999 49.194 119.999H93.1114C93.1114 119.999 80.1453 139.278 71.158 139.278Z" fill="#080C20"/>
<path id="Shape_10" fill-rule="evenodd" clip-rule="evenodd" d="M48.3128 120.612C48.9782 121.59 61.7458 140.349 71.1579 140.349C80.1499 140.349 92.2307 123.188 93.8854 120.838C93.9694 120.719 94.0265 120.637 94.055 120.599C94.2669 120.279 94.2914 119.87 94.1194 119.528C93.9318 119.176 93.564 118.957 93.1649 118.96H49.2475C48.8522 118.961 48.4895 119.179 48.3037 119.528C48.1121 119.859 48.1121 120.267 48.3037 120.599C48.3064 120.603 48.3095 120.607 48.3128 120.612ZM71.1579 138.207C64.8947 138.207 55.5428 127.057 51.253 121.07H91.0628C86.7408 127.057 77.4211 138.207 71.1579 138.207Z" fill="#093F68"/>
<path id="Shape_11" fill-rule="evenodd" clip-rule="evenodd" d="M54.4383 120.759C55.4785 121.82 60.5406 126.747 63.951 126.747C64.2193 126.749 64.4867 126.713 64.7446 126.639C67.9191 125.772 71.5012 121.177 71.898 120.652C72.1449 120.328 72.1864 119.892 72.0052 119.528C71.8248 119.16 71.4501 118.927 71.04 118.928H55.1997C54.764 118.925 54.3701 119.186 54.203 119.588C54.0359 119.99 54.1289 120.453 54.4383 120.759ZM64.1762 124.583C63.0501 124.883 60.3904 123.212 57.913 121.07H68.7342C67.3936 122.505 65.5919 124.187 64.1762 124.583Z" fill="#093F68"/>
<path id="Shape_12" fill-rule="evenodd" clip-rule="evenodd" d="M77.5713 126.639C77.8256 126.713 78.0894 126.749 78.3542 126.747C81.7646 126.747 86.8696 121.809 87.8777 120.759C88.182 120.451 88.2708 119.991 88.1029 119.592C87.9384 119.192 87.5492 118.93 87.1162 118.928H71.2652C70.857 118.929 70.4848 119.161 70.305 119.527C70.1252 119.893 70.169 120.329 70.418 120.652C70.8148 121.177 74.3539 125.772 77.5713 126.639ZM78.1397 124.583C76.7133 124.187 74.9009 122.505 73.5817 121.07H84.3922C81.9255 123.201 79.2122 124.883 78.1397 124.583Z" fill="#093F68"/>
<path id="Path_17" d="M71.2652 140.349C70.6729 140.349 70.1927 139.87 70.1927 139.278V119.999C70.1927 119.407 70.6729 118.928 71.2652 118.928C71.8575 118.928 72.3377 119.407 72.3377 119.999V139.278C72.3377 139.87 71.8575 140.349 71.2652 140.349Z" fill="#093F68"/>
<path id="Path_18" d="M21.0953 115.715C21.0953 115.715 -5.9844 166.922 3.93589 177.729C13.8562 188.536 26.2753 181.296 29.9002 173.445C33.5252 165.594 35.1875 121.53 35.1875 121.53L21.0953 115.715Z" fill="#080C20"/>
<path id="Shape_13" fill-rule="evenodd" clip-rule="evenodd" d="M3.18519 178.458C7.42142 183.052 11.7971 184.274 15.2504 184.274C16.0143 184.284 16.7778 184.237 17.5348 184.134C23.3606 183.061 28.3246 179.278 30.8977 173.948C34.4817 166.228 36.092 125.837 36.2498 121.879C36.2545 121.763 36.2578 121.678 36.26 121.627C36.2943 121.164 36.0258 120.731 35.595 120.556L21.5029 114.729C20.9924 114.514 20.4021 114.723 20.1408 115.211C19.0255 117.332 -7.17481 167.211 3.18519 178.458ZM4.76171 177.001C-2.83133 168.764 13.9206 131.781 21.5887 117.075L34.0721 122.248C33.8362 128.021 32.1739 166.001 28.9565 173.006C26.6803 177.675 22.3316 180.998 17.2237 181.971C12.7194 182.678 8.40809 180.964 4.76171 177.001Z" fill="#093F68"/>
<path id="Path_19" d="M29.5464 96.007C29.5464 96.007 47.4672 94.2076 49.0759 98.2241C50.6846 102.241 45.0435 103.247 38.4049 102.444C38.4049 102.444 43.8423 105.464 43.8423 110.691C43.8423 115.918 35.1875 121.53 35.1875 121.53L21.0953 115.704C21.0953 115.704 21.2884 100.634 29.5464 96.007Z" fill="#080C20"/>
<path id="Shape_14" fill-rule="evenodd" clip-rule="evenodd" d="M34.7693 122.527C34.9028 122.577 35.0447 122.603 35.1876 122.602C35.3899 122.611 35.5907 122.562 35.7667 122.462C35.7867 122.447 35.8304 122.417 35.8953 122.372C37.0505 121.571 44.9148 116.116 44.9148 110.681C44.838 108.053 43.7193 105.565 41.8047 103.761C44.8826 103.815 48.2931 103.408 49.7409 101.512C50.5373 100.44 50.6657 99.0135 50.0734 97.817C48.3038 93.3935 33.8363 94.4967 29.4391 94.9359C29.2916 94.9458 29.1485 94.9898 29.0209 95.0644C20.3339 99.9378 20.0229 115.05 20.0229 115.693C20.0189 116.127 20.2772 116.52 20.6771 116.689L34.7693 122.527ZM22.2006 114.997L22.2 114.997V115.008C22.2002 115.004 22.2004 115.001 22.2006 114.997ZM35.0696 120.352L22.2006 114.997C22.3634 112.036 23.4302 100.876 29.8252 97.078C38.0403 96.2747 47.2528 96.6389 48.0571 98.6418C48.4539 99.5629 48.2394 99.9913 48.0571 100.238C47.3064 101.223 44.3571 102.112 38.5444 101.405C38.0315 101.336 37.5427 101.643 37.3822 102.135C37.2217 102.626 37.4354 103.161 37.8902 103.408C37.9438 103.429 42.7806 106.161 42.7806 110.713C42.7806 114.279 37.5899 118.606 35.0696 120.352Z" fill="#093F68"/>
<path id="Path_20" d="M111.536 209.583H27.5838C23.5316 209.589 20.16 206.474 19.8513 202.439L16.1084 154.241C15.941 152.089 16.6804 149.965 18.1484 148.381C19.6164 146.797 21.6797 145.897 23.8409 145.897H115.268C117.43 145.897 119.493 146.797 120.961 148.381C122.429 149.965 123.168 152.089 123.001 154.241L119.258 202.439C118.95 206.47 115.584 209.583 111.536 209.583Z" fill="#080C20"/>
<path id="Shape_15" fill-rule="evenodd" clip-rule="evenodd" d="M27.5837 210.654H111.536C116.134 210.631 119.952 207.101 120.33 202.524L124.073 154.326C124.261 151.877 123.419 149.46 121.747 147.657C120.076 145.854 117.728 144.828 115.268 144.826H23.8408C21.3808 144.828 19.0328 145.854 17.3617 147.657C15.6907 149.46 14.8478 151.877 15.0359 154.326L18.7788 202.524C19.1572 207.105 22.9813 210.636 27.5837 210.654ZM18.9453 149.08C20.2098 147.714 21.9883 146.936 23.8516 146.936H115.279C117.142 146.936 118.921 147.714 120.185 149.08C121.45 150.447 122.086 152.279 121.939 154.134L118.207 202.332C117.923 205.803 115.024 208.48 111.536 208.49H27.5945C24.1066 208.48 21.2079 205.803 20.9237 202.332L17.1916 154.134C17.045 152.279 17.6807 150.447 18.9453 149.08Z" fill="#093F68"/>
<path id="Shape_16" fill-rule="evenodd" clip-rule="evenodd" d="M60.7765 177.729C60.7765 182.568 64.7042 186.491 69.5492 186.491C74.3919 186.485 78.3161 182.566 78.322 177.729C78.322 172.891 74.3943 168.968 69.5492 168.968C64.7042 168.968 60.7765 172.891 60.7765 177.729ZM62.9214 177.729C62.9214 174.074 65.8888 171.11 69.5492 171.11C73.2072 171.116 76.1712 174.076 76.1771 177.729C76.1771 181.385 73.2097 184.348 69.5492 184.348C65.8888 184.348 62.9214 181.385 62.9214 177.729Z" fill="#093F68"/>
</g>
</g>
</svg>
