<svg width="263" height="178" viewBox="0 0 263 178" fill="none" xmlns="http://www.w3.org/2000/svg">
<path d="M23.3535 128.801L10.8252 164.225H46.2071L23.3535 128.801Z" fill="#080C20"/>
<path fill-rule="evenodd" clip-rule="evenodd" d="M10.8252 165.421H46.2071L46.2547 165.481C46.6898 165.48 47.0899 165.241 47.2982 164.857C47.5066 164.474 47.49 164.007 47.2551 163.639L24.4016 128.215C24.1466 127.814 23.6789 127.602 23.2106 127.677C22.7624 127.733 22.3842 128.038 22.2341 128.466L9.70573 163.83C9.57867 164.195 9.63517 164.6 9.8574 164.915C10.0796 165.231 10.4402 165.419 10.8252 165.421ZM44.0158 163.029H12.5163L23.6632 131.492L44.0158 163.029Z" fill="#093F68"/>
<path d="M153.83 4.73368C150.904 4.05881 147.858 4.11218 144.957 4.88915C134.832 7.92607 126.17 14.5906 120.615 23.6177C119.652 19.1131 121.23 14.4413 124.724 11.4549C117.949 11.569 111.728 15.2348 108.325 21.1181C105.574 25.9856 104.443 34.4888 108.122 39.2606C111.362 43.4464 117.281 42.681 120.615 46.0177C122.687 48.0987 123.426 55.5853 124.521 58.4675C127.308 65.99 130.607 73.3092 133.644 80.736L199.811 68.37C199.811 68.37 198.703 51.854 196.238 38.3517C193.773 24.8495 184.424 7.92685 168.633 14.6959C167.741 12.8812 166.445 11.2974 164.845 10.0676C161.661 7.41567 157.879 5.58468 153.83 4.73368Z" fill="#093F68"/>
<path fill-rule="evenodd" clip-rule="evenodd" d="M132.548 81.1905C132.731 81.637 133.163 81.9295 133.644 81.9319L133.882 81.92L200.037 69.4821C200.61 69.3769 201.023 68.871 201.013 68.2862C201.004 68.2605 200.971 67.8498 200.912 67.1244C200.589 63.1159 199.489 49.4986 197.381 38.1364C195.738 29.2625 191.069 18.2239 182.912 13.8348C178.663 11.5624 173.625 11.3211 169.18 13.177C168.221 11.6465 167.014 10.2882 165.608 9.15863C162.289 6.38565 158.349 4.46476 154.127 3.5616C150.985 2.83845 147.713 2.90004 144.6 3.741C135.348 6.52542 127.25 12.2601 121.532 20.0776C121.769 17.0873 123.183 14.3152 125.462 12.3757C125.848 12.0531 125.991 11.5221 125.819 11.0482C125.649 10.5747 125.201 10.2591 124.7 10.2589C117.499 10.3614 110.881 14.2586 107.277 20.5201C104.204 25.9736 103.287 34.9671 107.17 39.9901C109.13 42.5403 111.958 43.4553 114.456 44.2636L114.518 44.2836C116.439 44.7211 118.233 45.6014 119.758 46.8548C120.86 47.9738 121.667 51.6876 122.262 54.4228L122.27 54.4611C122.547 55.9589 122.921 57.437 123.39 58.8861C125.086 63.4363 126.994 67.9663 128.854 72.3832C129.018 72.7725 129.181 73.1609 129.344 73.5484C130.432 76.0997 131.5 78.6471 132.548 81.1905ZM109.361 21.7041C112.006 17.1011 116.529 13.8962 121.735 12.9378C119.458 16.1067 118.627 20.097 119.448 23.9166C119.557 24.3875 119.938 24.7462 120.413 24.8255C120.883 24.8978 121.352 24.6814 121.604 24.2754C126.995 15.4956 135.413 9.01288 145.255 6.06113C147.981 5.33026 150.844 5.28508 153.591 5.92958C157.424 6.74352 161.001 8.48412 164.012 11.0004C165.481 12.1069 166.675 13.5394 167.501 15.1862C167.625 15.4807 167.861 15.7133 168.156 15.832C168.45 15.9549 168.78 15.9549 169.073 15.832C173.658 13.8587 177.934 13.9065 181.78 15.9755C189.2 19.97 193.558 30.6617 195.023 38.6028C197.179 49.9404 198.298 63.5742 198.596 67.4251L134.43 79.3846C133.705 77.6427 132.973 75.908 132.239 74.1694C132.02 73.6519 131.802 73.134 131.583 72.6155C129.535 67.8676 127.451 62.9523 125.629 58.0489C125.206 56.7073 124.864 55.3415 124.605 53.9588C124.589 53.8879 124.574 53.817 124.558 53.7461C123.799 50.285 123.024 46.7507 121.449 45.1686C119.671 43.623 117.546 42.5352 115.256 41.9993C112.862 41.2339 110.588 40.5044 109.063 38.5311C105.884 34.417 106.646 26.4879 109.361 21.7041Z" fill="#093F68"/>
<ellipse cx="126.352" cy="78.4721" rx="9.34997" ry="10.487" transform="rotate(-10.55 126.352 78.4721)" fill="#080C20"/>
<path fill-rule="evenodd" clip-rule="evenodd" d="M116.018 80.4849C117.054 86.1656 121.663 90.196 126.736 90.196C127.332 90.2006 127.926 90.1445 128.511 90.0285C131.34 89.4869 133.798 87.7425 135.251 85.2447C138.39 79.861 137.117 72.9799 132.262 69.0875C130.009 67.2783 127.086 66.5368 124.247 67.0544C118.543 68.1188 114.827 74.1464 116.018 80.4849ZM128.058 87.6845C123.628 88.4977 119.269 85.0773 118.34 80.0424H118.364C117.423 75.0074 120.27 70.2237 124.688 69.3985C126.859 69.0183 129.089 69.5933 130.809 70.9771C134.687 74.1381 135.697 79.6626 133.191 84.001C132.089 85.9145 130.218 87.2572 128.058 87.6845Z" fill="#093F68"/>
<path d="M164.726 106.09C184.9 102.323 198.334 73.943 194.63 54.0066L190.176 56.7095C190.176 56.7095 174.861 43.7454 172.229 28.1622C172.229 28.1622 167.93 38.3517 150.114 42.6093C130.726 47.2256 119.079 45.2403 119.079 45.2403L124.355 76.2871C128.058 96.1757 144.6 109.869 164.726 106.09Z" fill="#080C20"/>
<path fill-rule="evenodd" clip-rule="evenodd" d="M137.645 101.031C143.539 105.532 150.749 107.949 158.153 107.908C160.42 107.881 162.68 107.649 164.905 107.214C174.551 105.408 183.567 97.8978 189.64 86.62C195.333 76.0479 197.619 63.7536 195.761 53.7196C195.689 53.3345 195.433 53.0096 195.077 52.8497C194.721 52.6899 194.309 52.7155 193.975 52.9183L190.271 55.1906C187.389 52.5595 175.599 41.0784 173.372 27.923C173.285 27.3966 172.862 26.9917 172.334 26.9306C171.806 26.8696 171.302 27.1671 171.098 27.6599C171.062 27.7556 166.739 37.371 149.792 41.4013C131.774 45.7053 120.429 44.1898 119.332 44.0432C119.28 44.0363 119.251 44.0324 119.246 44.0324C118.867 43.9693 118.48 44.0938 118.209 44.3666C117.937 44.6394 117.813 45.0271 117.876 45.4077L123.164 76.5023C124.787 86.2021 129.949 94.947 137.645 101.031ZM125.545 76.0838L120.532 46.6515C124.355 47.0342 134.93 47.4767 150.388 43.7932C163.083 40.7675 169.133 34.8117 171.693 31.3315C175.564 45.7904 188.807 57.14 189.402 57.6423C189.794 57.9768 190.357 58.0202 190.795 57.7499L193.737 55.956C194.952 65.1169 192.701 75.9761 187.58 85.5437C181.852 96.1876 173.444 103.244 164.512 104.918C155.602 106.724 146.349 104.617 139.086 99.1296C131.882 93.4006 127.056 85.1866 125.545 76.0838Z" fill="#093F68"/>
<ellipse cx="155.599" cy="61.6464" rx="3.38266" ry="3.39601" transform="rotate(-10.55 155.599 61.6464)" fill="#093F68"/>
<ellipse cx="131.381" cy="64.806" rx="3.38218" ry="3.39649" fill="#093F68"/>
<path d="M144.862 76.3588H144.374C143.77 76.3236 143.218 76.0045 142.885 75.4978C141.492 73.4886 143.099 67.5088 143.862 65.0213C143.977 64.6009 144.311 64.2768 144.733 64.1756C145.156 64.0744 145.599 64.212 145.891 64.5348C146.183 64.8576 146.277 65.3144 146.136 65.7269C145.064 69.2549 144.469 72.9026 144.767 73.9789C146.396 73.9179 148.005 73.5907 149.53 73.0102C150.133 72.8223 150.777 73.1394 150.999 73.7331C151.22 74.3268 150.942 74.9908 150.364 75.2466C148.597 75.8954 146.742 76.2704 144.862 76.3588Z" fill="#093F68"/>
<path d="M150.102 50.9211C149.251 50.9937 148.426 50.6049 147.938 49.9012C147.45 49.1974 147.373 48.2857 147.736 47.5093C148.098 46.7329 148.846 46.2099 149.697 46.1373L165.608 43.3746C166.448 43.2231 167.304 43.5345 167.853 44.1909C168.402 44.8472 168.559 45.7482 168.265 46.5528C167.971 47.3574 167.271 47.9425 166.429 48.0867L150.555 50.8852C150.405 50.9111 150.254 50.9231 150.102 50.9211Z" fill="#093F68"/>
<path d="M122.163 55.1308C120.848 55.2067 119.72 54.1974 119.645 52.8764C119.569 51.5554 120.574 50.423 121.889 50.347L137.919 48.4454C138.77 48.345 139.61 48.7081 140.122 49.398C140.634 50.0878 140.74 50.9996 140.402 51.7899C140.063 52.5801 139.33 53.1288 138.479 53.2292L122.449 55.1308H122.163Z" fill="#093F68"/>
<path d="M187.878 57.9054C187.878 57.9054 195.523 50.1557 201.704 57.1281C207.885 64.1004 205.813 78.3561 190.569 77.1721" fill="#080C20"/>
<path d="M192.367 78.4398C191.76 78.4398 191.176 78.4398 190.486 78.3561C189.828 78.3065 189.335 77.7309 189.384 77.0704C189.433 76.4099 190.007 75.9147 190.664 75.9642C196.488 76.4186 200.775 74.5051 202.716 70.5705C204.606 66.3403 203.867 61.3917 200.823 57.9054C199.637 56.4127 197.874 55.499 195.976 55.3939C192.201 55.2743 188.747 58.6828 188.723 58.7186C188.5 58.9451 188.195 59.0724 187.878 59.0724C187.56 59.0724 187.256 58.9451 187.032 58.7186C186.57 58.2522 186.57 57.4988 187.032 57.0324C187.199 56.8649 191.248 52.8944 196.035 53.002C198.593 53.1149 200.981 54.3204 202.597 56.3148C206.31 60.5104 207.194 66.5164 204.848 71.6109C203.562 74.254 200.251 78.4398 192.367 78.4398Z" fill="#093F68"/>
<path fill-rule="evenodd" clip-rule="evenodd" d="M146.029 66.1814C146.317 68.5281 148.295 70.295 150.65 70.3074C150.869 70.3111 151.088 70.2991 151.305 70.2715L166.846 68.3939C168.077 68.2472 169.199 67.6152 169.965 66.6371C170.731 65.659 171.079 64.4151 170.931 63.1795L169.74 53.5163C169.705 53.2011 169.546 52.9129 169.299 52.715C169.051 52.5166 168.734 52.4262 168.418 52.4639L145.874 55.1787C145.559 55.2171 145.271 55.3807 145.076 55.6331C144.886 55.8816 144.801 56.1951 144.838 56.5062L146.029 66.1814ZM148.399 65.9183L147.375 57.439L167.465 55.0112L168.478 63.4905C168.625 64.7509 167.731 65.8941 166.477 66.0498L150.936 67.9274C149.683 68.0749 148.548 67.1759 148.399 65.9183Z" fill="#093F68"/>
<path fill-rule="evenodd" clip-rule="evenodd" d="M118.15 69.5539C118.433 71.9078 120.422 73.6789 122.783 73.6799L123.402 73.6441L138.884 71.7664C141.442 71.4549 143.264 69.1211 142.957 66.5521L141.766 56.8769C141.685 56.224 141.094 55.759 140.444 55.8364L117.995 58.5512C117.679 58.5896 117.392 58.7533 117.197 59.0057C117.007 59.2541 116.921 59.5676 116.959 59.8787L118.15 69.5539ZM120.52 69.2908L119.496 60.8116L139.622 58.3599L140.646 66.8391C140.793 68.097 139.898 69.2368 138.645 69.3865L123.056 71.288C122.455 71.369 121.846 71.2025 121.369 70.8265C120.891 70.4505 120.585 69.8967 120.52 69.2908Z" fill="#093F68"/>
<path d="M168.942 58.5512C168.284 58.5908 167.719 58.0875 167.68 57.427C167.64 56.7665 168.142 56.199 168.799 56.1593L184.019 54.3176C184.677 54.2416 185.271 54.7155 185.347 55.376C185.423 56.0365 184.951 56.6335 184.293 56.7095L169.085 58.5512H168.942Z" fill="#093F68"/>
<path d="M149.626 88.3183C147.197 88.2894 144.787 87.886 142.48 87.1224C142.074 86.9942 141.767 86.6581 141.674 86.2406C141.581 85.8231 141.717 85.3878 142.031 85.0985C142.345 84.8092 142.788 84.7099 143.195 84.8381C149.863 87.2156 157.296 85.5938 162.38 80.6523C164.987 78.2368 167.127 75.358 168.692 72.1611C168.958 71.5567 169.662 71.2837 170.264 71.5512C170.866 71.8187 171.138 72.5254 170.871 73.1298C170.8 73.357 164.024 88.3183 149.626 88.3183Z" fill="#093F68"/>
<path d="M146.684 61.577L141.218 62.0553L146.684 61.577Z" fill="#FFC9B0"/>
<path d="M141.218 63.2513C140.6 63.2538 140.083 62.7811 140.027 62.163C139.997 61.8455 140.095 61.5293 140.298 61.2845C140.502 61.0397 140.794 60.8867 141.111 60.8594L146.565 60.393C147.215 60.3375 147.788 60.8174 147.851 61.4693C147.881 61.7868 147.783 62.103 147.58 62.3478C147.376 62.5926 147.084 62.7456 146.767 62.7729L141.313 63.2513H141.218Z" fill="#093F68"/>
<path d="M104.574 79.9108H10.0273C8.75758 79.9092 7.56942 80.5389 6.85415 81.5924C6.13888 82.6459 5.98925 83.9866 6.45455 85.173L32.0234 151.297H134.835L108.146 82.3386C107.562 80.8718 106.147 79.9102 104.574 79.9108Z" fill="#080C20"/>
<path fill-rule="evenodd" clip-rule="evenodd" d="M32.0472 152.493H134.823C135.21 152.486 135.57 152.289 135.787 151.967C136.008 151.643 136.057 151.232 135.918 150.866L109.23 81.9081C108.477 79.9746 106.617 78.7057 104.55 78.7149H10.0273C8.36899 78.7266 6.82265 79.5571 5.89236 80.9357C4.96208 82.3143 4.76704 84.0644 5.37082 85.6155L30.9396 151.727C31.1164 152.187 31.5562 152.491 32.0472 152.493ZM133.084 150.101H32.8689L7.5621 84.6946C7.25801 83.8809 7.36976 82.9693 7.86127 82.2539C8.35279 81.5386 9.16183 81.1101 10.0273 81.1068H104.574C105.66 81.1033 106.638 81.7674 107.039 82.7811L133.084 150.101Z" fill="#093F68"/>
<path d="M100.846 86.2972L15.5293 86.2015L39.6452 147.506L124.664 147.589L100.846 86.2972Z" fill="#080C20"/>
<path fill-rule="evenodd" clip-rule="evenodd" d="M39.6452 148.714L124.664 148.797C125.063 148.786 125.429 148.575 125.641 148.235C125.865 147.909 125.914 147.493 125.772 147.123L101.954 85.8188C101.777 85.3588 101.337 85.0548 100.846 85.0534L15.5293 84.9697C15.1331 84.9691 14.7626 85.1663 14.5408 85.4959C14.3203 85.824 14.2757 86.2404 14.4217 86.6081L38.5376 147.96C38.7182 148.415 39.1571 148.714 39.6452 148.714ZM122.925 146.405L40.455 146.322L17.2799 87.4094L100.036 87.4931L122.925 146.405Z" fill="#093F68"/>
<path fill-rule="evenodd" clip-rule="evenodd" d="M85.3175 99.846C86.3454 102.357 88.7816 103.997 91.4854 103.997C95.133 103.978 98.0963 101.034 98.1545 97.3716C98.1835 94.6565 96.5771 92.1925 94.0875 91.1332C91.5979 90.0739 88.7177 90.6291 86.7955 92.5387C84.8733 94.4484 84.2895 97.3345 85.3175 99.846ZM87.1986 97.2922C87.2094 94.9222 89.1254 93.0067 91.4854 93.0064C93.8683 93.0262 95.7859 94.9786 95.7727 97.3716C95.7399 99.7414 93.8062 101.639 91.4463 101.617C89.0864 101.595 87.1879 99.6621 87.1986 97.2922Z" fill="#093F68"/>
<path d="M96.9636 112.536C96.7682 112.535 96.5759 112.486 96.4039 112.393L65.6546 95.6495L43.6943 112.249C43.3539 112.508 42.9021 112.564 42.5089 112.397C42.1158 112.231 41.8412 111.866 41.7884 111.441C41.7357 111.015 41.9129 110.594 42.2533 110.336L64.8806 93.2695C65.2535 92.9871 65.7564 92.9497 66.1667 93.1739L97.5829 110.24C98.0638 110.501 98.3064 111.057 98.1712 111.588C98.036 112.12 97.5578 112.491 97.0113 112.488L96.9636 112.536Z" fill="#093F68"/>
<rect x="2.17918" y="164.225" width="233.799" height="11.1343" rx="3.53" fill="#093F68"/>
<path fill-rule="evenodd" clip-rule="evenodd" d="M6.45455 176.555H231.775C234.756 176.555 237.175 174.132 237.181 171.138V168.459C237.175 165.463 234.758 163.036 231.775 163.029H6.45455C3.47121 163.036 1.05437 165.463 1.04782 168.459V171.138C1.05439 174.132 3.47314 176.555 6.45455 176.555ZM3.42964 168.459C3.42964 166.781 4.78394 165.421 6.45455 165.421H231.775C232.577 165.421 233.346 165.741 233.913 166.311C234.481 166.88 234.799 167.653 234.799 168.459V171.138C234.793 172.811 233.441 174.163 231.775 174.163H6.45455C4.78858 174.163 3.4362 172.811 3.42964 171.138V168.459Z" fill="#093F68"/>
<path d="M184.138 176.842C183.48 176.842 182.947 176.307 182.947 175.646V125.213C182.947 124.553 183.48 124.017 184.138 124.017C184.796 124.017 185.329 124.553 185.329 125.213V175.646C185.329 176.307 184.796 176.842 184.138 176.842Z" fill="#093F68"/>
<path d="M79.7074 112.333L74.7651 119.975L73.2407 126.529L73.8719 127.007L79.2905 122.845L84.602 115.598L79.7074 112.333Z" fill="#093F68"/>
<path fill-rule="evenodd" clip-rule="evenodd" d="M73.1574 127.964C73.3635 128.119 73.6142 128.203 73.8719 128.203C74.1418 128.211 74.4063 128.127 74.6222 127.964L80.0527 123.802L80.2909 123.563L85.5547 116.339C85.7498 116.076 85.8283 115.743 85.772 115.42C85.7157 115.096 85.5295 114.811 85.257 114.629L80.3624 111.364C80.1001 111.188 79.7788 111.123 79.4692 111.185C79.1549 111.25 78.8801 111.44 78.707 111.711L73.7647 119.353C73.6901 119.471 73.6338 119.6 73.598 119.736L72.0855 126.29C71.9909 126.74 72.1623 127.205 72.5262 127.486L73.1574 127.964ZM74.8842 124.723L75.8726 120.453L80.0765 113.995L82.9228 115.909L78.4569 122.008L74.8842 124.723Z" fill="#093F68"/>
<path d="M101.584 112.118C101.584 112.118 102.037 101.462 98.0116 100.338C93.9863 99.2134 85.7214 96.965 83.4825 100.338C81.2436 103.71 75.6583 110.24 77.2183 113.935C78.7784 117.631 93.9863 125.68 93.9863 125.68L111.755 147.207L131.381 125.273L101.584 112.118Z" fill="#080C20"/>
<path fill-rule="evenodd" clip-rule="evenodd" d="M110.873 147.912C111.092 148.176 111.413 148.333 111.755 148.343C112.105 148.349 112.441 148.201 112.672 147.936L132.298 126.015C132.552 125.728 132.654 125.337 132.572 124.962C132.492 124.584 132.235 124.267 131.881 124.113L102.823 111.352C102.871 108.326 102.609 100.385 98.357 99.1895C94.1054 97.9935 85.2689 95.5299 82.5179 99.6678C82.1368 100.242 81.6604 100.912 81.1364 101.641C81.0459 101.767 80.9542 101.894 80.8616 102.023C78.1273 105.815 74.58 110.735 76.1465 114.402C77.7662 118.193 90.2231 125.01 93.248 126.624L110.873 147.912ZM84.471 100.959C85.0903 100.086 86.4955 99.7635 88.1866 99.7635C91.3958 99.9333 94.5737 100.483 97.6544 101.402C99.798 102 100.524 107.956 100.358 111.986C100.316 112.497 100.603 112.979 101.072 113.182L129.356 125.608L111.755 145.281L94.8676 124.878C94.7654 124.76 94.6448 124.659 94.5104 124.579C88.7821 121.542 79.2667 115.861 78.2783 113.433C77.2898 111.005 80.8864 105.994 83.0419 103.005C83.1223 102.891 83.202 102.78 83.2805 102.669C83.7255 102.045 84.137 101.468 84.471 100.959Z" fill="#093F68"/>
<path d="M92.4144 93.4609L81.0888 110.527C81.0888 110.527 82.899 113.553 85.7691 113.385L96.9636 96.1757C96.9636 96.1757 94.3436 92.2888 92.4144 93.4609Z" fill="#093F68"/>
<path fill-rule="evenodd" clip-rule="evenodd" d="M80.0655 111.079C80.1713 111.251 82.182 114.533 85.5309 114.533L85.7929 114.521C86.1657 114.497 86.5052 114.297 86.7099 113.983L97.964 96.8813C98.2363 96.4767 98.2363 95.9464 97.964 95.5418C97.6306 95.0515 94.5699 90.7222 91.7594 92.4443C91.6063 92.5282 91.4787 92.6522 91.3902 92.8031L80.0646 109.798C79.8183 110.188 79.8183 110.686 80.0646 111.077L80.0655 111.079ZM85.1379 112.106C84.1027 111.873 83.183 111.28 82.5417 110.431L93.1766 94.4416C93.7482 94.4416 94.7605 95.2787 95.5584 96.2714L85.1379 112.106Z" fill="#093F68"/>
<path d="M74.4435 125.213L72.0379 128.801L74.4435 125.213Z" fill="#093F68"/>
<path d="M72.0379 129.997C71.8004 129.998 71.5681 129.927 71.371 129.794C70.8317 129.425 70.6884 128.689 71.0495 128.143L73.4313 124.555C73.7996 124.007 74.5407 123.863 75.0866 124.233C75.6325 124.602 75.7765 125.347 75.4082 125.895L73.0264 129.483C72.8019 129.808 72.4318 130 72.0379 129.997Z" fill="#093F68"/>
<path d="M146.684 108.637C146.684 108.637 148.566 99.8831 152.793 97.3118C157.021 94.7405 182.733 91.0451 187.878 95.4701C191.046 98.4105 193.032 102.414 193.463 106.724L146.684 108.637Z" fill="#080C20"/>
<path fill-rule="evenodd" clip-rule="evenodd" d="M145.767 109.415C145.996 109.684 146.332 109.837 146.684 109.833L193.463 107.92C193.788 107.906 194.094 107.759 194.309 107.513C194.52 107.274 194.627 106.959 194.606 106.64C194.166 102.016 192.047 97.7163 188.652 94.5612C183.031 89.7415 156.783 93.4609 152.174 96.2833C147.602 99.0831 145.632 107.873 145.519 108.376L145.517 108.386C145.436 108.75 145.529 109.13 145.767 109.415ZM153.413 98.3284C156.259 96.5943 168.323 94.6209 177.35 94.6209C181.864 94.6209 185.627 95.1113 187.104 96.379C189.733 98.8071 191.487 102.041 192.093 105.576L148.232 107.382C149.054 104.523 150.84 99.8951 153.413 98.3284Z" fill="#093F68"/>
<path d="M214.149 175.646L201.764 108.135C201.132 107.382 200.775 106.939 200.775 106.939C198.493 104.737 195.45 103.507 192.284 103.507H144.743C143.445 103.507 138.657 102.885 130.988 109.343C119.912 118.683 104.192 130.416 95.9156 138.381L102.99 174.259C104.383 174.594 127.07 164.177 127.07 164.177L129.309 175.598L214.149 175.646Z" fill="#080C20"/>
<path fill-rule="evenodd" clip-rule="evenodd" d="M129.309 176.842H214.113C214.47 176.848 214.811 176.693 215.041 176.42C215.272 176.146 215.369 175.783 215.304 175.431L202.931 107.884C202.892 107.681 202.802 107.491 202.669 107.334C202.449 107.089 202.262 106.878 202.107 106.705C201.817 106.379 201.644 106.185 201.597 106.138C199.096 103.717 195.757 102.367 192.284 102.371H144.433L144.419 102.37C142.562 102.322 137.674 102.195 130.202 108.482C126.058 111.986 121.187 115.897 116.423 119.676C115.994 120.021 115.564 120.366 115.133 120.712C107.611 126.755 99.9927 132.875 95.0701 137.615C94.7788 137.896 94.6488 138.305 94.7247 138.704L101.799 174.582C101.889 175.042 102.238 175.406 102.692 175.515C102.707 175.515 102.723 175.515 102.74 175.516C103.269 175.528 105.129 175.571 126.165 165.947L128.118 175.885C128.233 176.451 128.734 176.854 129.309 176.842ZM212.72 174.45H130.285L128.201 164.034C128.131 163.676 127.903 163.37 127.58 163.202C127.258 163.034 126.877 163.024 126.546 163.173C117.435 167.37 107.17 171.855 103.919 172.92L97.2137 138.835C102.358 133.968 110.266 127.641 117.924 121.53L118.206 121.304C122.869 117.584 127.664 113.758 131.75 110.312C138.37 104.735 142.575 104.746 144.265 104.75C144.311 104.75 144.355 104.751 144.398 104.751H192.308C195.133 104.742 197.854 105.826 199.906 107.776L200.668 108.673L212.72 174.45Z" fill="#093F68"/>
<path d="M171.8 110.156H214.387C218.228 110.067 221.914 111.675 224.47 114.555C227.026 117.435 228.194 121.296 227.666 125.118L222.2 175.646H149.816L155.318 125.118C156.37 116.723 163.377 110.362 171.8 110.156Z" fill="#093F68"/>
<path fill-rule="evenodd" clip-rule="evenodd" d="M149.816 176.842H222.2C222.805 176.84 223.312 176.382 223.379 175.778L228.845 125.237C229.406 121.081 228.129 116.886 225.348 113.756C222.568 110.625 218.563 108.873 214.387 108.96H171.824C162.79 109.172 155.268 115.984 154.127 124.986L148.637 175.527C148.603 175.862 148.711 176.196 148.935 176.448C149.16 176.698 149.48 176.841 149.816 176.842ZM221.128 174.45H151.15L156.509 125.237C157.489 117.45 163.987 111.55 171.8 111.352H214.387C217.888 111.265 221.25 112.729 223.578 115.355C225.907 117.982 226.966 121.504 226.475 124.986L221.128 174.45Z" fill="#093F68"/>
<path d="M178.315 110.156H220.913C224.752 110.071 228.435 111.68 230.988 114.56C233.541 117.439 234.708 121.299 234.18 125.118L228.714 175.646H156.342L161.809 125.118C162.862 116.714 169.882 110.351 178.315 110.156Z" fill="#080C20"/>
<path fill-rule="evenodd" clip-rule="evenodd" d="M156.342 176.842H228.714C229.321 176.86 229.844 176.417 229.929 175.814L235.395 125.273C235.911 121.093 234.609 116.892 231.822 113.744C229.042 110.645 225.066 108.902 220.913 108.96H178.315C169.283 109.173 161.764 115.986 160.63 124.986L155.163 175.527C155.129 175.862 155.237 176.196 155.461 176.448C155.686 176.698 156.006 176.841 156.342 176.842ZM227.654 174.45H157.664L162.988 125.237C163.975 117.44 170.49 111.538 178.315 111.352H220.913C224.383 111.291 227.712 112.733 230.048 115.311C232.371 117.96 233.447 121.485 233.001 124.986L227.654 174.45Z" fill="#093F68"/>
<path d="M95.9156 138.393L46.2071 144.277C46.2071 144.277 34.4171 132.724 31.9162 133.166C29.4153 133.609 32.0829 142.255 32.0829 142.255C32.0829 142.255 23.2583 136.276 21.6982 141.418C20.1381 146.561 20.5073 156.176 22.6985 159.094C24.8898 162.012 34.0003 163.161 48.8985 162.3L101.596 166.509L95.9156 138.393Z" fill="#080C20"/>
<path fill-rule="evenodd" clip-rule="evenodd" d="M101.489 167.705H101.584C101.922 167.701 102.243 167.554 102.466 167.299C102.712 167.018 102.814 166.637 102.74 166.27L97.0708 138.153C96.9509 137.545 96.3871 137.129 95.7727 137.197L46.5882 143.033C41.9555 138.536 34.2861 131.528 31.6899 132.006C31.0646 132.122 30.5208 132.507 30.2013 133.059C29.32 134.518 29.6892 137.472 30.2013 139.792C28.1053 138.739 25.1518 137.627 22.9844 138.405C21.8038 138.855 20.9153 139.855 20.6025 141.083C18.9591 146.465 19.2449 156.511 21.7935 159.836C24.342 163.161 33.3929 164.392 48.8747 163.507L101.489 167.705ZM48.9819 161.104H48.8866H48.8509C28.9389 162.252 24.6397 159.561 23.7108 158.365C21.8411 155.913 21.3885 146.764 22.901 141.765C23.0015 141.249 23.3626 140.823 23.8537 140.641C25.6758 140.007 29.4986 141.897 31.4875 143.248C31.9054 143.535 32.4584 143.525 32.866 143.224C33.2736 142.922 33.4467 142.395 33.2976 141.909C32.2734 138.692 31.8566 135.211 32.2735 134.374C33.9526 134.745 40.2883 140.151 45.3735 145.138C45.6314 145.393 45.9907 145.516 46.35 145.473L94.9748 139.708L100.108 165.182L48.9819 161.104Z" fill="#093F68"/>
<path d="M127.07 165.421C126.523 165.412 126.053 165.031 125.929 164.496C125.805 163.962 126.059 163.411 126.546 163.161L143.552 154.777C143.935 154.571 144.399 154.59 144.763 154.828C145.127 155.065 145.334 155.483 145.303 155.918C145.271 156.352 145.007 156.736 144.612 156.918L127.606 165.361C127.434 165.422 127.251 165.442 127.07 165.421Z" fill="#093F68"/>
<path d="M45.302 132.401C44.7683 132.429 44.2814 132.096 44.1111 131.588L32.0472 95.8528C31.8764 95.4404 31.9486 94.9668 32.2345 94.6247C32.5203 94.2826 32.9722 94.1289 33.4062 94.2262C33.8403 94.3235 34.1842 94.6556 34.298 95.0873L46.088 129.973L70.4183 129.064C71.076 129.064 71.6092 129.6 71.6092 130.26C71.6092 130.921 71.076 131.456 70.4183 131.456L45.2067 132.401H45.302Z" fill="#093F68"/>
<path d="M54.4244 128.203C53.929 128.207 53.4832 127.902 53.3049 127.438L47.7791 112.763C47.5456 112.146 47.8548 111.455 48.4698 111.221C49.0848 110.986 49.7726 111.297 50.0061 111.914L55.5319 126.589C55.6441 126.885 55.6343 127.214 55.5048 127.504C55.3752 127.793 55.1365 128.019 54.8412 128.131C54.7072 128.178 54.5663 128.203 54.4244 128.203Z" fill="#093F68"/>
<path fill-rule="evenodd" clip-rule="evenodd" d="M46.2071 163.041H54.4244C55.0821 163.041 55.6153 162.506 55.6153 161.845V142.937C55.6153 142.277 55.0821 141.741 54.4244 141.741H46.2071C45.5494 141.741 45.0162 142.277 45.0162 142.937V161.845C45.0162 162.506 45.5494 163.041 46.2071 163.041ZM53.2334 160.649H47.398V144.133H53.2334V160.649Z" fill="#093F68"/>
<path fill-rule="evenodd" clip-rule="evenodd" d="M44.5994 152.134C44.5994 155.304 47.1587 157.875 50.3157 157.875C53.4728 157.875 56.0321 155.304 56.0321 152.134C56.0321 148.964 53.4728 146.393 50.3157 146.393C47.1587 146.393 44.5994 148.964 44.5994 152.134ZM46.9812 152.134C46.9812 150.285 48.4741 148.785 50.3157 148.785V148.797C52.1527 148.797 53.6437 150.289 53.6503 152.134C53.6503 153.983 52.1573 155.483 50.3157 155.483C48.4741 155.483 46.9812 153.983 46.9812 152.134Z" fill="#093F68"/>
<path d="M112.636 135.642C111.927 135.645 111.22 135.568 110.528 135.415C107.9 134.79 105.601 133.198 104.085 130.954C103.737 130.392 103.907 129.653 104.466 129.303C105.025 128.953 105.761 129.125 106.11 129.686C107.292 131.389 109.054 132.598 111.064 133.083C113.446 133.609 116.161 132.891 119.043 130.978C121.151 129.748 122.65 127.688 123.176 125.297C123.89 121.35 121.234 117.631 121.199 117.595C120.945 117.249 120.895 116.794 121.067 116.4C121.239 116.007 121.607 115.736 122.032 115.689C122.457 115.642 122.875 115.826 123.128 116.172C123.259 116.363 126.403 120.728 125.51 125.739C124.886 128.794 123.004 131.44 120.329 133.023C118.079 134.64 115.402 135.551 112.636 135.642Z" fill="#093F68"/>
<path d="M111.755 170.994C111.24 170.994 110.783 170.661 110.623 170.169L99.1073 134.829C98.9039 134.201 99.2449 133.527 99.8695 133.322C100.494 133.118 101.166 133.46 101.37 134.087L112.886 169.427C113.091 170.051 112.756 170.724 112.136 170.934C112.012 170.972 111.884 170.992 111.755 170.994Z" fill="#093F68"/>
<path fill-rule="evenodd" clip-rule="evenodd" d="M21.1265 57.6423H84.602C85.2597 57.6423 85.7929 57.1069 85.7929 56.4464V4.26724C85.7929 3.60673 85.2597 3.07129 84.602 3.07129H21.1265C20.4688 3.07129 19.9356 3.60673 19.9356 4.26724V56.4464C19.9356 57.1069 20.4688 57.6423 21.1265 57.6423ZM83.4111 55.2504H22.3175V5.46318H83.4111V55.2504Z" fill="#093F68"/>
<path fill-rule="evenodd" clip-rule="evenodd" d="M35.0364 41.9754H61.2364C61.8941 41.9754 62.4273 41.44 62.4273 40.7795V14.4687C62.4273 13.8081 61.8941 13.2727 61.2364 13.2727H35.0364C34.3786 13.2727 33.8455 13.8081 33.8455 14.4687V40.7795C33.8455 41.44 34.3786 41.9754 35.0364 41.9754ZM60.0455 39.5835H36.2273V15.6646H60.0455V39.5835Z" fill="#093F68"/>
<path fill-rule="evenodd" clip-rule="evenodd" d="M45.1949 34.0423C45.2058 42.7116 52.2106 49.7317 60.8434 49.7251C64.9946 49.722 68.9742 48.0613 71.9051 45.109C74.836 42.1567 76.4776 38.1553 76.4681 33.9865C76.4484 25.3172 69.4365 18.3042 60.8037 18.3196C52.171 18.335 45.1839 25.373 45.1949 34.0423ZM48.5845 28.9433C50.6371 23.9639 55.4769 20.7186 60.8434 20.7235C68.1379 20.7365 74.0536 26.6612 74.0863 33.9865C74.1056 39.3756 70.8871 44.2447 65.9342 46.3193C60.9813 48.394 55.2714 47.2648 51.4716 43.4592C47.6718 39.6537 46.532 33.9227 48.5845 28.9433Z" fill="#093F68"/>
<path fill-rule="evenodd" clip-rule="evenodd" d="M219.913 92.839H260.821C261.137 92.839 261.44 92.713 261.663 92.4887C261.886 92.2644 262.012 91.9603 262.012 91.6431V37.969C262.012 37.3085 261.479 36.7731 260.821 36.7731H219.913C219.255 36.7731 218.722 37.3085 218.722 37.969V91.6431C218.722 92.3036 219.255 92.839 219.913 92.839ZM259.63 90.4471H221.104V39.165H259.63V90.4471Z" fill="#093F68"/>
<path fill-rule="evenodd" clip-rule="evenodd" d="M227.749 86.046H252.699C253.097 86.044 253.468 85.842 253.687 85.5079C253.908 85.1798 253.952 84.7633 253.806 84.3956L241.326 53.7675C241.143 53.3209 240.711 53.0284 240.23 53.026C239.745 53.0235 239.307 53.3168 239.122 53.7675L226.654 84.3956C226.504 84.7614 226.544 85.1777 226.761 85.5079C226.98 85.842 227.351 86.044 227.749 86.046ZM250.96 83.6541H229.524L240.242 57.3433L250.96 83.6541Z" fill="#093F68"/>
<path fill-rule="evenodd" clip-rule="evenodd" d="M227.749 63.2513H249.4C250.058 63.2513 250.591 62.7158 250.591 62.0553V44.2118C250.591 43.5513 250.058 43.0159 249.4 43.0159H227.749C227.092 43.0159 226.558 43.5513 226.558 44.2118V62.0553C226.558 62.7158 227.092 63.2513 227.749 63.2513ZM248.209 60.8594H228.988L228.94 45.4078H248.209V60.8594Z" fill="#093F68"/>
<path fill-rule="evenodd" clip-rule="evenodd" d="M206.658 23.0795H232.477C233.135 23.0795 233.668 22.544 233.668 21.8835V2.35372C233.668 1.69322 233.135 1.15778 232.477 1.15778H206.658C206.001 1.15778 205.467 1.69322 205.467 2.35372V21.8835C205.467 22.544 206.001 23.0795 206.658 23.0795ZM231.286 20.6876H207.849V3.54967H231.286V20.6876Z" fill="#093F68"/>
<path d="M214.149 15.6646C213.678 15.6615 213.254 15.3803 213.065 14.947C212.937 14.6568 212.929 14.3274 213.043 14.0312C213.157 13.7351 213.384 13.4967 213.673 13.3684L219.091 10.9765C219.462 10.8177 219.888 10.8582 220.223 11.0841L222.771 12.7943L226.773 7.05376C227.005 6.67811 227.424 6.46173 227.864 6.49112C228.303 6.52051 228.69 6.79086 228.871 7.19411C229.051 7.59736 228.996 8.06771 228.726 8.41714L224.057 15.1503C223.687 15.6805 222.964 15.8183 222.426 15.4613L219.437 13.464L214.673 15.5689C214.509 15.6436 214.329 15.6764 214.149 15.6646Z" fill="#093F68"/>
</svg>
