<svg width="135" height="213" viewBox="0 0 135 213" fill="none" xmlns="http://www.w3.org/2000/svg">
<g id="designer_(5) 2 copy">
<g id="designer_(5)">
<path id="Path" d="M129.809 171.761C134.739 177.924 121.25 190.59 114.888 183.618C107.4 175.422 125.054 165.816 129.809 171.761Z" fill="#080C20"/>
<path id="Shape" fill-rule="evenodd" clip-rule="evenodd" d="M114.068 184.35C115.425 185.902 117.395 186.78 119.457 186.754C122.346 186.598 125.092 185.448 127.229 183.497C131.175 180.132 133.624 174.788 130.662 171.083C129.142 169.182 126.551 168.439 123.272 169.007C119.074 169.728 113.816 172.832 112.341 177.137C111.461 179.673 112.135 182.488 114.068 184.35ZM123.633 171.127C124.181 171.031 124.737 170.979 125.294 170.974C126.665 170.874 128.008 171.4 128.945 172.406C131.011 175.007 128.902 179.159 125.797 181.804C122.693 184.448 118.375 185.792 115.686 182.842C114.316 181.558 113.82 179.594 114.418 177.815C115.456 174.777 119.501 171.848 123.633 171.127Z" fill="#093F68"/>
<path id="Shape_2" fill-rule="evenodd" clip-rule="evenodd" d="M56.5358 14.9357C56.6518 14.9514 56.7695 14.9514 56.8856 14.9357C57.1383 14.9424 57.3855 14.8613 57.5852 14.7062L59.8698 12.7501C60.2676 12.4178 60.3772 11.8518 60.1322 11.3951C59.5528 10.3351 54.3932 1.0464 49.5287 2.07362C46.938 2.62001 46.1728 3.88764 45.987 4.87114C45.7656 6.26186 46.3497 7.65819 47.4955 8.47733C47.9845 8.74536 48.5117 8.93699 49.0587 9.04558C51.1247 9.61382 54.9726 10.6738 55.8143 14.1598C55.9049 14.5255 56.1776 14.8187 56.5358 14.9357ZM49.9988 4.19362H50.3158C52.513 4.19362 55.7815 8.25877 57.7819 11.6573L57.3884 11.9852C55.6722 8.54301 51.7326 7.44222 49.6879 6.87089C49.6749 6.86724 49.6619 6.86361 49.649 6.86001C49.4738 6.81365 49.2791 6.75029 49.1132 6.69626C48.9271 6.63567 48.777 6.58681 48.7307 6.58681C48.3415 6.26941 48.1231 5.78828 48.1405 5.2864C48.2279 4.8165 48.9057 4.4231 49.9988 4.19362Z" fill="#093F68"/>
<path id="Path_2" d="M57.6071 129.744H81.7108C89.1008 129.744 96.1882 132.678 101.414 137.902C106.639 143.126 109.575 150.211 109.575 157.599V207.397H29.743V157.588C29.7491 142.208 42.2225 129.744 57.6071 129.744V129.744Z" fill="#080C20"/>
<path id="Shape_3" fill-rule="evenodd" clip-rule="evenodd" d="M29.743 208.489H109.619C110.205 208.466 110.669 207.984 110.668 207.397V157.588C110.65 141.609 97.6942 128.663 81.7108 128.651H57.6618C49.9761 128.642 42.6017 131.686 37.1609 137.113C31.7201 142.539 28.6586 149.904 28.6499 157.588V207.397C28.6499 208 29.1393 208.489 29.743 208.489ZM108.526 206.304H30.8362L30.8908 157.588C30.9089 142.817 42.8859 130.848 57.6618 130.836H81.7108C96.5038 130.824 108.507 142.799 108.526 157.588V206.304Z" fill="#093F68"/>
<path id="Path_3" d="M95.069 185.825C94.4652 185.825 93.9758 185.336 93.9758 184.732V145.84C93.9758 145.237 94.4652 144.747 95.069 144.747C95.6727 144.747 96.1621 145.237 96.1621 145.84V184.7C96.171 184.995 96.0597 185.282 95.8538 185.494C95.6478 185.706 95.3647 185.825 95.069 185.825Z" fill="#093F68"/>
<path id="Path_4" d="M46.5992 208.489C45.9955 208.489 45.5061 208 45.5061 207.397V145.84C45.5061 145.237 45.9955 144.747 46.5992 144.747C47.203 144.747 47.6924 145.237 47.6924 145.84V207.364C47.7013 207.659 47.59 207.946 47.384 208.158C47.1781 208.37 46.8949 208.49 46.5992 208.489Z" fill="#093F68"/>
<path id="Path_5" d="M85.2416 159.303H54.1199L46.5991 166.57V207.397H92.7623V166.57L85.2416 159.303Z" fill="#093F68"/>
<path id="Shape_4" fill-rule="evenodd" clip-rule="evenodd" d="M46.5993 208.489H92.7625C93.3536 208.49 93.8379 208.02 93.8556 207.429V166.603C93.8574 166.307 93.739 166.023 93.5277 165.816L85.996 158.549C85.7933 158.354 85.5232 158.244 85.2417 158.243H54.1201C53.8386 158.244 53.5684 158.354 53.3658 158.549L45.8341 165.816C45.6227 166.023 45.5044 166.307 45.5061 166.603V207.397C45.5061 208 45.9956 208.489 46.5993 208.489ZM91.6694 206.304H47.6924V167.04L54.5683 160.396H84.7935L91.6694 167.04V206.304Z" fill="#093F68"/>
<path id="Path_6" d="M54.12 162.319C53.5163 162.319 53.0269 161.83 53.0269 161.227V129.744C53.0269 129.14 53.5163 128.651 54.12 128.651C54.7237 128.651 55.2131 129.14 55.2131 129.744V161.227C55.2131 161.83 54.7237 162.319 54.12 162.319Z" fill="#093F68"/>
<path id="Path_7" d="M85.4166 162.319C84.8129 162.319 84.3235 161.83 84.3235 161.227V129.744C84.3235 129.14 84.8129 128.651 85.4166 128.651C86.0203 128.651 86.5098 129.14 86.5098 129.744V161.227C86.5098 161.83 86.0203 162.319 85.4166 162.319Z" fill="#093F68"/>
<path id="Path_8" d="M23.7745 120.837C24.9551 123.449 27.4802 124.312 31.8747 124.116C41.3194 123.679 50.8734 124.116 60.2962 124.116H112.45C115.554 124.116 117.15 122.597 117.325 119.46C118.101 105.943 117.325 92.6217 116.44 79.1477C115.696 67.0178 114.046 54.5819 107.935 43.8398C96.1402 23.0769 64.5485 13.6134 50.8734 31.3712C50.8734 31.3712 41.1117 28.0928 31.8528 39.5233C24.2664 48.8666 23.5449 61.2806 23.4138 72.7658L22.9218 115.461C22.8296 117.293 23.12 119.124 23.7745 120.837Z" fill="#080C20"/>
<path id="Shape_5" fill-rule="evenodd" clip-rule="evenodd" d="M22.736 121.285C24.2226 124.575 27.3927 125.241 30.5628 125.241C31.011 125.241 31.4264 125.219 31.8746 125.187C38.2367 124.892 44.7518 124.979 51.0592 125.066C54.1416 125.154 57.213 125.154 60.2845 125.154H60.2853H112.439C116.134 125.143 118.189 123.187 118.407 119.471C119.184 105.91 118.342 92.2611 117.522 79.0384C116.822 67.6188 115.237 54.4398 108.875 43.2606C101.846 30.9122 87.6684 21.9732 73.5888 20.9897C63.9801 20.334 55.7925 23.5359 50.447 30.0926C47.8672 29.579 39.2205 28.6829 30.9892 38.8349C23.2279 48.3639 22.4408 60.7998 22.3097 72.7112L21.8177 115.417C21.6997 117.416 22.0129 119.418 22.736 121.285ZM32.6835 40.179C38.3241 33.2289 44.0412 31.9831 47.4409 31.9831C48.4822 31.9631 49.5207 32.0957 50.5236 32.3765C50.9659 32.5241 51.4531 32.3749 51.7369 32.005C56.6014 25.6887 64.308 22.5633 73.4357 23.1862C86.8157 24.1151 100.294 32.6169 106.973 44.3534C113.095 55.1611 114.614 67.4549 115.347 79.2023C116.221 92.9495 116.997 105.921 116.221 119.362C116.079 121.897 114.975 122.99 112.439 122.99H60.2853C58.7562 122.99 57.2272 122.968 55.6968 122.946C54.1637 122.925 52.6292 122.903 51.092 122.903C44.7518 122.815 38.2039 122.728 31.7762 123.023C26.7369 123.252 25.4142 121.897 24.7364 120.389C24.1476 118.809 23.8981 117.122 24.004 115.439L24.4959 72.7439C24.6271 61.2151 25.3595 49.1945 32.6835 40.179Z" fill="#093F68"/>
<path id="Path_9" d="M63.0619 129.743H75.9063V137.098C75.9063 140.116 73.4592 142.562 70.4406 142.562H68.5057C65.4871 142.562 63.04 140.116 63.04 137.098V129.711L63.0619 129.743Z" fill="#080C20"/>
<path id="Shape_6" fill-rule="evenodd" clip-rule="evenodd" d="M68.5166 143.655H70.4514C74.0652 143.643 76.9884 140.711 76.9884 137.098V129.711C76.9884 129.107 76.499 128.618 75.8953 128.618H63.0509C62.4472 128.618 61.9578 129.107 61.9578 129.711V137.098C61.9578 140.719 64.8943 143.655 68.5166 143.655ZM64.155 137.098V130.814L74.8349 130.803V137.098C74.8349 139.512 72.8773 141.469 70.4624 141.469H68.5275C66.1126 141.469 64.155 139.512 64.155 137.098Z" fill="#093F68"/>
<ellipse id="Oval" cx="32.771" cy="96.3808" rx="12.4836" ry="10.753" fill="#080C20"/>
<path id="Shape_7" fill-rule="evenodd" clip-rule="evenodd" d="M19.1942 96.3808C19.1942 102.916 25.283 108.227 32.771 108.227C40.2481 108.227 46.3478 102.916 46.3478 96.3808C46.3478 89.846 40.259 84.535 32.771 84.535C25.283 84.535 19.1942 89.846 19.1942 96.3808ZM21.3805 96.3808C21.3805 91.0917 26.4854 86.7206 32.771 86.7206C39.0784 86.7206 44.1615 91.0917 44.1615 96.3808C44.1615 101.67 39.0565 106.041 32.771 106.041C26.4854 106.041 21.3805 101.67 21.3805 96.3808Z" fill="#093F68"/>
<ellipse id="Oval_2" cx="105.53" cy="96.3808" rx="12.4836" ry="10.753" fill="#080C20"/>
<path id="Shape_8" fill-rule="evenodd" clip-rule="evenodd" d="M91.9644 96.3808C91.9644 102.916 98.0531 108.227 105.53 108.227C113.018 108.227 119.107 102.916 119.107 96.3808C119.107 89.846 112.953 84.535 105.53 84.535C98.1078 84.535 91.9644 89.846 91.9644 96.3808ZM94.1506 96.3808C94.1506 91.0917 99.2556 86.7206 105.53 86.7206C111.816 86.7206 116.921 91.0917 116.921 96.3808C116.921 101.67 111.805 106.041 105.53 106.041C99.2556 106.041 94.1506 101.67 94.1506 96.3808Z" fill="#093F68"/>
<path id="Path_10" d="M92.3798 64.4825L80.2022 48.8338C80.2022 48.8338 77.4585 58.4722 75.775 64.4387L56.5686 64.3841L52.043 50.4074L46.7303 64.3513H31.8418V93.8565C31.8389 103.837 35.8029 113.41 42.8615 120.468C49.9201 127.526 59.4948 131.492 69.4785 131.492C90.2708 131.492 107.126 114.642 107.126 93.8565V64.5262L92.3798 64.4825Z" fill="#080C20"/>
<path id="Shape_9" fill-rule="evenodd" clip-rule="evenodd" d="M30.7487 93.7909C30.7667 115.168 48.0943 132.495 69.4785 132.519C90.8603 132.495 108.189 115.177 108.219 93.8018V64.5371C108.219 63.9336 107.73 63.4443 107.126 63.4443H92.9154L81.0658 48.2109C80.8141 47.8802 80.3966 47.7208 79.9885 47.7996C79.5803 47.8784 79.2522 48.1818 79.1419 48.5825C79.1419 48.5825 76.6386 57.3247 74.988 63.2804L57.4212 63.2258L53.1361 50.0031C52.9935 49.5649 52.5912 49.2633 52.1304 49.2491C51.6521 49.2173 51.2088 49.5009 51.0373 49.9484L45.9761 63.193H31.8418C31.2381 63.193 30.7487 63.6822 30.7487 64.2858V93.7909ZM32.9349 93.8128V65.4004L46.7303 65.4441C47.181 65.4428 47.5847 65.1651 47.747 64.7447L51.9665 53.6967L55.541 64.7229C55.6863 65.1685 56.0998 65.4718 56.5686 65.4769L75.6876 65.5315C76.1926 65.5502 76.6446 65.2203 76.7807 64.7338C77.4234 62.4617 78.2192 59.6588 78.9576 57.0578C79.6007 54.7925 80.2004 52.6803 80.6176 51.2051L91.5162 65.2037C91.7224 65.4646 92.0362 65.6174 92.3689 65.6189H106.033V93.8128C106.262 107.017 99.3457 119.317 87.9435 125.986C76.5412 132.655 62.4268 132.655 51.0246 125.986C39.6223 119.317 32.7065 107.017 32.9349 93.8128Z" fill="#093F68"/>
<path id="Shape_10" fill-rule="evenodd" clip-rule="evenodd" d="M39.9487 96.2045C42.0265 101.21 46.9167 104.472 52.3382 104.467C59.7331 104.455 65.7232 98.4624 65.7292 91.0699C65.7292 85.6501 62.4627 80.7642 57.4535 78.6912C52.4442 76.6181 46.6789 77.7664 42.8469 81.6003C39.0148 85.4342 37.8709 91.1985 39.9487 96.2045ZM41.9675 86.7852C43.7063 82.5945 47.8 79.8645 52.3382 79.8689C58.5214 79.8809 63.5309 84.8887 63.5429 91.0699C63.5473 95.6067 60.8164 99.699 56.6244 101.437C52.4324 103.175 47.6057 102.217 44.3967 99.0089C41.1876 95.8009 40.2288 90.9758 41.9675 86.7852Z" fill="#093F68"/>
<path id="Shape_11" fill-rule="evenodd" clip-rule="evenodd" d="M74.2405 96.2045C76.3183 101.21 81.2084 104.472 86.63 104.467C94.0249 104.455 100.015 98.4624 100.021 91.0699C100.021 85.6501 96.7545 80.7642 91.7452 78.6912C86.7359 76.6181 80.9707 77.7664 77.1386 81.6003C73.3066 85.4342 72.1627 91.1985 74.2405 96.2045ZM76.2593 86.7852C77.9981 82.5945 82.0917 79.8645 86.63 79.8689C92.8157 79.8749 97.8286 84.8863 97.8347 91.0699C97.8391 95.6067 95.1081 99.699 90.9161 101.437C86.7242 103.175 81.8975 102.217 78.6884 99.0089C75.4794 95.8009 74.5205 90.9758 76.2593 86.7852Z" fill="#093F68"/>
<ellipse id="Oval_3" cx="53.4969" cy="91.8021" rx="3.48711" ry="3.48598" fill="#093F68"/>
<ellipse id="Oval_4" cx="84.5201" cy="91.0699" rx="3.48711" ry="3.48598" fill="#093F68"/>
<path id="Path_11" d="M68.8555 103.713C67.7167 103.705 66.5802 103.61 65.4558 103.429C65.0653 103.361 64.7409 103.09 64.6048 102.717C64.4687 102.345 64.5416 101.928 64.7961 101.624C65.0505 101.321 65.4479 101.175 65.8384 101.244C67.5446 101.534 69.2861 101.552 70.998 101.298C71.2057 100.293 69.9049 96.5666 68.0575 93.0697C67.7768 92.5325 67.9848 91.8696 68.5221 91.589C69.0594 91.3083 69.7225 91.5163 70.0033 92.0534C71.2167 94.3919 73.9495 100.074 72.9547 102.304C72.7266 102.846 72.2572 103.251 71.6867 103.396C70.7594 103.617 69.8086 103.723 68.8555 103.713Z" fill="#093F68"/>
<path id="Path_12" d="M42.6202 78.7324C41.4128 78.8078 40.3728 77.8904 40.2973 76.6834C40.2218 75.4763 41.1395 74.4367 42.3469 74.3612L58.8424 72.3068C60.0498 72.1559 61.151 73.0121 61.302 74.2192C61.4529 75.4262 60.5964 76.527 59.389 76.6779L42.8935 78.7324H42.6202Z" fill="#093F68"/>
<path id="Path_13" d="M94.2599 79.1804C94.129 79.1912 93.9974 79.1912 93.8664 79.1804L77.4693 76.1971C76.28 75.9799 75.492 74.8399 75.7094 73.6509C75.9267 72.462 77.0671 71.6743 78.2564 71.8916L94.6535 74.8858C95.8609 74.9914 96.7541 76.0555 96.6484 77.2626C96.5428 78.4696 95.4783 79.3625 94.2709 79.2569L94.2599 79.1804Z" fill="#093F68"/>
<path id="Path_14" d="M71.5664 117.428C65.0999 117.384 58.9196 114.756 54.4042 110.128C54.0403 109.675 54.095 109.016 54.5288 108.629C54.9626 108.242 55.6235 108.262 56.0329 108.675C56.4483 109.134 66.374 119.941 81.7326 112.893C82.088 112.729 82.5039 112.767 82.8237 112.993C83.1434 113.218 83.3184 113.597 83.2828 113.987C83.2471 114.377 83.0063 114.718 82.6509 114.882C79.1851 116.526 75.4025 117.395 71.5664 117.428Z" fill="#093F68"/>
<path id="Path_15" d="M74.3213 90.5235C74.0984 90.523 73.881 90.4543 73.6982 90.3268C71.1703 88.4738 67.7324 88.4738 65.2045 90.3268C64.9746 90.5065 64.6823 90.5868 64.3928 90.5499C64.1033 90.5129 63.8406 90.3618 63.6632 90.1301C63.2936 89.6558 63.3767 88.9722 63.849 88.6002C67.1577 86.1874 71.6466 86.1874 74.9553 88.6002C75.4496 88.9447 75.5718 89.6241 75.2286 90.1192C75.0084 90.3915 74.671 90.5418 74.3213 90.5235Z" fill="#093F68"/>
<path id="Path_16" d="M39.953 88.6876C39.8549 88.6982 39.7559 88.6982 39.6578 88.6876L32.4759 86.7206C32.0683 86.647 31.7373 86.3493 31.6211 85.9519C31.5049 85.5545 31.6233 85.1255 31.9271 84.8439C32.2308 84.5624 32.6676 84.4766 33.0553 84.6225L40.2372 86.5785C40.8409 86.657 41.2667 87.2099 41.1882 87.8134C41.1097 88.4169 40.5567 88.8426 39.953 88.7641V88.6876Z" fill="#093F68"/>
<path id="Path_17" d="M99.4743 88.6876C98.8706 88.7661 98.3175 88.3404 98.2391 87.7369C98.1606 87.1334 98.5864 86.5805 99.1901 86.502L106.372 84.546C106.762 84.3955 107.203 84.4802 107.509 84.7643C107.816 85.0483 107.933 85.4821 107.812 85.8818C107.691 86.2816 107.353 86.5774 106.94 86.6441L99.7585 88.6111C99.6673 88.6483 99.5718 88.6739 99.4743 88.6876Z" fill="#093F68"/>
<path id="Path_18" d="M35.799 43.5994C41.6472 42.0695 54.3823 34.1905 63.7833 33.1633C73.1843 32.1361 95.3313 34.6932 101.945 31.1307C108.558 27.5683 110.591 14.8592 100.928 5.70166C91.2648 -3.45587 63.7614 6.21527 45.9761 16.6295C28.1907 27.0437 21.5554 29.0872 21.8068 36.2122C22.0582 43.3371 29.9179 45.1184 35.799 43.5994Z" fill="#080C20"/>
<path id="Shape_12" fill-rule="evenodd" clip-rule="evenodd" d="M24.0805 42.9328C26.3557 44.4782 29.0593 45.2695 31.809 45.1948C33.2354 45.207 34.6574 45.0343 36.0395 44.6812C39.1551 43.6695 42.1883 42.42 45.1125 40.9439C50.9171 38.2557 58.1427 34.9117 63.8708 34.2888C68.4667 33.9887 73.0756 33.9376 77.6771 34.1359L78.1165 34.1436C87.9483 34.3166 98.0312 34.494 102.426 32.1251C105.618 30.4095 107.87 26.7705 108.449 22.3994C109.291 16.1596 106.798 9.78864 101.639 4.91483C91.0352 -5.13878 62.1873 5.86555 45.3858 15.7006C42.3508 17.4696 39.6556 18.9973 37.2435 20.3645C36.9884 20.5091 36.7365 20.6519 36.4876 20.793C25.1409 27.1748 20.4513 29.8194 20.6809 36.2559C20.7023 38.8917 21.9613 41.3643 24.0805 42.9328ZM76.737 4.87112C80.7957 3.79624 84.9682 3.20927 89.166 3.12266C93.4948 3.12266 97.5066 4.00782 100.185 6.49936C104.82 10.8924 107.061 16.6185 106.328 22.0825C105.804 25.7979 104.011 28.7812 101.431 30.1691C97.459 32.2904 87.0953 32.0942 77.8893 31.9199L77.7645 31.9175C73.0683 31.712 68.3642 31.7667 63.674 32.0814C57.6256 32.7339 50.2673 36.1353 44.3247 38.8822L44.238 38.9223C41.4169 40.3435 38.4938 41.5526 35.4929 42.5394C31.7653 43.5119 27.7972 42.9765 25.3923 41.1843C23.8034 40.0114 22.8662 38.1539 22.8671 36.1794C22.6813 31.0979 26.7368 28.7921 37.5589 22.6726C38.0075 22.4182 38.4667 22.1584 38.9369 21.8923C41.1941 20.6151 43.7035 19.1953 46.4899 17.5583C55.9583 11.994 66.1317 7.72674 76.737 4.87112Z" fill="#093F68"/>
<path id="Path_19" d="M44.8065 207.473C40.9587 210.992 32.3885 213.571 28.1252 206.38C23.862 199.19 15.3464 168.33 15.3464 168.33L25.3268 159.347L45.2438 192.032C47.9875 196.666 48.6544 203.965 44.8065 207.473Z" fill="#080C20"/>
<path id="Shape_13" fill-rule="evenodd" clip-rule="evenodd" d="M34.367 211.932C34.9101 212.01 35.458 212.05 36.0067 212.052C39.5323 211.967 42.9135 210.635 45.5498 208.293C49.7802 204.424 49.179 196.545 46.1838 191.431L26.2559 158.746C26.086 158.47 25.8023 158.283 25.4814 158.237C25.1605 158.191 24.8355 158.289 24.5943 158.506L14.614 167.488C14.312 167.764 14.1896 168.186 14.2969 168.581C14.3022 168.6 14.3091 168.625 14.3178 168.656C14.8919 170.721 22.953 199.725 27.1741 206.894C28.6603 209.598 31.3175 211.459 34.367 211.932ZM29.0652 205.801C25.2611 199.321 17.8387 173.127 16.5816 168.647L25.0862 160.997L44.3145 192.546C46.8834 196.917 47.3644 203.637 44.085 206.675C41.5248 208.965 38.1264 210.086 34.7058 209.768C32.3024 209.416 30.209 207.944 29.0652 205.801Z" fill="#093F68"/>
<path id="Rectangle" d="M7.53088 142.763L16.0961 139.609L19.9989 150.202L11.4337 153.355L7.53088 142.763Z" fill="#080C20"/>
<path id="Shape_14" fill-rule="evenodd" clip-rule="evenodd" d="M10.4163 153.73C10.5764 154.158 10.9864 154.442 11.4439 154.44C11.5763 154.431 11.706 154.398 11.8265 154.342L20.3857 151.184C20.9487 150.974 21.2368 150.349 21.0307 149.785L17.1282 139.185C17.0272 138.914 16.8228 138.694 16.5598 138.573C16.2936 138.464 15.9951 138.464 15.729 138.573L7.16969 141.731C6.60237 141.937 6.30881 142.563 6.51381 143.13L10.4163 153.73ZM12.0888 151.949L8.95151 143.403L15.4994 140.999L18.6476 149.545L12.0888 151.949Z" fill="#093F68"/>
<path id="Path_20" d="M15.5431 139.808C16.1482 137.416 15.8035 134.882 14.5812 132.738C11.3018 126.913 8.18633 134.366 4.86319 122.903C4.86319 122.903 0.315731 129.689 2.185 135.229C4.21823 141.316 8.50334 142.442 8.50334 142.442L15.5431 139.808Z" fill="#080C20"/>
<path id="Shape_15" fill-rule="evenodd" clip-rule="evenodd" d="M8.19721 143.491C8.28794 143.502 8.37975 143.502 8.47049 143.491C8.61495 143.518 8.76329 143.518 8.90775 143.491L15.9476 140.901C16.2623 140.781 16.5042 140.523 16.6034 140.201C17.2932 137.516 16.9007 134.667 15.5103 132.268C14.6878 130.332 12.814 129.052 10.7114 128.989L10.7048 128.989C9.16573 128.814 7.64811 128.642 5.89068 122.586C5.77366 122.18 5.43317 121.878 5.01617 121.81C4.59097 121.737 4.16275 121.921 3.92304 122.28C3.72627 122.575 -0.897703 129.58 1.11367 135.568C3.31088 142.136 7.98951 143.491 8.19721 143.491ZM3.1797 134.847C2.10843 131.645 3.48578 127.875 4.57892 125.569H4.61171C6.37167 130.268 8.26279 130.88 10.46 131.077C11.8664 131.057 13.1286 131.937 13.5973 133.262C14.5764 134.996 14.9241 137.016 14.5811 138.978L8.45956 141.24C7.55225 140.868 4.7101 139.404 3.1797 134.847Z" fill="#093F68"/>
<path id="Path_21" d="M12.3075 153.031C13.8488 158.418 15.9039 164.691 18.3525 171.324C23.217 184.547 28.3329 195.671 31.7216 200.829L35.4055 199.474C34.6184 193.333 31.2953 181.552 26.4199 168.33C23.9713 161.697 21.468 155.588 19.1505 150.485L12.3075 153.031Z" fill="#080C20"/>
<path id="Shape_16" fill-rule="evenodd" clip-rule="evenodd" d="M30.8033 201.452C31.0066 201.761 31.352 201.946 31.7216 201.944C31.854 201.934 31.9837 201.901 32.1042 201.845L35.799 200.479C36.2548 200.301 36.5361 199.841 36.4876 199.354C35.6678 192.895 32.2025 180.875 27.4474 167.98C25.0862 161.554 22.5611 155.358 20.1452 150.058C19.9104 149.533 19.3079 149.279 18.7679 149.479L11.9248 152.004C11.3868 152.204 11.0956 152.786 11.258 153.337C12.854 158.921 14.9528 165.281 17.3249 171.706C22.0582 184.601 27.2397 195.988 30.8033 201.452ZM19.38 170.952C17.161 164.942 15.1824 159.008 13.6411 153.708L18.5711 151.883C20.8339 156.932 23.206 162.724 25.3923 168.734C29.896 180.929 33.2192 192.284 34.203 198.775L32.1698 199.518C28.7154 193.901 23.8728 183.148 19.38 170.952Z" fill="#093F68"/>
<path id="Rectangle_2" d="M10.1831 161.676C9.8527 160.78 10.3119 159.785 11.2086 159.455L19.2144 156.507C20.1109 156.177 21.1052 156.636 21.4355 157.532L21.7166 158.295C22.0469 159.192 21.5878 160.187 20.691 160.517L12.6852 163.465C11.7887 163.795 10.7944 163.336 10.4641 162.439L10.1831 161.676Z" fill="#080C20"/>
<path id="Shape_17" fill-rule="evenodd" clip-rule="evenodd" d="M10.9411 164.33C11.3354 164.511 11.7643 164.604 12.1982 164.603C12.5493 164.606 12.8979 164.543 13.2257 164.418L20.8886 161.587C21.6297 161.312 22.2313 160.754 22.5611 160.035C22.901 159.318 22.9326 158.493 22.6486 157.752L22.4846 157.293C21.9063 155.752 20.1958 154.963 18.6477 155.522L10.9957 158.364C9.45146 158.932 8.65922 160.643 9.22484 162.188L9.39974 162.658C9.66839 163.4 10.2238 164.002 10.9411 164.33ZM19.4457 157.577C19.5367 157.543 19.6328 157.524 19.7299 157.522C19.8307 157.524 19.9304 157.542 20.025 157.577C20.2175 157.665 20.3669 157.826 20.4404 158.025L20.6153 158.495C20.6974 158.687 20.6974 158.904 20.6153 159.096C20.5336 159.293 20.3699 159.444 20.1672 159.511L12.5152 162.352C12.3192 162.434 12.099 162.434 11.903 162.352C11.7152 162.258 11.5677 162.099 11.4876 161.904L11.3237 161.434C11.2495 161.236 11.2573 161.016 11.3455 160.823C11.4337 160.63 11.595 160.481 11.7937 160.407L19.4457 157.577Z" fill="#093F68"/>
<path id="Rectangle_3" d="M22.8501 155.103C23.7906 154.756 24.8338 155.238 25.1803 156.178L28.3836 164.872C28.7302 165.813 28.2484 166.857 27.3076 167.203L26.9905 167.32C26.05 167.666 25.0068 167.185 24.6603 166.244L21.457 157.55C21.1104 156.609 21.5922 155.566 22.533 155.219L22.8501 155.103Z" fill="#080C20"/>
<path id="Shape_18" fill-rule="evenodd" clip-rule="evenodd" d="M23.5776 166.483C24.0303 167.686 25.1779 168.485 26.4635 168.494C26.8285 168.492 27.1905 168.429 27.5348 168.308C29.1312 167.719 29.9483 165.948 29.3603 164.352L26.2777 155.981C25.9968 155.21 25.4178 154.584 24.6708 154.244C23.9301 153.906 23.0869 153.871 22.3205 154.145C21.552 154.426 20.9272 155.001 20.5845 155.744C20.2418 156.486 20.2096 157.335 20.495 158.101L23.5776 166.483ZM23.0748 156.145C23.1762 156.13 23.2795 156.13 23.3809 156.145C23.5125 156.156 23.6398 156.197 23.7525 156.265C23.9706 156.363 24.1401 156.544 24.2226 156.768L27.3271 165.073C27.4449 165.41 27.349 165.784 27.0839 166.023C26.8189 166.262 26.4364 166.318 26.1137 166.166C25.8983 166.068 25.7323 165.887 25.6546 165.663L22.572 157.293C22.4796 157.076 22.4796 156.831 22.572 156.615C22.6723 156.399 22.8526 156.231 23.0748 156.145Z" fill="#093F68"/>
<path id="Rectangle_4" d="M11.6645 165.695C11.3341 164.798 11.7933 163.803 12.6901 163.473L20.6959 160.525C21.5924 160.195 22.5867 160.654 22.917 161.551L23.198 162.314C23.5284 163.21 23.0692 164.205 22.1725 164.535L14.1667 167.483C13.2702 167.813 12.2758 167.354 11.9456 166.458L11.6645 165.695Z" fill="#080C20"/>
<path id="Shape_19" fill-rule="evenodd" clip-rule="evenodd" d="M10.8754 166.669C11.3097 167.838 12.426 168.614 13.6739 168.614C14.0104 168.612 14.3438 168.55 14.6577 168.428L22.3643 165.598C23.91 165.024 24.7015 163.31 24.1352 161.762L23.9603 161.303C23.382 159.762 21.6715 158.973 20.1234 159.533L12.4714 162.374C10.9315 162.947 10.1414 164.654 10.7005 166.199L10.8754 166.669ZM20.9323 161.533C21.0227 161.516 21.1152 161.516 21.2056 161.533C21.3263 161.533 21.4455 161.559 21.5554 161.609C21.7501 161.694 21.9006 161.857 21.9708 162.057L22.1457 162.527C22.2931 162.937 22.0838 163.39 21.6756 163.543L13.969 166.385C13.7707 166.461 13.5497 166.453 13.3575 166.362C13.1654 166.271 13.019 166.105 12.9524 165.904L12.7775 165.445C12.6961 165.249 12.6961 165.029 12.7775 164.833C12.8687 164.642 13.0289 164.494 13.2257 164.418L20.9323 161.533Z" fill="#093F68"/>
<path id="Rectangle_5" d="M13.1351 169.702C12.8047 168.806 13.2639 167.811 14.1607 167.481L22.1665 164.533C23.0629 164.203 24.0573 164.662 24.3875 165.558L24.6686 166.321C24.999 167.218 24.5398 168.212 23.643 168.543L15.6372 171.49C14.7408 171.82 13.7464 171.361 13.4162 170.465L13.1351 169.702Z" fill="#080C20"/>
<path id="Shape_20" fill-rule="evenodd" clip-rule="evenodd" d="M13.9034 172.351C14.2934 172.533 14.7191 172.627 15.1496 172.624C15.5189 172.633 15.8865 172.57 16.2318 172.439L23.8837 169.608C25.4236 169.035 26.2138 167.328 25.6546 165.784L25.4797 165.314C24.9061 163.774 23.1989 162.984 21.6537 163.543L13.9471 166.385C12.4072 166.958 11.6171 168.665 12.1762 170.209L12.3511 170.679C12.6234 171.422 13.1827 172.024 13.9034 172.351ZM22.408 165.565C22.4953 165.531 22.5877 165.513 22.6813 165.51C22.9977 165.52 23.2777 165.718 23.3918 166.013L23.5667 166.483C23.6406 166.68 23.6324 166.898 23.5441 167.089C23.4558 167.28 23.2947 167.428 23.0967 167.499L15.4447 170.34C15.2527 170.422 15.0355 170.422 14.8435 170.34C14.6531 170.249 14.5046 170.089 14.4281 169.892L14.2532 169.422C14.1718 169.227 14.1718 169.006 14.2532 168.811C14.3478 168.623 14.5069 168.475 14.7014 168.395L22.408 165.565Z" fill="#093F68"/>
<path id="Rectangle_6" d="M14.6268 173.706C14.2964 172.809 14.7556 171.815 15.6524 171.484L23.6582 168.537C24.5546 168.207 25.549 168.666 25.8792 169.562L26.1603 170.325C26.4907 171.221 26.0315 172.216 25.1347 172.546L17.1289 175.494C16.2325 175.824 15.2381 175.365 14.9079 174.469L14.6268 173.706Z" fill="#080C20"/>
<path id="Shape_21" fill-rule="evenodd" clip-rule="evenodd" d="M13.8269 174.69C14.2611 175.859 15.3774 176.635 16.6253 176.635C16.9763 176.637 17.3247 176.574 17.6529 176.449L25.3048 173.619C26.0483 173.348 26.6532 172.792 26.9856 172.074C27.318 171.357 27.3504 170.536 27.0757 169.794L26.9008 169.324C26.3319 167.78 24.6203 166.988 23.0748 167.554L15.4229 170.395C13.8829 170.968 13.0962 172.678 13.6629 174.22L13.8269 174.69ZM23.8838 169.565C23.9742 169.549 24.0666 169.549 24.157 169.565C24.4747 169.553 24.7698 169.728 24.9113 170.013L25.0753 170.482C25.1491 170.679 25.141 170.898 25.0527 171.089C24.9643 171.28 24.8032 171.427 24.6052 171.499L16.9533 174.34C16.7576 174.423 16.5368 174.423 16.3411 174.34C16.1507 174.249 16.0022 174.089 15.9257 173.892L15.7508 173.422C15.6771 173.222 15.6865 173.001 15.7769 172.808C15.8672 172.615 16.031 172.466 16.2318 172.395L23.8838 169.565Z" fill="#093F68"/>
<path id="Path_22" d="M123.25 155.282C114.877 152.124 97.9767 150.058 83.4052 164.898C68.8336 179.738 73.7856 197.682 89.177 204.763C104.568 211.844 117.73 208.435 120.78 198.818C123.829 189.202 113.62 188.459 117.784 183.388C121.949 178.318 127.153 184.011 131.558 175.968C135.963 167.925 131.645 158.44 123.25 155.282Z" fill="#080C20"/>
<path id="Shape_22" fill-rule="evenodd" clip-rule="evenodd" d="M88.7287 205.758C93.7376 208.186 99.2105 209.509 104.776 209.637C107.835 209.713 110.877 209.151 113.707 207.987C117.568 206.41 120.536 203.211 121.818 199.245C123.622 193.486 121.151 190.502 119.337 188.317C117.73 186.382 117.282 185.705 118.571 184.12C120.08 182.263 121.687 182.142 123.72 182L123.723 182C126.412 181.804 129.722 181.561 132.465 176.536C134.615 172.686 134.959 168.085 133.405 163.959C131.706 159.48 128.15 155.957 123.654 154.298C112.603 150.091 96.02 150.495 82.64 164.133C75.5783 171.324 72.4956 179.76 73.9823 187.88C75.3924 195.562 80.7707 202.086 88.7287 205.758ZM84.2031 165.663C92.511 157.194 102.109 154.123 110.668 154.123C114.835 154.109 118.97 154.842 122.878 156.287C126.784 157.725 129.877 160.781 131.361 164.669C132.682 168.202 132.386 172.137 130.552 175.433C128.381 179.457 126.166 179.618 123.604 179.803L123.589 179.804L123.563 179.806C121.416 179.969 119 180.153 116.899 182.733C114.4 185.776 116.138 187.861 117.667 189.695L117.675 189.705L117.675 189.705C119.413 191.792 121.206 193.945 119.752 198.523C118.656 201.887 116.132 204.598 112.854 205.932C106.809 208.599 98.3921 207.823 89.647 203.812C82.3448 200.436 77.4148 194.502 76.1358 187.519C74.7803 180.088 77.6443 172.34 84.2031 165.663Z" fill="#093F68"/>
<path id="Path_23" d="M98.7965 161.369C98.8839 161.795 99.1026 162.188 99.19 162.614C99.2241 163.792 98.6231 164.898 97.6159 165.51C96.6123 166.096 95.7294 166.868 95.0142 167.783C94.2123 169.41 94.7185 171.378 96.2057 172.417C97.7073 173.38 99.5929 173.524 101.223 172.799C102.929 172.1 104.743 170.69 106.383 171.51C106.959 171.894 107.487 172.345 107.957 172.854C110.158 174.586 113.329 174.298 115.183 172.198C116.905 170.012 116.905 166.931 115.183 164.745C112.865 161.882 114.811 157.096 109.793 156.637C107.214 156.386 98.1078 157.555 98.7965 161.369Z" fill="#080C20"/>
<path id="Shape_23" fill-rule="evenodd" clip-rule="evenodd" d="M107.236 173.673C108.315 174.605 109.701 175.107 111.127 175.083L111.63 175.094C113.319 174.971 114.891 174.185 116.002 172.908C118.052 170.318 118.052 166.658 116.002 164.068C115.362 163.109 114.957 162.011 114.822 160.866L114.821 160.861C114.373 158.677 113.813 155.948 109.87 155.555C108.012 155.369 101.092 155.938 98.6107 158.648C97.85 159.418 97.5187 160.514 97.7252 161.576C97.7837 161.848 97.8641 162.115 97.9657 162.374C98.0294 162.514 98.077 162.661 98.1078 162.811C98.2281 163.434 97.594 164.166 96.96 164.647L96.3151 165.106C95.4191 165.637 94.6534 166.361 94.0741 167.226C92.9698 169.343 93.6113 171.95 95.5717 173.313C97.3793 174.496 99.664 174.681 101.639 173.805C102.065 173.63 102.491 173.422 102.929 173.203C104.251 172.493 105.18 172.133 105.902 172.493C106.203 172.678 106.476 172.906 106.711 173.171C106.875 173.349 107.05 173.517 107.236 173.673ZM106.875 170.537C106.394 170.291 105.862 170.164 105.323 170.166C104.11 170.277 102.939 170.666 101.901 171.302C101.562 171.499 101.19 171.685 100.808 171.838C99.525 172.415 98.0394 172.321 96.8398 171.586C95.8104 170.877 95.4412 169.53 95.9653 168.395C96.3902 167.808 96.934 167.316 97.5612 166.953L98.2827 166.439C99.6538 165.605 100.424 164.058 100.261 162.461C100.199 162.189 100.115 161.922 100.01 161.664C99.9526 161.518 99.9052 161.368 99.8678 161.216C99.7709 160.812 99.9106 160.389 100.229 160.123C101.912 158.276 107.749 157.533 109.651 157.73C111.903 157.948 112.22 159.052 112.679 161.303C112.87 162.792 113.426 164.211 114.297 165.434C115.697 167.206 115.72 169.701 114.352 171.499C113.613 172.327 112.575 172.827 111.466 172.887C110.46 172.987 109.456 172.68 108.678 172.034C108.532 171.908 108.393 171.773 108.263 171.63C107.864 171.191 107.395 170.822 106.875 170.537Z" fill="#093F68"/>
<path id="Path_24" d="M121.064 168.406C120.206 169.3 119.672 170.453 119.544 171.685C119.45 172.53 119.758 173.371 120.375 173.958C120.912 174.341 121.563 174.534 122.222 174.504C123.925 174.441 125.561 173.832 126.89 172.766C128.639 171.422 131.558 167.619 128.847 165.794C126.376 164.21 122.627 166.658 121.064 168.406Z" fill="#093F68"/>
<path id="Shape_24" fill-rule="evenodd" clip-rule="evenodd" d="M119.686 174.843C120.414 175.385 121.305 175.663 122.212 175.629C124.157 175.574 126.031 174.883 127.546 173.662C128.934 172.602 131.11 170.056 131.044 167.707C131.014 166.569 130.415 165.522 129.448 164.92C126.431 162.899 122.212 165.488 120.255 167.674C119.223 168.759 118.588 170.161 118.451 171.652C118.327 172.852 118.786 174.039 119.686 174.843ZM120.594 171.794C120.69 170.797 121.126 169.863 121.829 169.149L121.873 169.16C123.414 167.466 126.573 165.663 128.235 166.756C128.613 166.961 128.851 167.354 128.858 167.783C128.902 169.138 127.317 171.094 126.223 171.936C125.097 172.875 123.689 173.41 122.223 173.455C121.815 173.478 121.411 173.375 121.064 173.16C120.71 172.798 120.537 172.297 120.594 171.794Z" fill="#093F68"/>
<path id="Path_25" d="M128.158 163.838C127.721 162.822 126.879 161.653 125.797 161.904C124.715 162.155 124.343 163.325 124.168 164.418C123.666 167.259 123.578 170.155 123.075 172.996C122.991 173.254 123.031 173.537 123.185 173.761C123.325 173.879 123.504 173.941 123.687 173.936C125.921 173.994 127.996 172.783 129.044 170.81C130.006 168.789 128.989 165.784 128.158 163.838Z" fill="#080C20"/>
<path id="Shape_25" fill-rule="evenodd" clip-rule="evenodd" d="M123.567 175.007H124.004C126.527 174.915 128.811 173.492 130.006 171.269C130.913 169.444 130.629 166.876 129.164 163.434C128.355 161.543 126.901 160.593 125.589 160.844C124.278 161.095 123.447 162.221 123.097 164.199C122.867 165.511 122.728 166.804 122.589 168.105C122.576 168.223 122.563 168.342 122.55 168.461C122.543 168.53 122.536 168.599 122.528 168.668C122.382 170.024 122.232 171.426 121.982 172.777C121.82 173.388 121.971 174.039 122.386 174.515C122.707 174.817 123.127 174.992 123.567 175.007ZM125.294 164.57C125.48 163.467 125.819 162.986 126.038 162.986V162.964C126.355 162.964 126.836 163.521 127.196 164.275C128.672 167.75 128.497 169.466 128.093 170.297C127.301 171.722 125.857 172.666 124.234 172.821C124.474 171.433 124.627 170.023 124.769 168.668C124.775 168.611 124.781 168.554 124.787 168.497C124.924 167.196 125.064 165.858 125.294 164.57Z" fill="#093F68"/>
<path id="Path_26" d="M85.0995 173.214C83.0881 173.936 81.1095 175.509 81.1642 177.52C81.2972 178.487 81.4833 179.447 81.7217 180.394C82.0278 182.722 80.7379 185.344 82.0387 187.289C83.0035 188.439 84.4295 189.099 85.9303 189.093C88.1166 189.278 90.6964 188.71 91.7786 186.776C91.9375 186.356 92.1964 185.981 92.5328 185.683C92.8921 185.501 93.2886 185.403 93.6916 185.399C95.0991 185.177 96.2885 184.236 96.8289 182.918C97.6924 180.733 96.173 178.394 94.6426 176.853C92.828 174.974 90.0077 172.755 87.2639 172.777C86.524 172.809 85.7937 172.957 85.0995 173.214Z" fill="#080C20"/>
<path id="Shape_26" fill-rule="evenodd" clip-rule="evenodd" d="M85.8428 190.218H86.7611C89.4939 190.218 91.6911 189.169 92.6859 187.268C92.7027 187.237 92.7237 187.207 92.7446 187.177C92.7918 187.109 92.8389 187.041 92.8389 186.973C92.9084 186.826 92.9927 186.687 93.0903 186.557C93.2361 186.514 93.3866 186.488 93.5385 186.481H93.8118C95.6048 186.203 97.1198 185.003 97.8018 183.323C98.6544 181.126 97.8127 178.569 95.4297 176.088C93.8555 174.471 90.6636 171.717 87.2967 171.717C86.4229 171.74 85.5588 171.907 84.7388 172.209C82.5416 172.996 80.0055 174.865 80.0711 177.564C80.1036 178.212 80.2137 178.854 80.399 179.476C80.4974 179.869 80.5848 180.23 80.6395 180.569C80.7001 181.394 80.6597 182.223 80.5193 183.039L80.5165 183.061C80.3205 184.661 80.1087 186.39 81.1314 187.923C82.265 189.372 84.0028 190.219 85.8428 190.218ZM85.504 174.187C86.0937 173.972 86.7133 173.851 87.3404 173.826V173.881C89.9968 173.881 92.8171 176.493 93.9321 177.618C94.7519 178.471 96.5775 180.645 95.8451 182.525C95.4537 183.481 94.592 184.165 93.5713 184.328H93.3636C92.8698 184.356 92.3899 184.502 91.9644 184.754C91.5267 185.072 91.183 185.503 90.9697 186L90.8603 186.219C90.0077 187.737 87.8105 188.131 86.0505 187.978C84.8881 187.995 83.774 187.514 82.9897 186.656C82.4104 185.792 82.5525 184.612 82.7274 183.246C82.8904 182.249 82.9272 181.236 82.8367 180.23C82.7703 179.776 82.6716 179.326 82.5416 178.886C82.4043 178.423 82.32 177.947 82.2901 177.465C82.2246 176.001 83.8752 174.777 85.504 174.187Z" fill="#093F68"/>
<path id="Path_27" d="M95.1235 195.649C95.2556 197.054 95.9839 198.336 97.1239 199.168C98.2557 199.983 99.5492 200.546 100.917 200.818C104.48 201.666 108.208 201.522 111.695 200.403C112.34 200.234 112.935 199.915 113.434 199.474C114.363 198.327 114.363 196.687 113.434 195.54C112.501 194.448 111.288 193.632 109.925 193.18C107.443 192.152 107.159 188.131 103.737 188.022C102.262 188.022 101.431 188.972 100.458 189.912C98.8839 191.442 98.8183 191.224 96.6976 191.234C94.8284 191.245 95.0579 194.436 95.1235 195.649Z" fill="#080C20"/>
<path id="Shape_27" fill-rule="evenodd" clip-rule="evenodd" d="M100.666 201.889C102.272 202.261 103.915 202.448 105.563 202.446C107.761 202.448 109.945 202.102 112.034 201.419C112.853 201.209 113.605 200.796 114.221 200.217C115.512 198.677 115.549 196.444 114.308 194.862C113.255 193.61 111.879 192.669 110.329 192.141C109.531 191.669 108.88 190.984 108.449 190.163C107.487 188.721 106.296 186.962 103.759 186.885C102.288 186.929 100.912 187.621 99.999 188.776L99.693 189.082C98.6217 190.098 98.6217 190.098 97.3755 190.098H96.6759C96.0257 190.087 95.4014 190.353 94.9597 190.83C93.8414 192.013 93.9632 194.263 94.0292 195.482L94.0305 195.507V195.66C94.1661 197.4 95.0518 198.996 96.4573 200.031C97.7067 200.952 99.1436 201.586 100.666 201.889ZM96.5338 192.327C96.579 192.307 96.6307 192.307 96.6759 192.327L97.2881 192.283C99.0917 192.294 99.5727 192.174 101.147 190.655L101.475 190.338C102.349 189.508 102.885 189.071 103.661 189.071C105.017 189.114 105.672 189.967 106.613 191.366C107.268 192.553 108.261 193.519 109.466 194.141C110.642 194.53 111.697 195.22 112.526 196.141C113.122 196.863 113.171 197.89 112.647 198.665C112.268 198.979 111.823 199.203 111.346 199.321C108.048 200.374 104.527 200.51 101.158 199.714C99.9401 199.479 98.7878 198.983 97.78 198.261C96.8932 197.623 96.3206 196.637 96.2058 195.551V195.387C96.1075 193.693 96.2277 192.666 96.5338 192.327Z" fill="#093F68"/>
</g>
</g>
</svg>
