<svg width="208" height="212" viewBox="0 0 208 212" fill="none" xmlns="http://www.w3.org/2000/svg">
<g id="designer_(3) 2">
<g id="designer_(3)">
<path id="Path" d="M85.9099 189.442C84.6274 174.469 85.2462 167.158 83.6599 162.201C79.9812 159.261 66.3349 151.363 54.8937 145.302C52.833 144.205 51.2923 142.332 50.6108 140.097C49.9293 137.861 50.1628 135.446 51.2599 133.383C53.5099 129.091 56.4124 132.955 60.7099 135.231C74.3224 142.486 93.8974 146.553 97.6662 151.341C101.919 156.737 100.737 192.438 100.737 192.438L85.9099 189.442Z" fill="#080C20"/>
<path id="Shape" fill-rule="evenodd" clip-rule="evenodd" d="M100.479 193.542C100.553 193.553 100.629 193.553 100.704 193.542C100.971 193.555 101.235 193.471 101.446 193.306C101.706 193.101 101.862 192.792 101.874 192.461C101.877 192.256 101.884 191.964 101.892 191.593C102.034 185.242 102.69 155.878 98.5662 150.62C96.305 147.758 89.7012 145.404 81.3312 142.441C74.75 140.109 67.37 137.473 61.25 134.217C60.2575 133.69 59.2959 133.107 58.37 132.471L58.3608 132.465C56.3847 131.127 54.6772 129.97 52.9025 130.42C51.696 130.798 50.7167 131.688 50.225 132.854C47.6648 137.702 49.5005 143.71 54.3312 146.294C64.9512 151.938 78.575 159.779 82.6587 162.9C83.4897 165.666 83.6481 169.33 83.8837 174.778L83.885 174.807C83.898 175.088 83.9112 175.374 83.9246 175.665C84.096 179.389 84.3058 183.943 84.7962 189.554C84.8366 190.056 85.2039 190.469 85.6962 190.568L100.479 193.542ZM99.6125 191.053L86.9675 188.495C86.5265 183.259 86.3305 178.965 86.1691 175.43C86.1576 175.178 86.1462 174.929 86.135 174.684C85.8875 168.825 85.7075 164.961 84.695 161.852C84.6308 161.64 84.5007 161.455 84.3237 161.322C80.4537 158.235 66.5712 150.237 55.3887 144.288C51.6533 142.288 50.2353 137.64 52.2162 133.89C52.6212 133.124 53.0375 132.685 53.4425 132.583C54.2525 132.381 55.6475 133.316 57.11 134.318C58.0894 135.001 59.1032 135.633 60.1475 136.211C66.3462 139.51 73.756 142.147 80.3185 144.483L80.5325 144.559C87.9237 147.184 94.8987 149.662 96.755 152.017C99.6125 155.622 100.017 176.835 99.6125 191.053Z" fill="#093F68"/>
<path id="Path_2" d="M85.91 189.442V207.163C85.91 207.163 112.786 212.322 110.66 208.289C108.534 204.256 100.018 201.98 100.018 201.98L100.726 192.382L85.91 189.442Z" fill="#080C20"/>
<path id="Shape_2" fill-rule="evenodd" clip-rule="evenodd" d="M85.7412 208.267C96.1925 210.272 102.481 210.914 106.25 210.914C109.85 210.914 111.144 210.373 111.594 209.754C112.013 209.176 112.044 208.403 111.672 207.794C109.737 204.189 103.561 201.935 101.221 201.203L101.862 192.506C101.908 191.937 101.521 191.424 100.962 191.312L86.18 188.338C85.8507 188.269 85.5082 188.352 85.2462 188.563C84.9818 188.778 84.8288 189.101 84.83 189.442V207.14C84.82 207.688 85.2045 208.163 85.7412 208.267ZM109.535 208.481C107.116 209.269 96.5525 207.985 87.125 206.228V190.816L99.59 193.328L98.96 201.935C98.942 202.459 99.2871 202.926 99.7925 203.062C101.93 203.648 107.679 205.709 109.535 208.481Z" fill="#093F68"/>
<path id="Path_3" d="M71.6788 83.1718C71.6788 83.1718 85.3925 100.713 88.7 100.07C92.0075 99.4282 101.559 93.0744 106.565 90.9677C114.586 87.5879 127.231 89.2102 123.789 92.0942C120.346 94.9783 121.314 92.3195 121.314 92.3195C102.673 104.61 89.8138 112.598 88.1938 112.463C80.1388 112.046 65.0413 96.9836 65.0413 96.9836L71.6788 83.1718Z" fill="#080C20"/>
<path id="Shape_3" fill-rule="evenodd" clip-rule="evenodd" d="M88.1375 113.578H88.25C89.1275 113.578 92.2438 112.789 120.571 94.1897L120.695 94.2911C121.696 95.0008 122.945 94.2798 124.52 92.9842C124.981 92.714 125.316 92.2712 125.451 91.7536C125.586 91.2359 125.51 90.6857 125.24 90.2241C123.508 87.3964 112.629 87.2725 106.115 89.9988C103.267 91.3196 100.488 92.7861 97.79 94.3925C94.2238 96.4203 90.1625 98.7072 88.5088 99.0227C86.6413 99.0227 78.7775 90.4607 72.5675 82.5184C72.3285 82.2107 71.9476 82.0487 71.5606 82.09C71.1735 82.1313 70.8353 82.37 70.6663 82.7211L64.0288 96.5104C63.8154 96.9435 63.9013 97.4647 64.2425 97.806C64.2743 97.8356 64.3424 97.9012 64.4441 97.9993C66.3575 99.8441 80.1687 113.161 88.1375 113.578ZM88.2613 111.325C81.5675 110.931 69.2038 99.3832 66.4025 96.6794L71.8813 85.2559C83.7613 100.228 87.7438 101.388 88.8688 101.174C90.8757 100.801 94.5932 98.704 98.5726 96.4592C98.6753 96.4013 98.7782 96.3432 98.8813 96.2851C101.818 94.6178 104.855 92.8941 106.959 92.0041C113.293 89.3567 121.494 90.1565 123.069 91.1479C122.765 91.3958 122.518 91.5873 122.315 91.7337C122.233 91.595 122.131 91.4696 122.011 91.362C121.616 91.0727 121.079 91.0727 120.684 91.362C93.155 109.534 88.8463 111.235 88.2613 111.325Z" fill="#093F68"/>
<rect id="Rectangle" x="19.4" y="190.14" width="49.6575" height="7.81844" fill="#080C20"/>
<path id="Shape_4" fill-rule="evenodd" clip-rule="evenodd" d="M19.4 199.108H69.0575C69.6788 199.108 70.1825 198.603 70.1825 197.981V190.095C70.1825 189.473 69.6788 188.969 69.0575 188.969H19.4C18.7787 188.969 18.275 189.473 18.275 190.095V197.981C18.275 198.603 18.7787 199.108 19.4 199.108ZM67.9325 196.855H20.525V191.222H67.9325V196.855Z" fill="#093F68"/>
<path id="Path_4" d="M16.9812 209.945H14.4612C13.7431 209.945 13.0638 209.619 12.6135 209.058C12.1633 208.498 11.9906 207.764 12.1437 207.061L24.5187 150.654H31.8875L19.3437 208.109C19.0849 209.201 18.1018 209.965 16.9812 209.945Z" fill="#080C20"/>
<path id="Shape_5" fill-rule="evenodd" clip-rule="evenodd" d="M14.4613 211.072H16.9813C18.6395 211.109 20.0959 209.975 20.4688 208.357L33.0126 150.901C33.088 150.565 33.0051 150.212 32.7876 149.944C32.5756 149.682 32.2578 149.529 31.9213 149.527H24.5526C24.0129 149.515 23.5408 149.889 23.4276 150.417L11.0526 206.825C10.8194 207.858 11.0723 208.942 11.7388 209.765C12.4012 210.592 13.4028 211.073 14.4613 211.072ZM13.2463 207.32L25.3738 151.791H30.4363L18.1963 207.85C18.0739 208.423 17.5669 208.832 16.9813 208.83H14.4613C14.0844 208.832 13.727 208.662 13.4905 208.368C13.2539 208.075 13.1641 207.689 13.2463 207.32Z" fill="#093F68"/>
<path id="Path_5" d="M72.0725 209.945H74.5812C75.2994 209.945 75.9787 209.619 76.4289 209.058C76.8791 208.498 77.0519 207.764 76.8987 207.061L64.625 150.665H57.2L69.7437 208.12C70.0042 209.195 70.9678 209.95 72.0725 209.945Z" fill="#080C20"/>
<path id="Shape_6" fill-rule="evenodd" clip-rule="evenodd" d="M72.0725 211.072H74.5813L74.6938 211.038C75.7458 211.029 76.7375 210.545 77.3926 209.72C78.0477 208.896 78.2962 207.82 78.0688 206.791L65.75 150.383C65.6368 149.855 65.1647 149.481 64.625 149.493H57.245C56.9086 149.496 56.5907 149.648 56.3788 149.91C56.1612 150.178 56.0783 150.531 56.1538 150.868L68.6975 208.323C69.0515 209.911 70.4478 211.048 72.0725 211.072ZM70.8463 207.85L58.6063 151.792H63.6688L75.7963 207.32C75.8785 207.689 75.7886 208.075 75.5521 208.368C75.3156 208.662 74.9582 208.832 74.5813 208.83H72.0725C71.4843 208.833 70.9735 208.425 70.8463 207.85Z" fill="#093F68"/>
<rect id="Rectangle_2" x="11.5138" y="146.587" width="55.845" height="8.12261" rx="2.21" fill="#080C20"/>
<path id="Shape_7" fill-rule="evenodd" clip-rule="evenodd" d="M14 155.847H64.8838C65.8416 155.847 66.7601 155.466 67.4373 154.788C68.1146 154.11 68.495 153.19 68.495 152.231V149.088C68.4951 147.089 66.8801 145.466 64.8838 145.46H14C12.0038 145.466 10.3888 147.089 10.3888 149.088V152.231C10.3888 154.228 12.0056 155.847 14 155.847ZM12.6388 149.088C12.6388 148.333 13.2464 147.719 14 147.713H64.8838C65.6374 147.719 66.2451 148.333 66.245 149.088V152.231C66.245 152.984 65.6356 153.594 64.8838 153.594H14C13.2482 153.594 12.6388 152.984 12.6388 152.231V149.088Z" fill="#093F68"/>
<path id="Path_6" d="M81.3762 189.442C80.0824 174.469 80.7124 167.158 79.1262 162.201C75.4474 159.261 61.8012 151.363 50.3599 145.302C46.115 142.996 44.5202 137.694 46.7867 133.424C49.0533 129.154 54.3338 127.511 58.6174 129.744C72.2412 136.988 89.3637 146.553 93.1324 151.341C97.3737 156.737 96.2037 192.438 96.2037 192.438L81.3762 189.442Z" fill="#080C20"/>
<path id="Shape_8" fill-rule="evenodd" clip-rule="evenodd" d="M95.9 193.542C95.9745 193.554 96.0504 193.554 96.125 193.542L96.1137 193.61C96.735 193.61 97.2387 193.106 97.2387 192.483C97.2423 192.317 97.2476 192.093 97.2542 191.816C97.3954 185.912 98.1119 155.958 93.9425 150.642C90.8825 146.767 79.475 139.602 59.0675 128.742C54.2262 126.178 48.2263 128.016 45.6462 132.854C43.0861 137.702 44.9218 143.71 49.7525 146.294C60.3612 151.938 73.9962 159.779 78.08 162.9C78.911 165.666 79.0694 169.33 79.3049 174.778L79.3062 174.807C79.475 178.683 79.6887 183.505 80.2175 189.554C80.2565 190.052 80.6183 190.465 81.1062 190.568L95.9 193.542ZM95.0337 191.053L82.3775 188.495H82.4225C82.0458 183.914 81.8417 180.054 81.6692 176.792C81.6305 176.06 81.5934 175.357 81.5562 174.684L81.5545 174.645C81.2967 168.808 81.1265 164.954 80.1162 161.852C80.0521 161.64 79.922 161.455 79.745 161.322C75.875 158.236 61.9925 150.237 50.81 144.289C48.3884 143.001 46.8369 140.517 46.7399 137.773C46.643 135.029 48.0153 132.441 50.3399 130.985C52.6646 129.529 55.5884 129.425 58.01 130.713C77.8662 141.269 89.3187 148.412 92.1762 152.017C95.0337 155.622 95.4387 176.835 95.0337 191.053Z" fill="#093F68"/>
<path id="Path_7" d="M91.625 98.403C86.5625 96.4428 69.89 79.8709 68.2363 79.071L67.4488 78.6992C61.9276 76.2442 56.14 74.4408 50.2025 73.3255C43.2163 72.1989 35.9263 72.5256 31.8763 77.291C22.4375 88.4103 21.9988 120.833 21.9988 120.833L65.075 128.719C67.948 120.372 70.2041 111.825 71.825 103.146C76.8763 107.371 83.6488 112.249 88.1825 112.485L91.625 98.403Z" fill="#080C20"/>
<path id="Shape_9" fill-rule="evenodd" clip-rule="evenodd" d="M64.8388 129.812H65.0413C65.5291 129.818 65.9652 129.509 66.1213 129.046C68.8143 121.242 70.9866 113.267 72.6238 105.174C79.2838 110.548 84.515 113.364 88.16 113.555C88.6896 113.571 89.1581 113.214 89.285 112.699L92.66 98.6509C92.7943 98.1013 92.5006 97.5373 91.9738 97.3328C88.9489 96.1644 81.0586 89.0019 75.4556 83.9156C75.2238 83.7052 74.996 83.4984 74.7725 83.2957C70.7788 79.6456 69.3163 78.35 68.6863 78.0458C68.6863 78.0458 68.3938 77.8881 67.8538 77.6515C62.2458 75.1499 56.3626 73.3197 50.3263 72.1989C41.1913 70.7006 34.6775 72.1651 30.965 76.5475C21.3913 87.8358 20.84 119.459 20.84 120.799C20.831 121.35 21.2213 121.827 21.7625 121.926L64.8388 129.812ZM64.2875 127.401L23.1125 119.898C23.2813 114.502 24.5188 87.6555 32.7088 78.0233C35.8813 74.2831 41.6975 73.0776 50 74.4408C55.8466 75.5328 61.5445 77.31 66.9763 79.7357L67.7188 80.0737C68.1552 80.3262 70.1301 82.1193 72.2595 84.0527C72.6001 84.362 72.9447 84.6748 73.2875 84.9855C78.8788 90.0889 86.3825 96.9272 90.2975 99.0339L87.35 111.212C83.9638 110.581 78.7775 107.438 72.5675 102.256C72.2573 101.988 71.8264 101.911 71.4425 102.053C71.0648 102.193 70.7903 102.523 70.7225 102.921C69.1628 111.224 67.0124 119.405 64.2875 127.401Z" fill="#093F68"/>
<path id="Path_8" d="M72.0613 101.862H71.8363C71.5439 101.802 71.2871 101.628 71.1225 101.379C70.958 101.13 70.8991 100.825 70.9588 100.532L73.2088 89.796C73.3331 89.1739 73.9375 88.7703 74.5588 88.8948C75.1801 89.0192 75.5831 89.6245 75.4588 90.2467L73.2088 100.983C73.0894 101.516 72.6059 101.886 72.0613 101.862Z" fill="#093F68"/>
<path id="Path_9" d="M49.4712 94.1784C49.3703 94.1893 49.2684 94.1893 49.1675 94.1784C48.8794 94.0994 48.6346 93.909 48.4869 93.6491C48.3391 93.3891 48.3007 93.0811 48.38 92.7927C50.045 86.743 49.055 73.6409 49.0437 73.4607C48.9971 72.8385 49.463 72.2963 50.0844 72.2496C50.7057 72.203 51.2471 72.6695 51.2937 73.2917C51.2937 73.8437 52.3287 86.9683 50.5512 93.3898C50.4031 93.8616 49.9651 94.1814 49.4712 94.1784Z" fill="#093F68"/>
<path id="Path_10" d="M65.0412 100.329C64.9028 100.326 64.7658 100.299 64.6362 100.251C64.3572 100.145 64.1317 99.9319 64.0093 99.6593C63.887 99.3868 63.8777 99.0767 63.9837 98.7973C66.2335 92.4072 67.0254 85.5937 66.3012 78.857C66.2143 78.241 66.6424 77.6711 67.2575 77.5839C67.5545 77.5423 67.8559 77.6212 68.0946 77.8032C68.3333 77.9851 68.4896 78.2549 68.5287 78.5528C69.3325 85.6622 68.4974 92.8616 66.0875 99.5972C65.9241 100.035 65.5079 100.326 65.0412 100.329Z" fill="#093F68"/>
<path id="Path_11" d="M41.8662 1.95693C36.0837 0.75149 29.9525 2.76806 25.2725 6.24918C21.6388 8.95296 18.5225 13.0086 18.9162 17.391C19.2178 19.4638 19.8363 21.4776 20.75 23.3619C21.6812 25.2515 22.0965 27.3543 21.9538 29.4566C21.7139 31.6365 20.0869 33.4073 17.9375 33.8278C20.7372 35.7304 24.1928 36.4021 27.5 35.6866C30.767 34.941 33.5689 32.851 35.2175 29.9298C35.5807 28.9266 36.2548 28.0661 37.1413 27.4739C37.6036 27.2851 38.094 27.1747 38.5925 27.1472C42.1188 26.8666 45.4951 25.5978 48.335 23.4858C56.75 16.6024 51.8787 4.07489 41.8662 1.95693Z" fill="#080C20"/>
<path id="Shape_10" fill-rule="evenodd" clip-rule="evenodd" d="M17.375 34.7853C19.5921 36.2936 22.2097 37.1019 24.89 37.1061C25.8795 37.1269 26.8682 37.0362 27.8375 36.8357C31.4202 36.0288 34.4917 33.7352 36.2863 30.5269L36.5 30.1213C36.7033 29.4763 37.0952 28.9073 37.625 28.4878C37.9866 28.3566 38.3659 28.2806 38.75 28.2624C42.5137 27.9806 46.1158 26.6152 49.1225 24.3307C52.9278 21.3114 54.6027 16.3325 53.3975 11.6229C52.0065 6.17977 47.6413 2.00515 42.1475 0.864118C36.545 -0.262458 29.9975 1.38234 24.6538 5.37042C19.985 8.84027 17.51 13.2564 17.8363 17.4924C18.0779 19.4462 18.6325 21.3482 19.4788 23.1253L19.7825 23.8575C20.6202 25.5678 21.0075 27.4642 20.9075 29.3665C20.7174 31.026 19.4981 32.3827 17.87 32.7462C17.4072 32.8023 17.0269 33.1383 16.9138 33.5911C16.8047 34.0465 16.9884 34.5219 17.375 34.7853ZM27.2975 34.5825C25.0404 35.0792 22.6857 34.8748 20.5475 33.9967C21.9206 32.9322 22.8312 31.3788 23.09 29.6594C23.2646 27.3591 22.8259 25.0536 21.8188 22.9788L21.515 22.2353C20.7667 20.6818 20.2656 19.0207 20.03 17.3121C19.6475 12.4228 24.0463 8.59243 25.9475 7.17294C30.7963 3.5679 36.6575 2.04702 41.6413 3.08347C46.3176 4.03059 50.0337 7.58537 51.1925 12.22C52.2075 16.0896 50.8225 20.1927 47.6713 22.6521C44.977 24.637 41.7725 25.8097 38.435 26.0318C37.8425 26.0762 37.2611 26.217 36.7138 26.4487C35.7009 27.0323 34.9097 27.9356 34.4638 29.0172L34.2725 29.389C32.7829 32.0277 30.2498 33.9138 27.2975 34.5825Z" fill="#093F68"/>
<path id="Path_12" d="M56.3675 3.80448C51.906 2.88658 47.2628 3.73015 43.4075 6.15902C39.5887 8.61298 36.637 12.2073 34.97 16.4334C33.893 18.9147 33.4373 21.6217 33.6425 24.3194C33.8734 27.0194 35.1738 29.5144 37.2538 31.2479C37.8735 31.8103 38.6685 32.1407 39.5038 32.1829C40.0662 32.1379 40.6155 31.989 41.1238 31.7436C48.8753 28.4361 55.3897 22.7679 59.7425 15.5434C62.2963 11.2737 62.0488 5.07751 56.3675 3.80448Z" fill="#080C20"/>
<path id="Shape_11" fill-rule="evenodd" clip-rule="evenodd" d="M36.5562 32.2055C37.367 32.9016 38.3912 33.2992 39.4587 33.332L39.4925 33.3771C40.1992 33.3348 40.8908 33.155 41.5287 32.8476C49.4937 29.4439 56.1854 23.6139 60.6537 16.1855C62.4647 13.4192 62.8809 9.96444 61.7787 6.84624C60.8519 4.70167 58.9125 3.16575 56.615 2.75677C51.869 1.76578 46.9242 2.65839 42.8225 5.2465C38.7959 7.82152 35.6821 11.6019 33.9237 16.0504C32.7805 18.6997 32.3016 21.5888 32.5287 24.4659C32.7783 27.4828 34.2298 30.2723 36.5562 32.2055ZM44.0037 7.11661C46.6624 5.46016 49.7263 4.57128 52.8575 4.54802C53.9573 4.53798 55.055 4.64752 56.1312 4.87473C57.7164 5.13797 59.0618 6.18449 59.7087 7.65737C60.5259 10.1036 60.1776 12.7901 58.7637 14.9463C54.5479 21.9844 48.2154 27.5055 40.6737 30.7184C40.3013 30.9097 39.8972 31.0318 39.4812 31.0789C38.9059 31.0262 38.3641 30.7846 37.94 30.3917C36.0936 28.8326 34.9504 26.5958 34.7675 24.1842C34.5729 21.6738 35.0019 19.1542 36.0162 16.8502C37.5907 12.8455 40.3856 9.43958 44.0037 7.11661Z" fill="#093F68"/>
<path id="Path_13" d="M64.94 4.91982C70.1262 5.0888 74.8625 6.94765 77.765 11.3864C81.14 9.78662 84.9312 12.3102 87.3275 15.1153C91.8725 20.5051 94.4338 27.2931 94.5837 34.346C94.7412 43.5501 90.6575 52.4951 84.5937 59.4123C81.3638 63.2272 77.3702 66.3206 72.8712 68.4925C68.3205 70.6648 63.1902 71.305 58.2462 70.3175C44.4762 67.2645 36.0837 50.3096 34.5087 37.4553C32.3487 19.3738 46.7937 4.334 64.94 4.91982Z" fill="#080C20"/>
<path id="Shape_12" fill-rule="evenodd" clip-rule="evenodd" d="M58.0662 71.4103C59.5877 71.7507 61.1422 71.9207 62.7012 71.9173C66.3727 71.8953 69.9972 71.0887 73.3324 69.5515C77.9925 67.3129 82.1258 64.1107 85.4599 60.1559C92.2324 52.4275 95.8887 43.2572 95.7312 34.3347C95.599 27.0167 92.9394 19.9705 88.2049 14.3943C85.7074 11.454 81.8712 8.88539 78.2037 10.012C75.3012 6.12528 70.7562 3.98479 64.9962 3.79327C55.9267 3.4449 47.1591 7.08775 40.9999 13.7635C35.0744 20.1978 32.3088 28.9354 33.4512 37.6131C35.1837 51.7291 44.3974 68.3799 58.0662 71.4103ZM42.6424 15.2843C48.1254 9.33798 55.8566 5.98026 63.9387 6.03516L64.9062 6.04642C68.6412 6.17035 73.7374 7.29692 76.8312 12.006C77.1405 12.4715 77.744 12.6393 78.2487 12.4003C81.0274 11.071 84.4137 13.4255 86.4725 15.8476C90.8363 21.0463 93.3005 27.579 93.4587 34.3685C93.6049 42.7277 90.1512 51.3573 83.75 58.6688C80.6235 62.3656 76.7562 65.3632 72.3987 67.4673C68.0914 69.5303 63.2334 70.1428 58.5499 69.2135C45.8937 66.4083 37.3212 50.6926 35.6899 37.3202C34.6223 29.3052 37.1701 21.2301 42.6424 15.2843Z" fill="#093F68"/>
<path id="Path_14" d="M56.7354 72.5673L63.0372 73.8146C63.3481 73.8761 63.5503 74.1783 63.4888 74.4896L62.8628 77.6615C62.4556 79.7246 60.4554 81.0665 58.3952 80.6588C56.335 80.251 54.9949 78.248 55.4021 76.1849L56.0282 73.013C56.0896 72.7017 56.3914 72.4992 56.7023 72.5607L56.7354 72.5673Z" fill="#080C20"/>
<path id="Shape_13" fill-rule="evenodd" clip-rule="evenodd" d="M58.2238 81.7523C58.5422 81.8163 58.8665 81.8465 59.1913 81.8424L59.2363 81.7973C61.5819 81.7884 63.5961 80.1248 64.0513 77.8205L64.6813 74.6549C64.7629 74.213 64.6702 73.7566 64.4225 73.3818C64.1675 72.9917 63.7581 72.7294 63.2975 72.6608L56.9638 71.3991C56.5225 71.3185 56.0672 71.4113 55.6925 71.6582C55.305 71.9156 55.0437 72.3245 54.9725 72.7847L54.3425 75.9617C53.8193 78.6336 55.5562 81.225 58.2238 81.7523ZM56.5475 76.3898L57.065 73.7649L62.3075 74.79L61.79 77.4262C61.6595 78.122 61.2538 78.7354 60.665 79.1274C60.0734 79.523 59.3497 79.6687 58.6513 79.5329C57.9584 79.3974 57.3475 78.9923 56.9525 78.4064C56.5575 77.8139 56.412 77.0892 56.5475 76.3898Z" fill="#093F68"/>
<ellipse id="Oval" cx="81.6882" cy="59.7026" rx="6.37608" ry="5.6928" transform="rotate(-78.82 81.6882 59.7026)" fill="#080C20"/>
<path id="Shape_14" fill-rule="evenodd" clip-rule="evenodd" d="M80.2737 67.0505C80.6777 67.1302 81.0882 67.1717 81.5 67.1744C82.9174 67.1533 84.2903 66.6753 85.415 65.8112C86.9452 64.6332 87.9901 62.9333 88.3512 61.0346C89.15 56.9789 86.7987 53.0809 83.1087 52.3487C81.2719 51.9954 79.3724 52.4556 77.9 53.6104C74.768 56.0696 73.9066 60.4547 75.875 63.9186C76.8143 65.5555 78.4212 66.6996 80.2737 67.0505ZM81.9322 54.4783C81.9419 54.4781 81.9515 54.478 81.9612 54.4779H81.9162C81.9215 54.478 81.9269 54.4782 81.9322 54.4783ZM79.3287 55.3904C80.0766 54.8146 80.9894 54.495 81.9322 54.4783C82.2076 54.4861 82.4814 54.5237 82.7487 54.5906C85.2125 55.075 86.7762 57.7788 86.2137 60.6177C85.9526 61.9599 85.2129 63.1612 84.1325 63.9975C83.1752 64.7733 81.9234 65.0834 80.7153 64.844C79.5072 64.6047 78.4676 63.8406 77.8775 62.7582C76.4898 60.2785 77.1047 57.1568 79.3287 55.3904Z" fill="#093F68"/>
<path id="Path_15" d="M58.1224 76.2095C45.8712 73.7761 37.8724 56.4607 40.2687 44.3725L42.9687 46.0624L44.5549 37.4891C44.5549 37.4891 75.4812 35.4162 74.9299 27.8682L87.3049 36.5203L82.9962 58.3758C80.5212 70.4527 70.3849 78.6317 58.1224 76.2095Z" fill="#080C20"/>
<path id="Shape_15" fill-rule="evenodd" clip-rule="evenodd" d="M57.9426 77.3136C59.4245 77.6091 60.9315 77.7601 62.4426 77.7642C72.9838 77.7642 81.7026 70.2725 84.0763 58.511L88.3851 36.6667C88.4646 36.2332 88.2844 35.793 87.9238 35.5402L75.5488 26.8881C75.1923 26.6375 74.7234 26.6156 74.3451 26.8317C73.9459 27.0574 73.7233 27.5031 73.7826 27.9583C73.8035 28.5019 73.5953 29.0293 73.2088 29.4116C69.4401 33.794 51.2601 35.9119 44.5101 36.3626C43.9941 36.3957 43.5671 36.7768 43.4751 37.2864L42.1926 44.2261L40.8988 43.4149C40.5844 43.2174 40.1929 43.1879 39.8526 43.3361C39.5129 43.4857 39.2688 43.7934 39.2001 44.1585C36.7363 56.6409 45.0613 74.7563 57.9426 77.3136ZM81.8038 58.1956C79.43 70.1936 69.5976 77.3474 58.3476 75.0942L58.3813 75.1168C49.0213 73.2917 39.4588 59.5813 41.1463 46.2539L42.4063 47.0425C42.7226 47.2363 43.114 47.2616 43.4526 47.1101C43.7922 46.9605 44.0363 46.6528 44.1051 46.2877L45.5338 38.5707C50.4501 38.1989 70.2163 36.3626 74.9188 30.8987C75.2088 30.5553 75.4544 30.1768 75.6501 29.7721L86.0001 37.0272L81.8038 58.1956Z" fill="#093F68"/>
<ellipse id="Oval_2" cx="57.4698" cy="50.4957" rx="2.06153" ry="2.05886" transform="rotate(-78.82 57.4698 50.4957)" fill="#093F68"/>
<ellipse id="Oval_3" cx="76.9325" cy="54.3427" rx="2.05875" ry="2.06163" fill="#093F68"/>
<path id="Path_16" d="M68.5626 58.8378C67.349 58.7831 66.1522 58.532 65.0188 58.0942C64.643 57.9493 64.3729 57.6147 64.3104 57.2163C64.2478 56.818 64.4021 56.4164 64.7154 56.163C65.0286 55.9095 65.453 55.8426 65.8288 55.9875C66.603 56.2829 67.4123 56.4761 68.2363 56.5621C68.1615 55.0313 67.8893 53.5166 67.4263 52.0558C67.3118 51.6694 67.4118 51.2512 67.6886 50.9586C67.9655 50.6661 68.3772 50.5437 68.7686 50.6375C69.1601 50.7314 69.4718 51.0272 69.5863 51.4136C70.2838 53.7907 70.9251 56.8888 70.0476 58.1731C69.7728 58.5789 69.3218 58.8298 68.8326 58.849L68.5626 58.8378Z" fill="#093F68"/>
<path id="Path_17" d="M62.24 46.8059C62.0791 46.8225 61.917 46.8225 61.7562 46.8059L52.1487 44.733C50.9562 44.4515 50.2077 43.2663 50.4651 42.0667C50.7224 40.8671 51.8909 40.0942 53.0937 40.3281L62.7125 42.401C63.9551 42.5316 64.8567 43.6463 64.7262 44.8907C64.5957 46.1351 63.4826 47.0379 62.24 46.9073V46.8059Z" fill="#093F68"/>
<path id="Path_18" d="M80.5438 49.1605H80.3075L70.5313 48.1466C69.2886 48.0221 68.382 46.9125 68.5063 45.6681C68.6305 44.4237 69.7386 43.5158 70.9813 43.6403L80.7688 44.6316C81.3626 44.6941 81.9074 44.9904 82.283 45.4553C82.6586 45.9201 82.8342 46.5155 82.7713 47.1101C82.667 48.2661 81.7028 49.1536 80.5438 49.1605Z" fill="#093F68"/>
<path id="Path_19" d="M44.375 46.7834C44.375 46.7834 39.7738 42.0292 35.96 46.2313C32.1463 50.4335 33.3163 59.0856 42.6088 58.4659" fill="#080C20"/>
<path id="Path_20" d="M41.6975 59.6263C37.8725 59.6263 34.9475 58.0378 33.5638 55.1876C32.1086 51.9273 32.7131 48.114 35.105 45.4653C36.175 44.1806 37.744 43.4176 39.4138 43.3698C42.485 43.3022 45.0388 45.8934 45.1625 46.006C45.479 46.2861 45.6122 46.72 45.5074 47.1297C45.4027 47.5394 45.0776 47.8558 44.6656 47.9491C44.2537 48.0423 43.8243 47.8967 43.5538 47.572C42.4511 46.4666 41 45.7779 39.4475 45.623C38.3949 45.6777 37.4179 46.1875 36.77 47.0199C34.9967 48.987 34.5348 51.8104 35.5888 54.2413C36.7138 56.4944 39.1213 57.621 42.5075 57.3732C43.1288 57.3327 43.6652 57.8043 43.7056 58.4265C43.746 59.0487 43.2751 59.5859 42.6538 59.6263H41.6975Z" fill="#093F68"/>
<path id="Path_21" d="M62.6675 69.0107C62.3401 69.0102 62.0131 68.9877 61.6888 68.9431C58.1788 68.4249 55.3775 65.2141 53.3638 59.401C53.2311 59.0207 53.3112 58.5983 53.5738 58.2931C53.8364 57.9879 54.2417 57.8462 54.6369 57.9214C55.0322 57.9965 55.3574 58.2771 55.49 58.6575C57.2113 63.6144 59.3938 66.3294 62.015 66.7125C66.7175 67.3997 71.69 60.5726 71.735 60.505C71.9089 60.2607 72.173 60.096 72.4687 60.0474C72.7643 59.9987 73.0672 60.0702 73.31 60.2459C73.8111 60.6081 73.9267 61.3073 73.5688 61.8119C73.3438 62.1273 68.3375 69.0107 62.6675 69.0107Z" fill="#093F68"/>
<path id="Path_22" d="M65.0412 128.685L69.845 112.451L67.0325 91.7788L48.3012 85.2447L23.4275 102.752L21.965 120.844C21.965 120.844 15.0912 132.741 18.59 141.247C22.0887 149.752 79.97 166.031 79.97 166.031L92.615 144.412L65.0412 128.685Z" fill="#080C20"/>
<path id="Shape_16" fill-rule="evenodd" clip-rule="evenodd" d="M79.7112 167.147C79.8118 167.163 79.9144 167.163 80.015 167.147C80.4384 167.194 80.8521 166.998 81.0837 166.64L93.7175 145.021C93.8671 144.762 93.9075 144.454 93.83 144.165C93.7524 143.874 93.562 143.627 93.3012 143.477L66.4587 128.19L70.9587 112.823C70.9922 112.667 70.9922 112.506 70.9587 112.35L68.1462 91.6774C68.0897 91.2576 67.8029 90.9051 67.4037 90.7649L48.6725 84.2194C48.3311 84.1029 47.9545 84.1574 47.66 84.3659L22.7862 101.873C22.5126 102.066 22.3394 102.372 22.3137 102.707L20.8625 120.552C19.8387 122.32 14.1125 133.361 17.5887 141.731C21.2112 150.485 73.7375 165.468 79.7112 167.147ZM23.09 120.912L24.5075 103.349L48.4812 86.4501L66.0087 92.6237L68.6975 112.361L63.9612 128.347C63.8138 128.847 64.0278 129.383 64.4787 129.643L91.1075 144.795L79.4862 164.679C38.0412 152.963 20.9975 143.984 19.67 140.796C16.385 132.91 22.8762 121.498 22.9437 121.385C23.0269 121.24 23.0769 121.079 23.09 120.912Z" fill="#093F68"/>
<path id="Path_23" d="M112.426 107.945L140.461 125.655V133.721L108.5 111.336L112.426 107.945Z" fill="#093F68"/>
<path id="Shape_17" fill-rule="evenodd" clip-rule="evenodd" d="M139.82 134.69C140.008 134.822 140.232 134.892 140.461 134.893C140.641 134.894 140.819 134.851 140.979 134.769C141.353 134.575 141.587 134.188 141.586 133.766V125.711C141.587 125.322 141.387 124.96 141.057 124.754L113.034 107.055C112.616 106.786 112.073 106.823 111.695 107.145L107.769 110.525C107.504 110.752 107.36 111.089 107.378 111.437C107.395 111.785 107.573 112.106 107.859 112.305L139.82 134.69ZM139.336 131.513L110.334 111.235L112.527 109.331L139.336 126.23V131.513Z" fill="#093F68"/>
<path id="Path_24" d="M151.171 201.169H136.782V92.3308L151.171 87.6443V201.169Z" fill="#093F68"/>
<path id="Shape_18" fill-rule="evenodd" clip-rule="evenodd" d="M136.782 202.296H151.171C151.793 202.296 152.296 201.791 152.296 201.169V87.6443C152.315 87.2738 152.15 86.9179 151.855 86.6928C151.561 86.4677 151.175 86.4022 150.822 86.5177L136.434 91.2042C135.951 91.3613 135.633 91.8229 135.657 92.3308V201.169C135.657 201.791 136.161 202.296 136.782 202.296ZM150.046 200.043H137.907V93.142L150.046 89.1877V200.043Z" fill="#093F68"/>
<rect id="Rectangle_3" x="121.46" y="200.02" width="45.0337" height="9.24919" rx="3.23" fill="#093F68"/>
<path id="Shape_19" fill-rule="evenodd" clip-rule="evenodd" d="M125.094 210.373H162.849C164.118 210.373 165.334 209.867 166.23 208.966C167.125 208.066 167.625 206.845 167.619 205.574V203.614C167.613 200.98 165.479 198.849 162.849 198.849H125.094C122.468 198.855 120.341 200.985 120.335 203.614V205.597C120.335 208.23 122.464 210.367 125.094 210.373ZM122.585 203.637C122.585 202.249 123.708 201.124 125.094 201.124L162.849 201.102C163.516 201.099 164.157 201.362 164.63 201.834C165.103 202.305 165.369 202.946 165.369 203.614V205.597C165.369 206.266 165.103 206.908 164.631 207.381C164.158 207.854 163.517 208.12 162.849 208.12H125.094C123.706 208.114 122.585 206.986 122.585 205.597V203.637Z" fill="#093F68"/>
<ellipse id="Oval_4" cx="143.971" cy="100.239" rx="3.79125" ry="3.79656" fill="#080C20"/>
<path id="Shape_20" fill-rule="evenodd" clip-rule="evenodd" d="M139.044 100.239C139.044 102.965 141.25 105.174 143.971 105.174C146.693 105.174 148.899 102.965 148.899 100.239C148.899 97.5142 146.693 95.305 143.971 95.305C141.25 95.305 139.044 97.5142 139.044 100.239ZM141.496 99.2272C141.91 98.2239 142.887 97.5694 143.971 97.5694C145.446 97.5694 146.643 98.763 146.649 100.239C146.653 101.325 146.004 102.306 145.004 102.725C144.004 103.143 142.85 102.917 142.082 102.151C141.314 101.385 141.083 100.231 141.496 99.2272Z" fill="#093F68"/>
<ellipse id="Oval_5" cx="143.971" cy="198.849" rx="3.79125" ry="3.79656" fill="#080C20"/>
<path id="Shape_21" fill-rule="evenodd" clip-rule="evenodd" d="M139.066 198.841C139.062 201.559 141.258 203.765 143.971 203.772C145.277 203.775 146.53 203.257 147.455 202.334C148.379 201.41 148.899 200.156 148.899 198.849C148.899 196.131 146.7 193.927 143.986 193.925C141.273 193.923 139.07 196.124 139.066 198.841ZM141.316 198.856C141.312 197.383 142.5 196.185 143.971 196.179C145.446 196.179 146.643 197.372 146.649 198.849C146.649 200.322 145.457 201.516 143.986 201.518C142.515 201.521 141.32 200.329 141.316 198.856Z" fill="#093F68"/>
<path id="Rectangle_4" d="M75.6412 118.97L188.856 60.403L192.749 67.9499L79.5343 126.516L75.6412 118.97Z" fill="#080C20"/>
<path id="Shape_22" fill-rule="evenodd" clip-rule="evenodd" d="M78.5413 127.018C78.735 127.393 79.1214 127.627 79.5426 127.626C79.7299 127.642 79.9183 127.615 80.0938 127.548L193.303 68.9657C193.565 68.8289 193.763 68.5942 193.854 68.3123C193.948 68.0257 193.924 67.7132 193.786 67.4448L189.883 59.8967C189.598 59.3486 188.925 59.1325 188.375 59.4123L75.1326 117.949C74.8659 118.084 74.6636 118.319 74.5701 118.603C74.4791 118.891 74.5075 119.203 74.6488 119.47L78.5413 127.018ZM80.0263 124.979L77.1576 119.436L188.375 61.8908L191.233 67.4335L80.0263 124.979Z" fill="#093F68"/>
<path id="Path_25" d="M81.3762 189.442V207.163C81.3762 207.163 108.252 212.322 106.126 208.289C104 204.256 95.4837 201.98 95.4837 201.98L96.1925 192.382L81.3762 189.442Z" fill="#080C20"/>
<path id="Shape_23" fill-rule="evenodd" clip-rule="evenodd" d="M81.1625 208.267C91.6137 210.272 97.9025 210.914 101.671 210.914C105.316 210.914 106.61 210.373 107.015 209.754C107.428 209.174 107.459 208.405 107.094 207.794C105.159 204.189 98.9825 201.935 96.6425 201.203L97.2837 192.506C97.3291 191.937 96.9425 191.424 96.3837 191.312L81.6012 188.338C81.272 188.269 80.9295 188.352 80.6675 188.563C80.4031 188.778 80.2501 189.101 80.2512 189.442V207.14C80.2413 207.688 80.6257 208.163 81.1625 208.267ZM104.956 208.481C102.537 209.269 91.9737 207.985 82.5462 206.228V190.816L95.0112 193.328L94.3812 201.935C94.362 202.456 94.7016 202.922 95.2025 203.062C97.3512 203.648 103.1 205.709 104.956 208.481Z" fill="#093F68"/>
<path id="Path_26" d="M90.9162 111.043L88.7 105.692L175.1 61.5303L177.822 66.0816L90.9162 111.043Z" fill="#080C20"/>
<path id="Shape_24" fill-rule="evenodd" clip-rule="evenodd" d="M90.5224 112.102C90.6486 112.148 90.782 112.171 90.9162 112.17C91.0989 112.16 91.2766 112.106 91.4337 112.012L178.34 67.0505C178.616 66.9057 178.82 66.6528 178.902 66.352C178.986 66.056 178.946 65.7385 178.79 65.4733L176.067 60.967C175.765 60.4589 175.121 60.2719 174.594 60.5389L88.1374 104.689C87.6208 104.96 87.3961 105.581 87.6199 106.12L89.8699 111.483C89.992 111.771 90.2284 111.996 90.5224 112.102ZM91.4899 109.489L90.1399 106.222L174.672 63.0173L176.236 65.631L91.4899 109.489Z" fill="#093F68"/>
<path id="Path_27" d="M97.79 63.4567L94.5837 65.676L110.694 88.9849L113.945 86.7317L97.79 63.4567Z" fill="#080C20"/>
<path id="Shape_25" fill-rule="evenodd" clip-rule="evenodd" d="M109.827 89.627C110.037 89.9299 110.382 90.1109 110.75 90.1115C110.982 90.1044 111.206 90.0257 111.391 89.8862L114.642 87.633C114.881 87.4538 115.045 87.1932 115.104 86.9007C115.158 86.6063 115.093 86.3023 114.924 86.0558L98.7687 62.7807C98.4141 62.2713 97.7146 62.1453 97.205 62.4991L93.9987 64.7523C93.49 65.1074 93.3642 65.8078 93.7175 66.3182L109.827 89.627ZM110.964 87.419L96.125 65.9577L97.4862 65.0452L112.347 86.4501L110.964 87.419Z" fill="#093F68"/>
<path id="Path_28" d="M65.0413 97.3553L92.2888 82.7098C92.2888 82.7098 94.7525 77.9219 96.3613 76.6376C98.2175 75.1393 99.5563 73.5282 100.141 74.2493C100.638 74.825 101.019 75.4903 101.266 76.2095C101.39 76.6038 101.323 77.2685 101.739 77.4825C102.673 77.9782 105.474 75.7814 106.239 75.3082C106.543 75.1167 106.88 74.8463 106.858 74.4858C106.835 74.1253 106.048 73.731 105.969 73.2015C106.735 72.7533 107.656 72.6549 108.5 72.9312C109.105 73.1782 109.582 73.6627 109.82 74.2716C110.058 74.8806 110.036 75.5606 109.76 76.1532C109.265 77.2797 107.983 78.1134 107.645 79.1949C107.54 79.6186 107.491 80.0541 107.499 80.4905C107.508 82.0537 107.226 83.6049 106.666 85.0644C105.08 88.7821 100.051 89.6946 96.5413 90.9C96.5413 90.9 67.0663 114.051 63.275 114.051" fill="#080C20"/>
<path id="Path_29" d="M63.3087 115.144C62.6874 115.144 62.1837 114.64 62.1837 114.017C62.1837 113.395 62.6874 112.891 63.3087 112.891C65.5587 112.767 81.6575 101.152 95.9337 89.9763C96.0304 89.8965 96.141 89.8354 96.26 89.7961C96.845 89.5933 97.475 89.4018 98.1275 89.199C101.142 88.2639 104.551 87.2162 105.676 84.5913C106.19 83.2667 106.442 81.8549 106.419 80.4342C106.413 79.8905 106.481 79.3486 106.621 78.8232C106.913 78.0682 107.357 77.3817 107.926 76.8066C108.256 76.4703 108.54 76.0915 108.77 75.6801C108.928 75.3212 108.928 74.9124 108.77 74.5535C108.661 74.2772 108.44 74.0602 108.162 73.9564C108.064 73.9232 107.962 73.9005 107.859 73.8888C107.929 74.0658 107.974 74.2515 107.994 74.4408C108.003 75.2216 107.566 75.939 106.869 76.2884L106.396 76.6151C104.349 78.0571 102.537 79.195 101.255 78.5078C100.667 78.1383 100.301 77.5011 100.276 76.8066C100.282 76.7279 100.282 76.6488 100.276 76.5701C100.136 76.1642 99.9305 75.7838 99.6687 75.4435C99.3537 75.6801 98.8925 76.0856 98.5437 76.4123C98.195 76.739 97.655 77.1897 97.16 77.5389C96.125 78.3613 94.3025 81.4819 93.3912 83.2506C93.2852 83.4526 93.1204 83.6176 92.9187 83.7238L65.6712 98.3693C65.1245 98.6804 64.4294 98.4887 64.1187 97.9412C63.8081 97.3937 63.9995 96.6976 64.5462 96.3865L91.5462 81.9326C92.1762 80.806 94.2125 77.0545 95.7537 75.8152C96.2262 75.4435 96.6537 75.0604 97.0475 74.6887C98.1725 73.6522 99.0612 72.9087 100.017 72.9875C100.456 73.0122 100.865 73.2207 101.142 73.5621C101.734 74.2487 102.185 75.0448 102.47 75.9054C102.518 76.0559 102.552 76.2105 102.571 76.3673C103.495 75.9203 104.373 75.3846 105.192 74.7675L105.575 74.5084C105.254 74.2105 105.04 73.8143 104.967 73.3818C104.904 72.9316 105.117 72.4872 105.507 72.2553C106.556 71.5988 107.842 71.442 109.017 71.8272C109.891 72.1369 110.59 72.8049 110.941 73.6635C111.34 74.5911 111.34 75.6424 110.941 76.5701C110.626 77.1934 110.22 77.7667 109.737 78.2712C109.386 78.6254 109.097 79.0368 108.882 79.4879C108.81 79.7826 108.776 80.0856 108.781 80.3891C108.792 82.1218 108.479 83.8412 107.859 85.4587C106.329 89.0412 102.234 90.3143 98.8587 91.3395L97.2387 91.8577C89.96 97.4906 67.1562 115.144 63.3087 115.144Z" fill="#093F68"/>
<path id="Path_30" d="M29.75 93.0518C53.51 127.322 69.8787 112.451 69.8787 112.451C69.5863 110.638 68.8662 106.819 68.5062 105.016C67.9325 102.019 67.2913 99.0227 66.8413 96.0034L65.075 96.961C65.075 96.961 53.4313 88.2864 44.645 80.3666" fill="#080C20"/>
<path id="Path_31" d="M60.125 116.789C59.3732 116.791 58.6219 116.75 57.875 116.665C48.3575 115.538 38.5475 107.844 28.7375 93.694C28.5084 93.362 28.4736 92.9327 28.6462 92.568C28.8188 92.2033 29.1726 91.9585 29.5743 91.9259C29.976 91.8932 30.3646 92.0777 30.5937 92.4097C39.8525 105.771 49.3587 113.387 58.0662 114.412C61.7478 114.944 65.4953 114.081 68.5737 111.99C68.2475 110.097 67.6625 106.965 67.3137 105.23L66.9425 103.337C66.5825 101.512 66.2 99.6423 65.8962 97.7046L65.5137 97.9074C65.129 98.1137 64.6598 98.0786 64.31 97.8173C64.1975 97.7271 52.52 89.03 43.8012 81.1552C43.3392 80.7411 43.2989 80.0306 43.7112 79.5668C43.9117 79.3427 44.1934 79.2083 44.4935 79.1935C44.7936 79.1787 45.0871 79.2847 45.3087 79.4879C52.8575 86.2473 62.6337 93.7391 65.0862 95.5867L66.2112 94.967C66.5347 94.7944 66.9219 94.7905 67.2488 94.9564C67.5757 95.1224 67.8015 95.4374 67.8537 95.8007C68.2025 98.144 68.675 100.532 69.1362 102.842L69.5187 104.734C69.9012 106.717 70.6437 110.457 70.8912 112.215C70.9533 112.59 70.8222 112.971 70.5425 113.229C67.5895 115.593 63.9053 116.852 60.125 116.789Z" fill="#093F68"/>
<path id="Shape_26" fill-rule="evenodd" clip-rule="evenodd" d="M114.699 93.018C114.885 93.1433 115.104 93.21 115.329 93.2095C115.563 93.208 115.791 93.1332 115.981 92.9955C116.364 92.7245 116.539 92.2442 116.42 91.79L115.025 86.4501C114.932 86.0966 114.672 85.8107 114.33 85.683C113.988 85.5554 113.605 85.6019 113.304 85.8079L110.053 88.0611C109.747 88.2735 109.566 88.6235 109.569 88.9961C109.574 89.369 109.764 89.7149 110.075 89.9199L114.699 93.018ZM113.495 89.5031L112.696 88.9623L113.259 88.5793L113.495 89.5031Z" fill="#093F68"/>
<path id="Path_32" d="M182.019 195.604C182.019 195.604 174.695 180.643 175.719 170.538C179.856 172.82 182.976 176.588 184.449 181.082C188.78 193.126 187.824 195.615 187.824 195.615L182.019 195.604Z" fill="#080C20"/>
<path id="Shape_27" fill-rule="evenodd" clip-rule="evenodd" d="M182.019 196.742H187.779C188.237 196.744 188.651 196.468 188.825 196.043C189.016 195.559 189.77 192.562 185.506 180.711C182.536 172.487 176.439 169.636 176.18 169.524C175.85 169.377 175.469 169.398 175.156 169.58C174.842 169.759 174.633 170.077 174.594 170.436C173.559 180.745 180.702 195.491 181.017 196.111C181.205 196.494 181.593 196.738 182.019 196.742ZM186.766 194.489H182.739L182.75 194.477C181.49 191.762 176.709 180.846 176.742 172.453C179.824 174.708 182.144 177.853 183.391 181.466C186.294 189.521 186.766 193.126 186.766 194.489Z" fill="#093F68"/>
<path id="Path_33" d="M185.506 194.883C185.506 194.883 180.005 173.557 187.914 159.272C187.914 159.272 192.47 164.499 193.539 177.117C194.125 183.138 192.99 189.202 190.265 194.601L185.506 194.883Z" fill="#080C20"/>
<path id="Shape_28" fill-rule="evenodd" clip-rule="evenodd" d="M184.381 195.165C184.513 195.675 184.98 196.026 185.506 196.01H185.551L190.31 195.683C190.679 195.656 191.011 195.45 191.199 195.131C194.057 189.552 195.252 183.267 194.641 177.027C193.539 164.173 188.926 158.765 188.724 158.54C188.483 158.262 188.122 158.119 187.757 158.157C187.392 158.195 187.068 158.41 186.89 158.731C178.857 173.23 184.156 194.275 184.381 195.165ZM186.384 193.689C185.517 189.656 182.502 173.467 188.049 161.491C189.399 163.778 191.75 168.803 192.436 177.218C192.929 182.799 191.939 188.412 189.567 193.486L186.384 193.689Z" fill="#093F68"/>
<path id="Path_34" d="M187.88 194.207C187.88 194.207 189.59 179.978 201.076 170.684C201.076 170.684 204.451 181.285 194.968 195.469L187.88 194.207Z" fill="#080C20"/>
<path id="Shape_29" fill-rule="evenodd" clip-rule="evenodd" d="M194.776 196.595C194.84 196.606 194.904 196.606 194.967 196.595C195.338 196.601 195.687 196.424 195.901 196.122C205.587 181.634 202.291 170.819 202.145 170.369C202.034 170.014 201.754 169.737 201.399 169.629C201.043 169.52 200.657 169.595 200.367 169.828C188.656 179.302 186.834 193.497 186.766 194.106C186.698 194.698 187.102 195.242 187.689 195.345L194.776 196.595ZM194.439 194.23L189.174 193.295C189.792 190.095 192.267 180.17 200.356 172.825C200.806 176.204 200.907 184.248 194.439 194.23Z" fill="#093F68"/>
<path id="Path_35" d="M195.755 210.204H181.288L179.15 192.574H197.893L195.755 210.204Z" fill="#080C20"/>
<path id="Shape_30" fill-rule="evenodd" clip-rule="evenodd" d="M181.287 211.331H195.755C196.312 211.332 196.785 210.925 196.869 210.373L198.995 192.709C199.034 192.391 198.936 192.071 198.725 191.83C198.512 191.587 198.204 191.447 197.881 191.447H179.139C178.816 191.447 178.508 191.587 178.295 191.83C178.084 192.071 177.986 192.391 178.025 192.709L180.162 210.34C180.231 210.909 180.715 211.335 181.287 211.331ZM194.72 209.078H182.255L180.387 193.7H196.587L194.72 209.078Z" fill="#093F68"/>
<path id="Path_36" d="M205.621 211.331H2.37878C1.75746 211.331 1.25378 210.827 1.25378 210.204C1.25378 209.582 1.75746 209.078 2.37878 209.078H205.621C206.243 209.078 206.746 209.582 206.746 210.204C206.746 210.827 206.243 211.331 205.621 211.331Z" fill="#093F68"/>
</g>
</g>
</svg>
