<svg width="89" height="179" viewBox="0 0 89 179" fill="none" xmlns="http://www.w3.org/2000/svg">
<g id="great_idea_outline 2">
<g id="great_idea_outline">
<path id="Path" d="M19.524 110.609H50.319V114.027C50.319 119.832 45.5718 124.538 39.7158 124.538H30.1273C24.2712 124.538 19.524 119.832 19.524 114.027V110.609Z" fill="#093F68"/>
<path id="Shape" fill-rule="evenodd" clip-rule="evenodd" d="M30.1273 125.564H39.7158C46.143 125.559 51.3535 120.398 51.3649 114.027V110.609C51.3649 110.042 50.9013 109.582 50.3294 109.582H19.524C18.9521 109.582 18.4885 110.042 18.4885 110.609V114.027C18.4999 120.394 23.7041 125.553 30.1273 125.564ZM20.5595 114.027V111.635H49.2939V114.027C49.2882 119.267 45.0016 123.511 39.7158 123.511H30.1273C24.8455 123.506 20.5652 119.263 20.5595 114.027Z" fill="#093F68"/>
<path id="Path_2" d="M67.6943 51.7503C67.7046 37.78 58.5871 25.4118 45.1572 21.1777C31.7273 16.9437 17.0778 21.819 8.94564 33.2287C0.813502 44.6384 1.07151 59.9549 9.58341 71.0891C15.8429 79.2474 19.2393 89.2111 19.2548 99.461H51.4684C51.3711 89.3229 54.6829 79.4414 60.8809 71.3766C65.2953 65.7702 67.6935 58.8623 67.6943 51.7503Z" fill="#080C20"/>
<path id="Shape_2" fill-rule="evenodd" clip-rule="evenodd" d="M19.2548 100.488H51.4684C51.743 100.488 52.0064 100.379 52.2006 100.187C52.3948 99.9944 52.5039 99.7333 52.5039 99.461C52.4314 89.5788 55.665 79.9515 61.6989 72.0848C66.2774 66.2924 68.7542 59.1399 68.7298 51.7811C68.7281 37.3736 59.3181 24.6249 45.4663 20.2636C31.6145 15.9022 16.5083 20.9318 8.12058 32.6978C-0.267136 44.4637 -0.00631046 60.2586 8.76539 71.7461C14.8627 79.7249 18.1805 89.4513 18.2193 99.461C18.2193 100.028 18.6829 100.488 19.2548 100.488ZM50.4433 98.4346H20.2799C20.0158 88.3067 16.5454 78.5177 10.36 70.4527C3.42484 61.3731 2.06635 49.2563 6.82118 38.8887C11.576 28.5211 21.6795 21.57 33.1405 20.7814C41.8094 20.1288 50.3574 23.1073 56.7079 28.9932C63.0462 34.8659 66.6485 43.078 66.6589 51.6784C66.6832 58.5803 64.3594 65.2887 60.0629 70.7196C53.9375 78.6943 50.5646 88.412 50.4433 98.4346Z" fill="#093F68"/>
<rect id="Rectangle" x="15.351" y="108.402" width="39.1513" height="8.86879" rx="3.62" fill="#080C20"/>
<path id="Shape_3" fill-rule="evenodd" clip-rule="evenodd" d="M19.0995 118.297H50.7229C53.365 118.297 55.5068 116.174 55.5068 113.555V112.118C55.5068 109.498 53.365 107.375 50.7229 107.375H19.0995C16.4574 107.375 14.3156 109.498 14.3156 112.118V113.555C14.3156 116.174 16.4574 118.297 19.0995 118.297ZM16.3554 112.118C16.3554 110.632 17.5701 109.428 19.0684 109.428H50.7229C52.2212 109.428 53.4358 110.632 53.4358 112.118V113.555C53.4302 115.038 52.2188 116.238 50.7229 116.244H19.0684C17.5701 116.244 16.3554 115.04 16.3554 113.555V112.118Z" fill="#093F68"/>
<rect id="Rectangle_2" x="15.351" y="99.5329" width="39.1513" height="8.86879" rx="3.62" fill="#080C20"/>
<path id="Shape_4" fill-rule="evenodd" clip-rule="evenodd" d="M19.0995 109.428H50.7229C53.365 109.428 55.5068 107.305 55.5068 104.686V103.249C55.5068 100.63 53.365 98.5064 50.7229 98.5064H19.0995C16.4574 98.5064 14.3156 100.63 14.3156 103.249V104.686C14.3156 107.305 16.4574 109.428 19.0995 109.428ZM16.3554 103.249C16.3554 101.763 17.5701 100.559 19.0684 100.559H50.7229C52.2188 100.565 53.4302 101.766 53.4358 103.249V104.686C53.4358 105.399 53.15 106.083 52.6412 106.587C52.1325 107.092 51.4424 107.375 50.7229 107.375H19.0684C18.3489 107.375 17.6588 107.092 17.15 106.587C16.6413 106.083 16.3554 105.399 16.3554 104.686V103.249Z" fill="#093F68"/>
<rect id="Rectangle_3" x="15.351" y="90.6641" width="39.1513" height="8.86879" rx="3.62" fill="#080C20"/>
<path id="Shape_5" fill-rule="evenodd" clip-rule="evenodd" d="M19.0995 100.559H50.7229C53.365 100.559 55.5068 98.4362 55.5068 95.817V94.38C55.5068 91.7609 53.365 89.6376 50.7229 89.6376H19.0995C16.4574 89.6376 14.3156 91.7609 14.3156 94.38V95.817C14.3156 98.4362 16.4574 100.559 19.0995 100.559ZM16.3554 94.38C16.3554 92.8947 17.5701 91.6906 19.0684 91.6906H50.7229C52.2188 91.6962 53.4302 92.897 53.4358 94.38V95.817C53.4358 97.3023 52.2212 98.5064 50.7229 98.5064H19.0684C17.5701 98.5064 16.3554 97.3023 16.3554 95.817V94.38Z" fill="#093F68"/>
<path id="Path_3" d="M37.6862 33.3968L42.9982 44.0312L54.8648 45.7762C55.8433 45.9135 56.6576 46.5911 56.9635 47.5227C57.2694 48.4543 57.0136 49.4772 56.3041 50.1592L47.72 58.4635L49.791 70.1859C49.9605 71.1502 49.5618 72.126 48.7633 72.7018C47.9647 73.2775 46.9054 73.3527 46.0322 72.8958L35.4186 67.363L24.7946 72.8958C23.9214 73.3527 22.862 73.2775 22.0635 72.7018C21.2649 72.126 20.8663 71.1502 21.0358 70.1859L23.1067 58.4635L14.5123 50.1592C13.8028 49.4772 13.547 48.4543 13.8529 47.5227C14.1588 46.5911 14.9731 45.9135 15.9516 45.7762L27.725 44.0312L33.037 33.366C33.4776 32.4893 34.3832 31.9377 35.3713 31.9443C36.3593 31.9508 37.2575 32.5144 37.6862 33.3968Z" fill="#093F68"/>
<path id="Shape_6" fill-rule="evenodd" clip-rule="evenodd" d="M21.3982 73.5322C22.0199 73.9755 22.7654 74.2159 23.5313 74.2199C24.1341 74.2248 24.7285 74.0801 25.2605 73.7991L35.4082 68.5127L45.5455 73.7991C46.7624 74.427 48.2326 74.3199 49.3439 73.5225C50.4551 72.7251 51.0169 71.374 50.7953 70.0319L48.859 58.8433L57.06 50.9188C58.067 49.9665 58.435 48.5267 58.0068 47.214C57.5786 45.9013 56.43 44.9475 55.0511 44.76L43.6609 43.1279L38.5974 32.9452C38.003 31.6971 36.7383 30.8985 35.346 30.8922C33.9508 30.8971 32.6822 31.6955 32.0843 32.9452L27.0415 43.1073L15.7031 44.7394C14.3242 44.927 13.1756 45.8807 12.7474 47.1935C12.3193 48.5062 12.6872 49.946 13.6942 50.8983L21.8952 58.8227L19.9589 70.0114C19.7223 71.361 20.2805 72.7266 21.3982 73.5322ZM33.9689 33.8587C34.2243 33.3248 34.7707 32.9877 35.3667 32.9965V32.976C35.9567 32.9694 36.4974 33.3014 36.7543 33.8279L42.0663 44.5033C42.2183 44.8027 42.5082 45.0096 42.8429 45.0576L54.637 46.8129C55.2212 46.8879 55.7114 47.2862 55.9002 47.8394C56.0892 48.3993 55.9314 49.0169 55.4964 49.4202L46.9123 57.7244C46.6657 57.9608 46.5533 58.3029 46.612 58.638L48.683 70.3604C48.786 70.9399 48.5444 71.5267 48.0617 71.8693C47.5861 72.2224 46.946 72.2665 46.4256 71.9822L35.8016 66.4495C35.5002 66.2925 35.1401 66.2925 34.8387 66.4495L24.2147 71.9822C23.6913 72.2568 23.056 72.2125 22.5766 71.8681C22.0971 71.5236 21.857 70.9389 21.9573 70.3604L24.0283 58.638C24.087 58.3029 23.9746 57.9608 23.728 57.7244L15.1439 49.4202C14.7197 49.0114 14.5666 48.3992 14.749 47.8413C14.9315 47.2834 15.4179 46.8767 16.0033 46.7924L27.8803 45.0782C28.2149 45.0302 28.5048 44.8232 28.6569 44.5239L33.9689 33.8587Z" fill="#093F68"/>
<path id="Path_4" d="M30.4793 48.1371C30.3215 48.1377 30.1657 48.1026 30.0237 48.0344C29.7762 47.915 29.5868 47.7028 29.4974 47.4447C29.4081 47.1866 29.426 46.9039 29.5474 46.6589L33.9999 37.6978C34.2743 37.2339 34.8632 37.0585 35.35 37.2958C35.8368 37.533 36.0564 38.1024 35.8534 38.6011L31.4112 47.5622C31.237 47.9147 30.8753 48.1378 30.4793 48.1371Z" fill="#080C20"/>
<path id="Path_5" d="M82.8226 87.5128C82.6601 87.5148 82.4999 87.4759 82.3566 87.3999L71.3081 81.7851C71.0615 81.662 70.8747 81.4465 70.7891 81.1863C70.7036 80.9261 70.7264 80.6428 70.8525 80.3993C70.9784 80.1567 71.1967 79.9737 71.459 79.8909C71.7213 79.8081 72.0061 79.8322 72.2504 79.9579L83.2989 85.5728C83.5455 85.6958 83.7323 85.9114 83.8179 86.1716C83.9034 86.4318 83.8806 86.7151 83.7545 86.9585C83.5745 87.303 83.2139 87.5175 82.8226 87.5128Z" fill="#093F68"/>
<path id="Path_6" d="M74.0625 41.6702C73.6925 41.7271 73.3201 41.5839 73.0855 41.2948C72.8509 41.0056 72.7897 40.6143 72.925 40.2683C73.0603 39.9223 73.3715 39.6741 73.7415 39.6173L86.25 35.5113C86.6015 35.3958 86.9884 35.4749 87.265 35.7189C87.5417 35.9628 87.666 36.3346 87.5912 36.694C87.5164 37.0535 87.2538 37.3461 86.9024 37.4616L74.3938 41.5676C74.2888 41.6171 74.1773 41.6517 74.0625 41.6702Z" fill="#093F68"/>
<path id="Path_7" d="M35.3668 15.0741C34.7949 15.0741 34.3313 14.6145 34.3313 14.0476V1.83251C34.3313 1.2656 34.7949 0.80603 35.3668 0.80603C35.9387 0.80603 36.4023 1.2656 36.4023 1.83251V14.0476C36.4023 14.6145 35.9387 15.0741 35.3668 15.0741Z" fill="#093F68"/>
<path id="Path_8" d="M-10.7637 127.987H13.4458C20.9322 127.987 23.0653 137.225 32.7574 138.108C42.4494 138.991 56.5008 136.332 59.4209 140.017C62.3409 143.702 61.8853 147.983 58.9653 150.508C58.9653 150.508 73.0063 138.611 76.0506 135.911C81.228 131.374 89.3358 135.398 83.4957 146.967C77.6556 158.535 55.952 174.096 46.1047 176.262C36.2573 178.428 -13.8908 175.236 -13.8908 175.236L-10.7637 127.987Z" fill="#080C20"/>
<path id="Shape_7" fill-rule="evenodd" clip-rule="evenodd" d="M-13.9633 176.283C-12.4411 176.385 14.212 178.048 32.0843 178.048C38.4214 178.048 43.6817 177.843 46.3325 177.237C56.8011 174.928 78.6704 158.812 84.4276 147.398C88.8077 138.703 85.2871 135.09 84.1066 134.197C81.6629 132.349 78.0698 132.729 75.3672 135.121C73.3998 136.856 66.7728 142.501 62.3823 146.227C62.6136 143.747 61.8427 141.278 60.2389 139.36C58.0541 136.599 51.6859 136.825 44.3133 137.092C40.4994 137.324 36.6748 137.324 32.8609 137.092C28.1702 136.65 25.3537 134.115 22.6718 131.682C19.99 129.25 17.453 126.96 13.4458 126.96H-10.7223C-11.267 126.959 -11.7196 127.376 -11.7577 127.915L-14.9366 175.195C-14.9549 175.469 -14.8617 175.739 -14.6778 175.944C-14.4943 176.146 -14.2373 176.268 -13.9633 176.283ZM45.8665 175.267C37.0443 177.207 -5.54487 174.743 -12.7932 174.302L-9.75926 129.065H13.4354C16.624 129.065 18.7637 130.991 21.2379 133.219L21.2636 133.243L21.2651 133.244C24.0916 135.799 27.2807 138.683 32.6538 139.186C36.5607 139.428 40.4789 139.428 44.3858 139.186C50.6193 138.96 57.0704 138.734 58.5925 140.664C61.0673 143.795 60.9327 147.439 58.2715 149.748C57.9788 149.985 57.8392 150.36 57.907 150.729C57.9749 151.097 58.2395 151.399 58.5976 151.518C58.9557 151.636 59.3506 151.552 59.628 151.298C59.7626 151.185 73.7208 139.36 76.734 136.691C78.6911 134.967 81.0313 134.515 82.833 135.87C84.6347 137.225 85.4838 140.726 82.5638 146.525C76.6305 158.278 55.0408 173.214 45.8665 175.267Z" fill="#093F68"/>
<path id="Path_9" d="M39.6847 155.917C32.8091 155.917 25.975 155.456 25.5504 155.425C24.9822 155.386 24.5519 154.9 24.5874 154.337C24.606 154.064 24.7333 153.81 24.9413 153.631C25.1492 153.452 25.4206 153.362 25.6954 153.382C25.8507 153.382 41.5485 154.409 49.2835 153.382C56.4283 152.356 58.0022 150.025 58.023 150.005C58.3143 149.524 58.9417 149.364 59.4312 149.646C59.9159 149.923 60.0901 150.533 59.8247 151.021C59.6383 151.35 57.7537 154.285 49.5631 155.414C46.2843 155.788 42.9849 155.956 39.6847 155.917Z" fill="#093F68"/>
</g>
</g>
</svg>
