<svg width="146" height="356" viewBox="0 0 146 356" fill="none" xmlns="http://www.w3.org/2000/svg">
<path d="M60.3177 316.931L50.2759 345.35H78.6354L60.3177 316.931Z" fill="#080C20"/>
<path fill-rule="evenodd" clip-rule="evenodd" d="M50.2759 346.309H78.6355L78.6737 346.357C79.0224 346.357 79.3431 346.165 79.5101 345.857C79.6771 345.55 79.6638 345.175 79.4755 344.88L61.1578 316.461C60.9535 316.139 60.5785 315.969 60.2032 316.029C59.844 316.074 59.5408 316.319 59.4205 316.662L49.3787 345.033C49.2768 345.326 49.3221 345.65 49.5002 345.904C49.6784 346.157 49.9673 346.308 50.2759 346.309ZM76.8791 344.391H51.6314L60.5659 319.09L76.8791 344.391Z" fill="#093F68"/>
<path d="M164.898 217.397C162.552 216.855 160.111 216.898 157.786 217.521C149.671 219.958 142.728 225.304 138.275 232.546C137.504 228.933 138.768 225.185 141.569 222.789C136.139 222.88 131.152 225.821 128.424 230.541C126.219 234.446 125.313 241.268 128.262 245.096C130.859 248.454 135.603 247.84 138.275 250.517C139.936 252.187 140.528 258.193 141.406 260.505C143.64 266.54 146.284 272.412 148.718 278.37L201.753 268.449C201.753 268.449 200.865 255.199 198.889 244.367C196.913 233.535 189.42 219.958 176.763 225.389C176.048 223.933 175.01 222.662 173.727 221.676C171.174 219.548 168.143 218.079 164.898 217.397Z" fill="#093F68"/>
<path fill-rule="evenodd" clip-rule="evenodd" d="M147.84 278.735C147.986 279.093 148.333 279.328 148.718 279.33L148.909 279.32L201.934 269.342C202.393 269.257 202.724 268.851 202.717 268.382C202.71 268.362 202.683 268.032 202.636 267.45C202.376 264.234 201.495 253.31 199.805 244.194C198.488 237.075 194.746 228.219 188.208 224.698C184.803 222.875 180.764 222.681 177.202 224.17C176.433 222.942 175.465 221.853 174.338 220.946C171.679 218.722 168.521 217.181 165.136 216.456C162.618 215.876 159.996 215.925 157.5 216.6C150.084 218.834 143.594 223.435 139.01 229.706C139.2 227.307 140.334 225.083 142.16 223.527C142.47 223.269 142.584 222.843 142.447 222.462C142.31 222.083 141.951 221.829 141.55 221.829C135.778 221.911 130.474 225.038 127.585 230.061C125.122 234.436 124.387 241.652 127.499 245.681C129.07 247.727 131.337 248.461 133.339 249.11L133.388 249.126C134.928 249.477 136.366 250.183 137.588 251.189C138.472 252.086 139.119 255.066 139.596 257.26L139.602 257.291C139.824 258.492 140.124 259.678 140.5 260.841C141.859 264.491 143.388 268.126 144.879 271.669C145.011 271.981 145.142 272.293 145.272 272.604C146.144 274.651 147 276.694 147.84 278.735ZM129.255 231.011C131.375 227.318 135.001 224.747 139.173 223.978C137.348 226.521 136.682 229.722 137.34 232.786C137.427 233.164 137.733 233.452 138.113 233.515C138.491 233.573 138.866 233.4 139.068 233.074C143.389 226.03 150.136 220.83 158.025 218.461C160.21 217.875 162.505 217.839 164.707 218.356C167.779 219.009 170.646 220.405 173.059 222.424C174.236 223.312 175.194 224.461 175.856 225.782C175.955 226.018 176.144 226.205 176.381 226.3C176.616 226.399 176.881 226.399 177.116 226.3C180.791 224.717 184.218 224.756 187.301 226.415C193.248 229.62 196.741 238.198 197.915 244.568C199.643 253.664 200.54 264.602 200.779 267.691L149.348 277.286C148.767 275.888 148.18 274.497 147.592 273.102C147.417 272.687 147.242 272.271 147.067 271.855C145.425 268.046 143.755 264.103 142.294 260.169C141.956 259.093 141.681 257.997 141.473 256.888C141.461 256.831 141.448 256.774 141.436 256.717C140.828 253.941 140.206 251.105 138.944 249.836C137.519 248.596 135.815 247.723 133.98 247.293C132.061 246.679 130.238 246.094 129.016 244.511C126.468 241.21 127.079 234.849 129.255 231.011Z" fill="#093F68"/>
<ellipse cx="142.873" cy="276.554" rx="7.49448" ry="8.41302" transform="rotate(-10.55 142.873 276.554)" fill="#080C20"/>
<path fill-rule="evenodd" clip-rule="evenodd" d="M134.591 278.169C135.421 282.726 139.115 285.959 143.182 285.959C143.659 285.963 144.136 285.918 144.604 285.825C146.872 285.391 148.842 283.991 150.007 281.987C152.522 277.668 151.502 272.148 147.611 269.025C145.805 267.574 143.462 266.979 141.187 267.394C136.614 268.248 133.636 273.084 134.591 278.169ZM144.241 283.945C140.69 284.597 137.197 281.853 136.452 277.814H136.471C135.717 273.774 137.999 269.936 141.54 269.274C143.28 268.969 145.067 269.431 146.446 270.541C149.554 273.077 150.364 277.509 148.355 280.989C147.472 282.525 145.972 283.602 144.241 283.945Z" fill="#093F68"/>
<path d="M173.632 298.711C189.802 295.688 200.569 272.92 197.601 256.926L194.031 259.095C194.031 259.095 181.755 248.694 179.646 236.192C179.646 236.192 176.2 244.367 161.92 247.783C146.38 251.486 137.044 249.893 137.044 249.893L141.273 274.801C144.241 290.757 157.5 301.743 173.632 298.711Z" fill="#080C20"/>
<path fill-rule="evenodd" clip-rule="evenodd" d="M151.925 294.652C156.649 298.263 162.428 300.202 168.363 300.169C170.18 300.148 171.991 299.961 173.775 299.613C181.507 298.164 188.733 292.138 193.601 283.091C198.164 274.609 199.996 264.746 198.507 256.696C198.449 256.387 198.244 256.126 197.959 255.998C197.673 255.87 197.343 255.89 197.075 256.053L194.107 257.876C191.797 255.765 182.347 246.554 180.562 236C180.492 235.578 180.152 235.253 179.729 235.204C179.306 235.155 178.902 235.394 178.739 235.789C178.71 235.866 175.245 243.58 161.662 246.814C147.219 250.266 138.126 249.051 137.247 248.933C137.205 248.927 137.182 248.924 137.178 248.924C136.874 248.874 136.564 248.974 136.347 249.192C136.129 249.411 136.03 249.722 136.08 250.028L140.318 274.974C141.619 282.755 145.757 289.771 151.925 294.652ZM142.227 274.638L138.209 251.026C141.273 251.333 149.749 251.688 162.139 248.732C172.315 246.305 177.164 241.527 179.216 238.735C182.318 250.335 192.933 259.44 193.41 259.843C193.725 260.111 194.175 260.146 194.527 259.929L196.885 258.49C197.858 265.84 196.054 274.552 191.95 282.227C187.358 290.766 180.619 296.427 173.46 297.77C166.319 299.219 158.902 297.529 153.08 293.127C147.306 288.53 143.438 281.941 142.227 274.638Z" fill="#093F68"/>
<ellipse cx="146.905" cy="265.59" rx="2.71091" ry="2.72486" fill="#093F68"/>
<path d="M139.516 257.828C138.462 257.889 137.558 257.079 137.498 256.02C137.437 254.96 138.243 254.051 139.297 253.99L152.145 252.465C152.827 252.384 153.5 252.675 153.911 253.229C154.321 253.782 154.407 254.514 154.135 255.148C153.863 255.782 153.276 256.222 152.594 256.303L139.746 257.828H139.516Z" fill="#093F68"/>
<path fill-rule="evenodd" clip-rule="evenodd" d="M136.3 269.399C136.527 271.288 138.12 272.709 140.013 272.709L140.509 272.681L152.918 271.174C154.969 270.924 156.43 269.052 156.183 266.991L155.228 259.229C155.164 258.705 154.69 258.332 154.169 258.394L136.176 260.572C135.922 260.603 135.692 260.734 135.536 260.937C135.384 261.136 135.315 261.388 135.345 261.637L136.3 269.399ZM138.199 269.188L137.378 262.386L153.51 260.419L154.331 267.221C154.449 268.23 153.731 269.145 152.727 269.265L140.232 270.79C139.75 270.855 139.262 270.722 138.88 270.42C138.497 270.118 138.251 269.674 138.199 269.188Z" fill="#093F68"/>
<path d="M125.418 277.708H49.6363C48.6186 277.707 47.6663 278.212 47.093 279.057C46.5197 279.902 46.3997 280.978 46.7727 281.93L67.2668 334.978H149.673L128.281 279.656C127.813 278.479 126.679 277.708 125.418 277.708Z" fill="#080C20"/>
<path fill-rule="evenodd" clip-rule="evenodd" d="M67.2859 335.938H149.663C149.974 335.932 150.262 335.774 150.436 335.516C150.613 335.256 150.652 334.927 150.541 334.633L129.15 279.31C128.546 277.759 127.056 276.741 125.399 276.749H49.6364C48.3072 276.758 47.0678 277.424 46.3221 278.53C45.5765 279.636 45.4202 281.04 45.9041 282.285L66.3982 335.324C66.5399 335.693 66.8924 335.937 67.2859 335.938ZM148.27 334.019H67.9446L47.6605 281.546C47.4167 280.893 47.5063 280.162 47.9003 279.588C48.2942 279.014 48.9427 278.67 49.6364 278.668H125.418C126.288 278.665 127.072 279.198 127.394 280.011L148.27 334.019Z" fill="#093F68"/>
<path d="M122.43 282.832L54.0464 282.755L73.3759 331.937L141.521 332.004L122.43 282.832Z" fill="#080C20"/>
<path fill-rule="evenodd" clip-rule="evenodd" d="M73.376 332.906L141.521 332.973C141.841 332.964 142.134 332.795 142.304 332.522C142.484 332.26 142.523 331.926 142.409 331.63L123.318 282.448C123.176 282.079 122.824 281.835 122.43 281.834L54.0465 281.767C53.729 281.766 53.432 281.924 53.2542 282.189C53.0774 282.452 53.0417 282.786 53.1588 283.081L72.4883 332.301C72.633 332.667 72.9849 332.906 73.376 332.906ZM140.127 331.054L74.0251 330.987L55.4497 283.724L121.781 283.791L140.127 331.054Z" fill="#093F68"/>
<path fill-rule="evenodd" clip-rule="evenodd" d="M109.984 293.701C110.807 295.716 112.76 297.031 114.927 297.032C117.851 297.016 120.226 294.655 120.273 291.716C120.296 289.538 119.008 287.561 117.013 286.711C115.017 285.862 112.709 286.307 111.168 287.839C109.628 289.371 109.16 291.686 109.984 293.701ZM111.491 291.652C111.5 289.751 113.036 288.214 114.927 288.214C116.837 288.23 118.374 289.796 118.364 291.716C118.337 293.617 116.787 295.14 114.896 295.122C113.004 295.105 111.483 293.554 111.491 291.652Z" fill="#093F68"/>
<path d="M119.318 303.882C119.161 303.881 119.007 303.842 118.87 303.767L94.2232 290.335L76.6214 303.652C76.3485 303.859 75.9864 303.905 75.6713 303.771C75.3562 303.637 75.136 303.344 75.0938 303.003C75.0515 302.662 75.1935 302.324 75.4664 302.117L93.6027 288.425C93.9016 288.199 94.3048 288.169 94.6336 288.349L119.815 302.04C120.2 302.249 120.394 302.695 120.286 303.122C120.178 303.548 119.794 303.846 119.356 303.844L119.318 303.882Z" fill="#093F68"/>
<rect x="43.3459" y="345.35" width="187.396" height="8.93257" rx="3.53" fill="#093F68"/>
<path fill-rule="evenodd" clip-rule="evenodd" d="M46.7728 355.242H227.373C229.763 355.242 231.701 353.298 231.706 350.896V348.746C231.701 346.343 229.764 344.396 227.373 344.391H46.7728C44.3816 344.396 42.4445 346.343 42.4392 348.746V350.896C42.4445 353.298 44.3832 355.242 46.7728 355.242ZM44.3483 348.746C44.3483 347.401 45.4338 346.309 46.7728 346.309H227.373C228.016 346.309 228.633 346.566 229.087 347.023C229.542 347.48 229.797 348.1 229.797 348.746V350.896C229.792 352.238 228.708 353.323 227.373 353.323H46.7728C45.4375 353.323 44.3536 352.238 44.3483 350.896V348.746Z" fill="#093F68"/>
<path d="M105.487 303.719L101.526 309.85L100.304 315.108L100.81 315.492L105.153 312.153L109.41 306.338L105.487 303.719Z" fill="#093F68"/>
<path fill-rule="evenodd" clip-rule="evenodd" d="M100.237 316.259C100.402 316.384 100.603 316.451 100.81 316.451C101.026 316.457 101.238 316.39 101.411 316.259L105.764 312.92L105.955 312.728L110.174 306.933C110.33 306.722 110.393 306.455 110.348 306.196C110.303 305.936 110.153 305.707 109.935 305.561L106.012 302.942C105.802 302.8 105.544 302.749 105.296 302.798C105.044 302.85 104.824 303.002 104.685 303.22L100.724 309.351C100.664 309.446 100.619 309.55 100.59 309.658L99.3778 314.916C99.3019 315.277 99.4393 315.651 99.731 315.875L100.237 316.259ZM101.621 313.659L102.413 310.234L105.783 305.053L108.064 306.588L104.485 311.481L101.621 313.659Z" fill="#093F68"/>
<path d="M123.022 303.546C123.022 303.546 123.385 294.998 120.158 294.096C116.932 293.194 110.307 291.39 108.513 294.096C106.718 296.801 102.241 302.04 103.492 305.005C104.742 307.969 116.932 314.427 116.932 314.427L131.174 331.697L146.905 314.1L123.022 303.546Z" fill="#080C20"/>
<path fill-rule="evenodd" clip-rule="evenodd" d="M130.467 332.263C130.643 332.475 130.9 332.6 131.174 332.608C131.455 332.614 131.723 332.494 131.909 332.282L147.64 314.695C147.843 314.465 147.925 314.151 147.859 313.851C147.795 313.547 147.589 313.293 147.306 313.17L124.015 302.932C124.053 300.505 123.843 294.134 120.435 293.175C117.027 292.215 109.945 290.239 107.74 293.558C107.434 294.019 107.052 294.556 106.632 295.141C106.56 295.242 106.486 295.344 106.412 295.447C104.22 298.49 101.377 302.437 102.633 305.379C103.931 308.42 113.916 313.889 116.34 315.185L130.467 332.263ZM109.305 294.595C109.801 293.894 110.928 293.635 112.283 293.635C114.855 293.771 117.403 294.213 119.872 294.95C121.59 295.429 122.172 300.207 122.039 303.441C122.005 303.851 122.236 304.237 122.611 304.4L145.282 314.369L131.174 330.152L117.638 313.784C117.556 313.689 117.46 313.608 117.352 313.544C112.761 311.107 105.134 306.549 104.341 304.602C103.549 302.654 106.432 298.634 108.16 296.235C108.224 296.145 108.288 296.055 108.351 295.966C108.708 295.465 109.037 295.002 109.305 294.595Z" fill="#093F68"/>
<path d="M115.672 288.579L106.594 302.27C106.594 302.27 108.045 304.698 110.345 304.563L119.318 290.757C119.318 290.757 117.218 287.639 115.672 288.579Z" fill="#093F68"/>
<path fill-rule="evenodd" clip-rule="evenodd" d="M105.774 302.713C105.859 302.851 107.47 305.484 110.154 305.484L110.364 305.475C110.663 305.455 110.935 305.295 111.099 305.043L120.12 291.323C120.338 290.998 120.338 290.573 120.12 290.248C119.853 289.855 117.399 286.382 115.147 287.763C115.024 287.831 114.922 287.93 114.851 288.051L105.773 301.685C105.576 301.998 105.576 302.398 105.773 302.712L105.774 302.713ZM109.839 303.537C109.01 303.35 108.273 302.874 107.759 302.193L116.283 289.366C116.741 289.366 117.552 290.037 118.192 290.833L109.839 303.537Z" fill="#093F68"/>
<path d="M101.268 314.052L99.3396 316.931L101.268 314.052Z" fill="#093F68"/>
<path d="M99.3396 317.89C99.1492 317.891 98.9631 317.834 98.805 317.727C98.3728 317.431 98.2579 316.841 98.5473 316.403L100.456 313.525C100.752 313.085 101.346 312.969 101.783 313.266C102.221 313.562 102.336 314.159 102.041 314.599L100.132 317.478C99.9519 317.738 99.6553 317.893 99.3396 317.89Z" fill="#093F68"/>
<path d="M213.246 354.513L203.318 300.351C202.812 299.747 202.526 299.392 202.526 299.392C200.696 297.625 198.257 296.638 195.72 296.638H157.615C156.574 296.638 152.737 296.139 146.59 301.32C137.712 308.814 125.112 318.226 118.478 324.616L124.148 353.4C125.265 353.669 143.449 345.312 143.449 345.312L145.244 354.474L213.246 354.513Z" fill="#080C20"/>
<path fill-rule="evenodd" clip-rule="evenodd" d="M145.244 355.472H213.217C213.503 355.477 213.776 355.353 213.961 355.133C214.146 354.914 214.223 354.623 214.171 354.34L204.254 300.15C204.223 299.987 204.15 299.835 204.044 299.709C203.868 299.512 203.717 299.343 203.593 299.203C203.361 298.942 203.222 298.787 203.185 298.749C201.18 296.807 198.504 295.724 195.72 295.727H157.366L157.355 295.726C155.867 295.688 151.948 295.586 145.96 300.63C142.638 303.441 138.734 306.578 134.915 309.61C134.571 309.887 134.227 310.164 133.882 310.441C127.852 315.29 121.746 320.199 117.8 324.002C117.567 324.227 117.463 324.556 117.524 324.875L123.194 353.659C123.266 354.028 123.546 354.32 123.91 354.407C123.922 354.407 123.934 354.408 123.948 354.408C124.372 354.418 125.863 354.453 142.724 346.732L144.289 354.705C144.381 355.159 144.783 355.482 145.244 355.472ZM212.1 353.553H146.026L144.356 345.196C144.3 344.91 144.117 344.664 143.858 344.529C143.6 344.395 143.295 344.386 143.029 344.506C135.727 347.873 127.499 351.471 124.893 352.325L119.519 324.981C123.642 321.076 129.98 316 136.118 311.097L136.344 310.917C140.082 307.932 143.926 304.863 147.2 302.098C152.507 297.623 155.877 297.632 157.232 297.636C157.269 297.636 157.304 297.636 157.338 297.636H195.739C198.004 297.629 200.184 298.498 201.829 300.064L202.44 300.783L212.1 353.553Z" fill="#093F68"/>
<path d="M118.478 324.626L78.6355 329.346C78.6355 329.346 69.1855 320.078 67.181 320.433C65.1764 320.788 67.3146 327.725 67.3146 327.725C67.3146 327.725 60.2414 322.927 58.991 327.053C57.7405 331.179 58.0364 338.893 59.7928 341.234C61.5491 343.575 68.8514 344.496 80.7928 343.805L123.031 347.183L118.478 324.626Z" fill="#080C20"/>
<path fill-rule="evenodd" clip-rule="evenodd" d="M122.946 348.142H123.022C123.293 348.139 123.549 348.02 123.728 347.816C123.926 347.591 124.007 347.285 123.948 346.991L119.404 324.434C119.308 323.945 118.856 323.612 118.364 323.666L78.941 328.348C75.2278 324.741 69.0805 319.118 66.9996 319.502C66.4984 319.595 66.0625 319.904 65.8064 320.347C65.1 321.517 65.396 323.887 65.8064 325.748C64.1264 324.904 61.7591 324.012 60.0219 324.635C59.0756 324.997 58.3634 325.799 58.1128 326.784C56.7955 331.102 57.0246 339.162 59.0673 341.829C61.11 344.496 68.3646 345.484 80.7737 344.774L122.946 348.142ZM80.8596 342.846H80.7832H80.7546C64.7946 343.767 61.3487 341.608 60.6041 340.649C59.1055 338.682 58.7428 331.342 59.955 327.331C60.0356 326.917 60.325 326.576 60.7187 326.429C62.1791 325.921 65.2432 327.437 66.8373 328.521C67.1723 328.751 67.6155 328.743 67.9422 328.501C68.2689 328.259 68.4077 327.836 68.2882 327.447C67.4673 324.866 67.1332 322.074 67.4673 321.402C68.8132 321.699 73.8914 326.036 77.9673 330.037C78.1741 330.241 78.4621 330.34 78.75 330.306L117.724 325.681L121.838 346.118L80.8596 342.846Z" fill="#093F68"/>
<path d="M143.449 346.309C143.011 346.303 142.634 345.997 142.534 345.568C142.435 345.139 142.639 344.697 143.029 344.496L156.66 337.77C156.967 337.605 157.339 337.621 157.631 337.811C157.923 338.001 158.088 338.336 158.063 338.685C158.038 339.034 157.826 339.342 157.51 339.488L143.879 346.261C143.741 346.31 143.594 346.327 143.449 346.309Z" fill="#093F68"/>
<path d="M77.91 319.819C77.4822 319.841 77.0919 319.574 76.9554 319.166L67.2859 290.498C67.149 290.167 67.2069 289.787 67.436 289.513C67.6651 289.238 68.0273 289.115 68.3752 289.193C68.7231 289.271 68.9987 289.537 69.09 289.884L78.54 317.871L98.0413 317.142C98.5685 317.142 98.9959 317.571 98.9959 318.101C98.9959 318.631 98.5685 319.061 98.0413 319.061L77.8336 319.819H77.91Z" fill="#093F68"/>
<path d="M85.2218 316.451C84.8248 316.454 84.4674 316.209 84.3245 315.837L79.8954 304.064C79.7083 303.569 79.9562 303.015 80.4491 302.827C80.942 302.639 81.4933 302.888 81.6804 303.383L86.1095 315.156C86.1994 315.394 86.1916 315.658 86.0878 315.89C85.9839 316.122 85.7926 316.303 85.5559 316.394C85.4485 316.431 85.3356 316.451 85.2218 316.451Z" fill="#093F68"/>
<path fill-rule="evenodd" clip-rule="evenodd" d="M78.6355 344.4H85.2218C85.749 344.4 86.1764 343.971 86.1764 343.441V328.272C86.1764 327.742 85.749 327.312 85.2218 327.312H78.6355C78.1083 327.312 77.6809 327.742 77.6809 328.272V343.441C77.6809 343.971 78.1083 344.4 78.6355 344.4ZM84.2673 342.481H79.59V329.231H84.2673V342.481Z" fill="#093F68"/>
<path fill-rule="evenodd" clip-rule="evenodd" d="M77.3469 335.65C77.3469 338.193 79.3983 340.255 81.9287 340.255C84.4592 340.255 86.5106 338.193 86.5106 335.65C86.5106 333.106 84.4592 331.044 81.9287 331.044C79.3983 331.044 77.3469 333.106 77.3469 335.65ZM79.256 335.65C79.256 334.166 80.4526 332.963 81.9287 332.963V332.973C83.4011 332.973 84.5962 334.17 84.6015 335.65C84.6015 337.134 83.4048 338.336 81.9287 338.336C80.4526 338.336 79.256 337.134 79.256 335.65Z" fill="#093F68"/>
<path d="M131.88 322.419C131.312 322.421 130.745 322.36 130.19 322.237C128.084 321.735 126.241 320.458 125.026 318.658C124.747 318.207 124.884 317.615 125.332 317.334C125.78 317.053 126.37 317.19 126.649 317.641C127.596 319.007 129.009 319.977 130.62 320.366C132.529 320.788 134.705 320.212 137.015 318.677C138.705 317.69 139.906 316.037 140.328 314.12C140.9 310.953 138.772 307.969 138.743 307.941C138.54 307.663 138.5 307.298 138.638 306.982C138.776 306.667 139.07 306.449 139.411 306.411C139.752 306.373 140.087 306.521 140.289 306.799C140.394 306.952 142.914 310.454 142.199 314.475C141.699 316.925 140.19 319.048 138.046 320.318C136.242 321.615 134.097 322.346 131.88 322.419Z" fill="#093F68"/>
<path d="M131.174 350.781C130.761 350.78 130.395 350.513 130.267 350.119L121.036 321.766C120.873 321.263 121.147 320.722 121.647 320.558C122.148 320.394 122.686 320.668 122.85 321.172L132.08 349.524C132.244 350.024 131.976 350.564 131.479 350.733C131.38 350.762 131.277 350.779 131.174 350.781Z" fill="#093F68"/>
<path fill-rule="evenodd" clip-rule="evenodd" d="M58.5327 259.843H109.41C109.937 259.843 110.364 259.413 110.364 258.884V217.022C110.364 216.492 109.937 216.063 109.41 216.063H58.5327C58.0055 216.063 57.5781 216.492 57.5781 217.022V258.884C57.5781 259.413 58.0055 259.843 58.5327 259.843ZM108.455 257.924H59.4872V217.982H108.455V257.924Z" fill="#093F68"/>
<path fill-rule="evenodd" clip-rule="evenodd" d="M69.6818 247.274H90.6818C91.209 247.274 91.6364 246.844 91.6364 246.315V225.206C91.6364 224.677 91.209 224.247 90.6818 224.247H69.6818C69.1547 224.247 68.7273 224.677 68.7273 225.206V246.315C68.7273 246.844 69.1547 247.274 69.6818 247.274ZM89.7273 245.355H70.6364V226.166H89.7273V245.355Z" fill="#093F68"/>
<path fill-rule="evenodd" clip-rule="evenodd" d="M77.8242 240.91C77.833 247.865 83.4475 253.497 90.3669 253.491C93.6942 253.489 96.884 252.156 99.2332 249.788C101.582 247.419 102.898 244.209 102.891 240.865C102.875 233.91 97.2545 228.284 90.3351 228.296C83.4158 228.308 77.8155 233.955 77.8242 240.91ZM80.5411 236.819C82.1863 232.824 86.0655 230.221 90.3669 230.224C96.2137 230.235 100.955 234.988 100.981 240.865C100.997 245.188 98.4172 249.095 94.4474 250.759C90.4775 252.423 85.9009 251.518 82.8552 248.464C79.8096 245.411 78.896 240.814 80.5411 236.819Z" fill="#093F68"/>
<path d="M103.847 137.893C107.791 142.841 96.9997 153.009 91.91 147.411C85.9196 140.832 100.043 133.12 103.847 137.893Z" fill="#080C20"/>
<path fill-rule="evenodd" clip-rule="evenodd" d="M91.2541 147.999C92.3401 149.245 93.9159 149.95 95.5655 149.929C97.8768 149.804 100.074 148.881 101.783 147.315C104.94 144.613 106.899 140.323 104.529 137.349C103.314 135.822 101.241 135.226 98.6175 135.682C95.2594 136.261 91.053 138.752 89.8724 142.209C89.1688 144.244 89.7081 146.504 91.2541 147.999ZM98.9061 137.384C99.3451 137.306 99.7897 137.265 100.235 137.261C101.332 137.18 102.406 137.603 103.156 138.41C104.809 140.498 103.121 143.832 100.638 145.955C98.154 148.078 94.6997 149.157 92.5484 146.789C91.4525 145.758 91.0561 144.181 91.534 142.753C92.3648 140.314 95.6005 137.963 98.9061 137.384Z" fill="#093F68"/>
<path fill-rule="evenodd" clip-rule="evenodd" d="M45.2285 11.9906C45.3214 12.0033 45.4155 12.0033 45.5083 11.9906C45.7105 11.996 45.9083 11.9309 46.068 11.8064L47.8958 10.236C48.214 9.96922 48.3017 9.51484 48.1056 9.14817C47.6422 8.29718 43.5145 0.840091 39.6229 1.66476C37.5503 2.10341 36.9381 3.12108 36.7895 3.91066C36.6124 5.02715 37.0796 6.14814 37.9963 6.80577C38.3875 7.02094 38.8092 7.17479 39.2469 7.26196C40.8997 7.71816 43.978 8.56915 44.6513 11.3678C44.7238 11.6613 44.942 11.8967 45.2285 11.9906ZM39.9989 3.36673H40.2525C42.0103 3.36673 44.6251 6.6303 46.2254 9.35872L45.9106 9.62191C44.5377 6.8585 41.386 5.97476 39.7502 5.51609L39.7191 5.50735C39.5789 5.47013 39.4232 5.41927 39.2904 5.37589C39.1415 5.32725 39.0215 5.28803 38.9845 5.28803C38.6731 5.03321 38.4984 4.64695 38.5123 4.24403C38.5822 3.86679 39.1244 3.55096 39.9989 3.36673Z" fill="#093F68"/>
<path d="M46.0855 104.16H65.3684C71.2804 104.16 76.9503 106.516 81.1307 110.71C85.3112 114.904 87.6597 120.592 87.6597 126.523V166.502H23.7942V126.514C23.799 114.167 33.7777 104.16 46.0855 104.16V104.16Z" fill="#080C20"/>
<path fill-rule="evenodd" clip-rule="evenodd" d="M23.7942 167.379H87.6947C88.1639 167.36 88.5346 166.973 88.5342 166.502V126.514C88.5197 113.686 78.1551 103.293 65.3684 103.283H46.1292C39.9806 103.276 34.0811 105.72 29.7284 110.076C25.3758 114.433 22.9266 120.346 22.9197 126.514V166.502C22.9197 166.986 23.3112 167.379 23.7942 167.379ZM86.8202 165.624H24.6687L24.7124 126.514C24.7269 114.656 34.3084 105.047 46.1292 105.038H65.3684C77.2028 105.028 86.8057 114.642 86.8202 126.514V165.624Z" fill="#093F68"/>
<path d="M76.0552 149.184C75.5722 149.184 75.1807 148.791 75.1807 148.306V117.083C75.1807 116.598 75.5722 116.206 76.0552 116.206C76.5382 116.206 76.9297 116.598 76.9297 117.083V148.28C76.9368 148.517 76.8478 148.747 76.683 148.917C76.5182 149.088 76.2917 149.184 76.0552 149.184Z" fill="#093F68"/>
<path d="M37.2793 167.379C36.7963 167.379 36.4048 166.986 36.4048 166.502V117.083C36.4048 116.598 36.7963 116.206 37.2793 116.206C37.7623 116.206 38.1538 116.598 38.1538 117.083V166.475C38.1609 166.712 38.0719 166.942 37.9071 167.113C37.7424 167.283 37.5158 167.379 37.2793 167.379Z" fill="#093F68"/>
<path d="M68.1932 127.891H43.2959L37.2793 133.725V166.502H74.2099V133.725L68.1932 127.891Z" fill="#093F68"/>
<path fill-rule="evenodd" clip-rule="evenodd" d="M37.2793 167.379H74.2099C74.6828 167.379 75.0702 167.002 75.0844 166.528V133.752C75.0858 133.514 74.9911 133.286 74.8221 133.12L68.7967 127.286C68.6346 127.129 68.4184 127.041 68.1933 127.04H43.296C43.0708 127.041 42.8547 127.129 42.6925 127.286L36.6672 133.12C36.4981 133.286 36.4034 133.514 36.4048 133.752V166.502C36.4048 166.986 36.7963 167.379 37.2793 167.379ZM73.3354 165.624H38.1538V134.103L43.6545 128.769H67.8347L73.3354 134.103V165.624Z" fill="#093F68"/>
<path d="M43.2959 130.313C42.8129 130.313 42.4214 129.92 42.4214 129.435V104.16C42.4214 103.676 42.8129 103.283 43.2959 103.283C43.7789 103.283 44.1704 103.676 44.1704 104.16V129.435C44.1704 129.92 43.7789 130.313 43.2959 130.313Z" fill="#093F68"/>
<path d="M68.333 130.313C67.85 130.313 67.4585 129.92 67.4585 129.435V104.16C67.4585 103.676 67.85 103.283 68.333 103.283C68.816 103.283 69.2075 103.676 69.2075 104.16V129.435C69.2075 129.92 68.816 130.313 68.333 130.313Z" fill="#093F68"/>
<path d="M19.0195 97.0103C19.9639 99.107 21.984 99.8001 25.4996 99.6422C33.0553 99.2913 40.6986 99.6422 48.2368 99.6422H89.9597C92.4434 99.6422 93.7201 98.4227 93.8601 95.9049C94.481 85.0526 93.8601 74.3583 93.1517 63.5411C92.557 53.803 91.2365 43.8193 86.348 35.1954C76.912 18.5266 51.6387 10.9291 40.6986 25.1853C40.6986 25.1853 32.8892 22.5534 25.4821 31.73C19.413 39.231 18.8358 49.1972 18.7309 58.4176L18.3373 92.6939C18.2636 94.1646 18.4959 95.6346 19.0195 97.0103Z" fill="#080C20"/>
<path fill-rule="evenodd" clip-rule="evenodd" d="M18.1886 97.37C19.3779 100.011 21.914 100.546 24.4501 100.546C24.8086 100.546 25.1409 100.528 25.4995 100.502C30.5891 100.265 35.8012 100.335 40.8472 100.405C43.3133 100.476 45.7706 100.476 48.228 100.476H89.9509C92.9068 100.467 94.5508 98.8965 94.7257 95.9137C95.3466 85.0263 94.6733 74.0688 94.0174 63.4534C93.4577 54.2855 92.1897 43.7052 87.1 34.7304C81.4769 24.8169 70.1345 17.6405 58.8708 16.8509C51.1839 16.3245 44.6338 18.895 40.3574 24.1589C38.2936 23.7465 31.3762 23.0272 24.7911 31.1773C18.5821 38.8274 17.9525 48.8111 17.8475 58.3738L17.454 92.6589C17.3596 94.2639 17.6101 95.8705 18.1886 97.37ZM26.1466 32.2564C30.6591 26.6767 35.2328 25.6766 37.9525 25.6766C38.7855 25.6606 39.6164 25.767 40.4186 25.9924C40.7725 26.1109 41.1623 25.9911 41.3894 25.6942C45.2809 20.6233 51.4462 18.1142 58.7484 18.6143C69.4524 19.36 80.2351 26.1854 85.5784 35.6077C90.4756 44.2843 91.6912 54.1539 92.2771 63.585C92.9767 74.6215 93.5976 85.0351 92.9767 95.8259C92.863 97.8613 91.9798 98.7386 89.9509 98.7386H48.228C47.0048 98.7386 45.7816 98.7211 44.5573 98.7035C43.3308 98.686 42.1032 98.6684 40.8734 98.6684C35.8012 98.5982 30.5629 98.528 25.4208 98.7649C21.3893 98.9491 20.3311 97.8613 19.7889 96.6506C19.3179 95.3818 19.1183 94.0277 19.203 92.6764L19.5965 58.4001C19.7015 49.1445 20.2874 39.4942 26.1466 32.2564Z" fill="#093F68"/>
<path d="M50.4494 104.16H60.7249V110.065C60.7249 112.487 58.7672 114.451 56.3523 114.451H54.8044C52.3895 114.451 50.4319 112.487 50.4319 110.065V104.134L50.4494 104.16Z" fill="#080C20"/>
<path fill-rule="evenodd" clip-rule="evenodd" d="M54.8132 115.328H56.3611C59.2521 115.319 61.5907 112.965 61.5907 110.065V104.134C61.5907 103.649 61.1992 103.257 60.7162 103.257H50.4407C49.9577 103.257 49.5662 103.649 49.5662 104.134V110.065C49.5662 112.972 51.9154 115.328 54.8132 115.328ZM51.3239 110.065V105.02L59.8679 105.011V110.065C59.8679 112.003 58.3018 113.574 56.3699 113.574H54.822C52.8901 113.574 51.3239 112.003 51.3239 110.065Z" fill="#093F68"/>
<ellipse cx="26.2166" cy="77.3762" rx="9.98691" ry="8.63268" fill="#080C20"/>
<path fill-rule="evenodd" clip-rule="evenodd" d="M15.3552 77.3762C15.3552 82.6225 20.2262 86.8862 26.2166 86.8862C32.1983 86.8862 37.0781 82.6225 37.0781 77.3762C37.0781 72.1299 32.207 67.8662 26.2166 67.8662C20.2262 67.8662 15.3552 72.1299 15.3552 77.3762ZM17.1042 77.3762C17.1042 73.13 21.1882 69.6208 26.2166 69.6208C31.2626 69.6208 35.329 73.13 35.329 77.3762C35.329 81.6224 31.2451 85.1316 26.2166 85.1316C21.1882 85.1316 17.1042 81.6224 17.1042 77.3762Z" fill="#093F68"/>
<ellipse cx="84.4242" cy="77.3762" rx="9.98691" ry="8.63268" fill="#080C20"/>
<path fill-rule="evenodd" clip-rule="evenodd" d="M73.5715 77.3762C73.5715 82.6225 78.4426 86.8862 84.4242 86.8862C90.4146 86.8862 95.2856 82.6225 95.2856 77.3762C95.2856 72.1299 90.3621 67.8662 84.4242 67.8662C78.4863 67.8662 73.5715 72.1299 73.5715 77.3762ZM75.3206 77.3762C75.3206 73.13 79.4045 69.6208 84.4242 69.6208C89.4526 69.6208 93.5366 73.13 93.5366 77.3762C93.5366 81.6224 89.4439 85.1316 84.4242 85.1316C79.4045 85.1316 75.3206 81.6224 75.3206 77.3762Z" fill="#093F68"/>
<path d="M73.9038 51.7677L64.1617 39.2047C64.1617 39.2047 61.9667 46.9425 60.62 51.7326L45.2548 51.6887L41.6343 40.468L37.3842 51.6624H25.4734V75.3496C25.4711 83.3622 28.6423 91.0473 34.2891 96.7139C39.936 102.38 47.5958 105.564 55.5828 105.564C72.2166 105.564 85.7009 92.0366 85.7009 75.3496V51.8028L73.9038 51.7677Z" fill="#080C20"/>
<path fill-rule="evenodd" clip-rule="evenodd" d="M24.5989 75.297C24.6133 92.459 38.4754 106.369 55.5828 106.389C72.6882 106.369 86.5513 92.4658 86.5754 75.3057V51.8115C86.5754 51.327 86.1839 50.9342 85.7009 50.9342H74.3323L64.8526 38.7046C64.6513 38.4391 64.3172 38.3111 63.9907 38.3744C63.6642 38.4376 63.4017 38.6812 63.3135 39.0028C63.3135 39.0028 61.3108 46.0213 59.9903 50.8026L45.9369 50.7587L42.5089 40.1433C42.3947 39.7916 42.0729 39.5494 41.7043 39.538C41.3216 39.5125 40.967 39.7402 40.8298 40.0995L36.7808 50.7324H25.4734C24.9904 50.7324 24.5989 51.1252 24.5989 51.6097V75.297ZM26.3479 75.3145V52.5046L37.3842 52.5397C37.7448 52.5386 38.0677 52.3156 38.1975 51.9782L41.5731 43.1086L44.4328 51.9606C44.549 52.3184 44.8798 52.5619 45.2548 52.566L60.55 52.6098C60.954 52.6248 61.3156 52.36 61.4245 51.9694C61.9386 50.1455 62.5751 47.8957 63.1658 45.8077C63.6804 43.9888 64.1602 42.2929 64.494 41.1084L73.2129 52.3467C73.3779 52.5561 73.6289 52.6788 73.895 52.68H84.8264V75.3145C85.0092 85.915 79.4765 95.7896 70.3547 101.143C61.2329 106.497 49.9414 106.497 40.8196 101.143C31.6978 95.7896 26.1651 85.915 26.3479 75.3145Z" fill="#093F68"/>
<path fill-rule="evenodd" clip-rule="evenodd" d="M31.9588 77.2346C33.6211 81.2535 37.5332 83.8718 41.8704 83.8682C47.7864 83.8585 52.5784 79.0473 52.5832 73.1125C52.5832 68.7614 49.97 64.8389 45.9626 63.1746C41.9552 61.5103 37.343 62.4321 34.2774 65.5101C31.2117 68.588 30.2966 73.2157 31.9588 77.2346ZM33.5739 69.6726C34.9649 66.3083 38.2398 64.1165 41.8705 64.1201C46.817 64.1297 50.8246 68.1501 50.8342 73.1125C50.8377 76.7547 48.6529 80.0401 45.2994 81.4355C41.9458 82.831 38.0844 82.0614 35.5172 79.486C32.95 76.9106 32.1829 73.0369 33.5739 69.6726Z" fill="#093F68"/>
<path fill-rule="evenodd" clip-rule="evenodd" d="M59.3922 77.2346C61.0544 81.2535 64.9666 83.8718 69.3038 83.8682C75.2197 83.8585 80.0117 79.0473 80.0166 73.1125C80.0166 68.7614 77.4034 64.8389 73.396 63.1746C69.3885 61.5103 64.7764 62.4321 61.7107 65.5101C58.6451 68.588 57.73 73.2157 59.3922 77.2346ZM61.0072 69.6726C62.3983 66.3083 65.6732 64.1165 69.3038 64.1201C74.2523 64.1249 78.2627 68.1481 78.2675 73.1125C78.2711 76.7547 76.0863 80.0401 72.7327 81.4355C69.3791 82.831 65.5178 82.0614 62.9506 79.486C60.3833 76.9106 59.6162 73.0369 61.0072 69.6726Z" fill="#093F68"/>
<ellipse cx="42.7975" cy="73.7003" rx="2.78969" ry="2.7986" fill="#093F68"/>
<ellipse cx="67.6161" cy="73.1124" rx="2.78969" ry="2.7986" fill="#093F68"/>
<path d="M55.0844 83.2629C54.1733 83.2563 53.2641 83.18 52.3647 83.0348C52.0522 82.9799 51.7927 82.762 51.6838 82.4631C51.575 82.1643 51.6333 81.8299 51.8369 81.5858C52.0404 81.3418 52.3583 81.2253 52.6707 81.2802C54.0357 81.5132 55.4288 81.528 56.7984 81.324C56.9646 80.5169 55.9239 77.5253 54.446 74.7179C54.2214 74.2867 54.3878 73.7545 54.8177 73.5292C55.2475 73.3039 55.778 73.4708 56.0026 73.902C56.9733 75.7794 59.1596 80.3414 58.3638 82.1311C58.1813 82.5668 57.8058 82.8915 57.3494 83.0084C56.6075 83.1854 55.8469 83.2709 55.0844 83.2629Z" fill="#093F68"/>
<path d="M34.0959 63.2077C33.13 63.2682 32.298 62.5318 32.2376 61.5627C32.1772 60.5937 32.9114 59.759 33.8773 59.6985L47.0737 58.0491C48.0396 57.928 48.9206 58.6154 49.0413 59.5844C49.1621 60.5534 48.4769 61.4372 47.5109 61.5583L34.3146 63.2077H34.0959Z" fill="#093F68"/>
<path d="M75.4079 63.5674C75.3031 63.576 75.1978 63.576 75.093 63.5674L61.9754 61.1723C61.0239 60.9979 60.3935 60.0827 60.5674 59.1282C60.7413 58.1737 61.6536 57.5413 62.605 57.7158L75.7227 60.1196C76.6886 60.2044 77.4032 61.0587 77.3187 62.0277C77.2341 62.9968 76.3826 63.7136 75.4166 63.6288L75.4079 63.5674Z" fill="#093F68"/>
<path d="M57.2531 94.2731C52.0798 94.2382 47.1357 92.1278 43.5233 88.4127C43.2322 88.0487 43.276 87.5198 43.623 87.2091C43.97 86.8983 44.4988 86.9145 44.8263 87.2458C45.1586 87.6143 53.0992 96.2909 65.3861 90.6322C65.6704 90.5006 66.0031 90.5311 66.2589 90.7123C66.5147 90.8935 66.6547 91.1978 66.6262 91.5107C66.5977 91.8235 66.405 92.0973 66.1206 92.2289C63.348 93.5488 60.3219 94.2464 57.2531 94.2731Z" fill="#093F68"/>
<path d="M59.4567 72.6738C59.2784 72.6734 59.1045 72.6183 58.9583 72.5159C56.936 71.0283 54.1856 71.0283 52.1633 72.5159C51.9794 72.6602 51.7456 72.7247 51.5139 72.695C51.2823 72.6653 51.0722 72.544 50.9303 72.358C50.6346 71.9773 50.701 71.4285 51.0789 71.1298C53.7259 69.1927 57.317 69.1927 59.9639 71.1298C60.3594 71.4063 60.4572 71.9518 60.1826 72.3492C60.0064 72.5678 59.7365 72.6885 59.4567 72.6738Z" fill="#093F68"/>
<path d="M31.9621 71.1999C31.8837 71.2084 31.8045 71.2084 31.726 71.1999L25.9805 69.6208C25.6544 69.5617 25.3896 69.3227 25.2966 69.0036C25.2037 68.6846 25.2984 68.3402 25.5414 68.1142C25.7844 67.8881 26.1338 67.8193 26.444 67.9363L32.1895 69.5067C32.6725 69.5697 33.0131 70.0136 32.9503 70.4981C32.8875 70.9826 32.4451 71.3243 31.9621 71.2613V71.1999Z" fill="#093F68"/>
<path d="M79.5794 71.2C79.0964 71.263 78.654 70.9212 78.5912 70.4367C78.5284 69.9522 78.869 69.5083 79.352 69.4454L85.0976 67.875C85.4093 67.7542 85.7625 67.8222 86.0075 68.0503C86.2525 68.2783 86.3465 68.6265 86.2497 68.9474C86.1529 69.2684 85.8822 69.5059 85.5523 69.5594L79.8068 71.1386C79.7338 71.1684 79.6574 71.189 79.5794 71.2Z" fill="#093F68"/>
<path d="M28.6392 35.0023C33.3178 33.7741 43.5058 27.4487 51.0266 26.6241C58.5474 25.7994 76.265 27.8523 81.5558 24.9923C86.8466 22.1323 88.4732 11.9292 80.7425 4.57739C73.0118 -2.77443 51.0091 4.98972 36.7809 13.3504C22.5526 21.7112 17.2443 23.3517 17.4454 29.0717C17.6466 34.7918 23.9343 36.2218 28.6392 35.0023Z" fill="#080C20"/>
<path fill-rule="evenodd" clip-rule="evenodd" d="M19.2642 34.4672C21.0844 35.7079 23.2473 36.3432 25.447 36.2832C26.5881 36.293 27.7257 36.1544 28.8314 35.8709C31.3238 35.0586 33.7505 34.0556 36.0898 32.8705C40.7335 30.7123 46.514 28.0278 51.0964 27.5277C54.7732 27.2867 58.4603 27.2457 62.1415 27.4049L62.493 27.4111C70.3585 27.55 78.4248 27.6924 81.9404 25.7906C84.494 24.4133 86.2955 21.4918 86.7589 17.9826C87.4323 12.9732 85.4384 7.85853 81.3107 3.94575C72.828 -4.12546 49.7497 4.709 36.3084 12.6047C33.8804 14.025 31.7242 15.2514 29.7945 16.349C29.5905 16.4651 29.389 16.5797 29.1899 16.693C20.1125 21.8165 16.3608 23.9395 16.5445 29.1069C16.5617 31.223 17.5688 33.208 19.2642 34.4672ZM61.3894 3.91066C64.6363 3.04772 67.9743 2.5765 71.3326 2.50697C74.7956 2.50697 78.0051 3.21758 80.1476 5.21784C83.8556 8.74461 85.6483 13.3417 85.0624 17.7282C84.6426 20.711 83.2084 23.1061 81.1446 24.2203C77.967 25.9233 69.6761 25.7658 62.3112 25.6259L62.2114 25.624C58.4544 25.459 54.6912 25.5029 50.939 25.7556C46.1003 26.2794 40.2136 29.01 35.4596 31.2153L35.3902 31.2475C33.1333 32.3885 30.7948 33.3591 28.3941 34.1514C25.412 34.9322 22.2376 34.5023 20.3136 33.0635C19.0425 32.1219 18.2928 30.6306 18.2935 29.0454C18.1449 24.966 21.3893 23.1149 30.0469 18.202C30.4057 17.9978 30.7731 17.7892 31.1493 17.5756C32.955 16.5503 34.9625 15.4103 37.1917 14.0962C44.7664 9.62902 52.9051 6.2032 61.3894 3.91066Z" fill="#093F68"/>
<path d="M35.8452 166.563C32.7669 169.388 25.9107 171.458 22.5001 165.686C19.0895 159.913 12.2771 135.138 12.2771 135.138L20.2614 127.927L36.195 154.167C38.39 157.886 38.9234 163.747 35.8452 166.563Z" fill="#080C20"/>
<path fill-rule="evenodd" clip-rule="evenodd" d="M27.4934 170.142C27.9279 170.205 28.3662 170.237 28.8051 170.239C31.6257 170.17 34.3306 169.101 36.4396 167.221C39.824 164.115 39.343 157.79 36.9468 153.684L21.0045 127.444C20.8686 127.222 20.6416 127.073 20.3849 127.035C20.1282 126.998 19.8682 127.077 19.6752 127.251L11.691 134.462C11.4494 134.684 11.3515 135.023 11.4374 135.34C11.4415 135.355 11.4471 135.375 11.4541 135.4C11.9133 137.058 18.3622 160.342 21.7391 166.098C22.928 168.269 25.0538 169.763 27.4934 170.142ZM23.252 165.221C20.2087 160.018 14.2708 138.989 13.2651 135.392L20.0688 129.251L35.4514 154.579C37.5065 158.088 37.8913 163.484 35.2678 165.923C33.2196 167.761 30.5009 168.66 27.7645 168.405C25.8417 168.123 24.167 166.941 23.252 165.221Z" fill="#093F68"/>
<path d="M6.02458 114.612L12.8767 112.08L15.999 120.584L9.14686 123.116L6.02458 114.612Z" fill="#080C20"/>
<path fill-rule="evenodd" clip-rule="evenodd" d="M8.33295 123.417C8.46104 123.761 8.78904 123.989 9.15499 123.987C9.26095 123.98 9.36467 123.953 9.46107 123.908L16.3085 121.373C16.7589 121.205 16.9893 120.703 16.8245 120.25L13.7024 111.74C13.6217 111.523 13.4581 111.346 13.2477 111.249C13.0348 111.161 12.796 111.161 12.5831 111.249L5.73566 113.784C5.2818 113.949 5.04695 114.452 5.21095 114.907L8.33295 123.417ZM9.67096 121.987L7.16111 115.127L12.3994 113.197L14.918 120.057L9.67096 121.987Z" fill="#093F68"/>
<path d="M12.4344 112.24C12.9185 110.32 12.6427 108.285 11.6648 106.564C9.04132 101.888 6.54896 107.871 3.89045 98.6683C3.89045 98.6683 0.252487 104.116 1.7479 108.564C3.37449 113.451 6.80257 114.355 6.80257 114.355L12.4344 112.24Z" fill="#080C20"/>
<path fill-rule="evenodd" clip-rule="evenodd" d="M6.55777 115.197C6.63035 115.206 6.7038 115.206 6.77639 115.197C6.89196 115.219 7.01063 115.219 7.1262 115.197L12.758 113.118C13.0098 113.021 13.2034 112.814 13.2828 112.556C13.8346 110.4 13.5205 108.113 12.4082 106.187C11.7502 104.633 10.2512 103.605 8.56914 103.555L8.56383 103.554C7.33259 103.414 6.11849 103.276 4.71255 98.4139C4.61893 98.0881 4.34654 97.8456 4.01294 97.791C3.67277 97.7327 3.3302 97.8804 3.13843 98.1683C2.98102 98.4051 -0.718163 104.029 0.890937 108.836C2.6487 114.109 6.39161 115.197 6.55777 115.197ZM2.54376 108.257C1.68674 105.687 2.78862 102.66 3.66314 100.809H3.68937C5.09733 104.581 6.61024 105.073 8.368 105.231C9.49313 105.215 10.5029 105.921 10.8778 106.985C11.6611 108.377 11.9393 109.999 11.6649 111.573L6.76765 113.39C6.0418 113.091 3.76808 111.916 2.54376 108.257Z" fill="#093F68"/>
<path d="M9.84595 122.856C11.079 127.181 12.7231 132.216 14.682 137.542C18.5736 148.157 22.6663 157.088 25.3773 161.229L28.3244 160.141C27.6947 155.211 25.0362 145.753 21.1359 135.138C19.177 129.813 17.1743 124.909 15.3204 120.812L9.84595 122.856Z" fill="#080C20"/>
<path fill-rule="evenodd" clip-rule="evenodd" d="M24.6426 161.729C24.8052 161.977 25.0816 162.125 25.3772 162.124C25.4832 162.116 25.5869 162.09 25.6833 162.045L28.6391 160.948C29.0038 160.805 29.2289 160.436 29.1901 160.045C28.5342 154.86 25.762 145.209 21.9579 134.857C20.0689 129.699 18.0488 124.724 16.1161 120.469C15.9282 120.047 15.4463 119.844 15.0143 120.004L9.53982 122.031C9.10942 122.192 8.87642 122.659 9.00637 123.101C10.2832 127.584 11.9622 132.69 13.8599 137.849C17.6465 148.201 21.7917 157.343 24.6426 161.729ZM15.504 137.243C13.7287 132.418 12.1459 127.655 10.9128 123.4L14.8568 121.935C16.6671 125.988 18.5648 130.637 20.3138 135.463C23.9168 145.253 26.5753 154.368 27.3623 159.58L25.7358 160.176C22.9723 155.667 19.0982 147.034 15.504 137.243Z" fill="#093F68"/>
<path d="M8.25733 130.099C7.93146 129.212 8.38564 128.228 9.27253 127.9L15.0583 125.762C15.9478 125.433 16.9351 125.889 17.2619 126.779C17.5878 127.667 17.1336 128.651 16.2467 128.979L10.461 131.116C9.57151 131.445 8.58416 130.989 8.25733 130.099Z" fill="#080C20"/>
<path fill-rule="evenodd" clip-rule="evenodd" d="M8.75271 131.927C9.06814 132.072 9.41129 132.147 9.75839 132.146C10.0393 132.149 10.3182 132.098 10.5804 131.997L16.7108 129.725C17.3036 129.504 17.7849 129.056 18.0488 128.479C18.3207 127.903 18.3459 127.241 18.1187 126.646L17.9875 126.277C17.5249 125.04 16.1565 124.407 14.918 124.856L8.79643 127.137C7.56103 127.593 6.92723 128.967 7.37973 130.207L7.51965 130.585C7.73456 131.18 8.17886 131.664 8.75271 131.927ZM15.5564 126.505C15.6292 126.478 15.7061 126.463 15.7838 126.461C15.8644 126.463 15.9442 126.477 16.0199 126.505C16.1738 126.576 16.2934 126.706 16.3522 126.865L16.4921 127.242C16.5577 127.396 16.5577 127.571 16.4921 127.725C16.4267 127.883 16.2958 128.005 16.1336 128.058L10.012 130.339C9.85525 130.404 9.67903 130.404 9.52228 130.339C9.37199 130.263 9.25401 130.135 9.18996 129.979L9.05879 129.602C8.99942 129.443 9.0057 129.266 9.07625 129.112C9.1468 128.957 9.27581 128.837 9.43483 128.777L15.5564 126.505Z" fill="#093F68"/>
<path d="M18.1498 124.567C18.9736 124.263 19.888 124.685 20.1907 125.509L22.6628 132.242C22.9646 133.064 22.544 133.976 21.7226 134.279C20.8988 134.584 19.9844 134.161 19.6817 133.337L17.2096 126.604C16.9078 125.782 17.3285 124.871 18.1498 124.567Z" fill="#080C20"/>
<path fill-rule="evenodd" clip-rule="evenodd" d="M18.862 133.655C19.2241 134.621 20.1422 135.263 21.1707 135.27C21.4626 135.268 21.7523 135.218 22.0277 135.12C23.3048 134.648 23.9585 133.226 23.4881 131.945L21.022 125.224C20.7973 124.605 20.3341 124.103 19.7365 123.829C19.1439 123.559 18.4694 123.53 17.8563 123.751C17.2415 123.976 16.7416 124.437 16.4675 125.034C16.1933 125.63 16.1675 126.311 16.3959 126.926L18.862 133.655ZM18.4597 125.356C18.5408 125.343 18.6234 125.343 18.7046 125.356C18.8098 125.364 18.9117 125.397 19.0019 125.452C19.1764 125.531 19.312 125.676 19.3779 125.856L21.8615 132.524C21.9557 132.794 21.879 133.094 21.667 133.286C21.455 133.478 21.149 133.523 20.8908 133.401C20.7185 133.322 20.5857 133.177 20.5235 132.997L18.0574 126.277C17.9835 126.103 17.9835 125.907 18.0574 125.733C18.1377 125.56 18.2819 125.425 18.4597 125.356Z" fill="#093F68"/>
<path d="M9.44264 133.325C9.11677 132.438 9.57094 131.454 10.4578 131.126L16.2436 128.988C17.1331 128.66 18.1204 129.115 18.4472 130.005C18.7731 130.893 18.3189 131.877 17.4321 132.205L11.6463 134.342C10.7568 134.671 9.76946 134.215 9.44264 133.325Z" fill="#080C20"/>
<path fill-rule="evenodd" clip-rule="evenodd" d="M8.70029 133.804C9.04769 134.743 9.94073 135.366 10.939 135.366C11.2083 135.365 11.475 135.314 11.7261 135.217L17.8914 132.945C19.128 132.484 19.7612 131.108 19.3081 129.865L19.1682 129.497C18.7055 128.26 17.3371 127.626 16.0987 128.076L9.97708 130.357C8.74518 130.817 8.11304 132.187 8.56037 133.427L8.70029 133.804ZM16.7458 129.681C16.8181 129.668 16.8921 129.668 16.9644 129.681C17.061 129.681 17.1564 129.702 17.2443 129.743C17.4 129.811 17.5204 129.941 17.5766 130.102L17.7165 130.479C17.8344 130.809 17.667 131.172 17.3405 131.295L11.1752 133.576C11.0165 133.638 10.8397 133.631 10.686 133.558C10.5323 133.485 10.4151 133.352 10.3619 133.19L10.2219 132.822C10.1568 132.665 10.1568 132.488 10.2219 132.331C10.2949 132.178 10.4231 132.059 10.5805 131.997L16.7458 129.681Z" fill="#093F68"/>
<path d="M10.6191 136.542C10.2933 135.655 10.7475 134.671 11.6343 134.343L17.4201 132.205C18.3096 131.877 19.2969 132.333 19.6238 133.223C19.9496 134.11 19.4954 135.094 18.6086 135.422L12.8228 137.56C11.9333 137.888 10.946 137.433 10.6191 136.542Z" fill="#080C20"/>
<path fill-rule="evenodd" clip-rule="evenodd" d="M11.1228 138.366C11.4348 138.513 11.7753 138.588 12.1197 138.586C12.4152 138.593 12.7092 138.542 12.9855 138.437L19.107 136.164C20.3389 135.704 20.9711 134.334 20.5237 133.094L20.3838 132.717C19.9249 131.481 18.5592 130.847 17.323 131.295L11.1577 133.576C9.92584 134.037 9.2937 135.407 9.74103 136.647L9.88096 137.024C10.0988 137.62 10.5462 138.104 11.1228 138.366ZM17.9265 132.918C17.9963 132.891 18.0702 132.876 18.1451 132.874C18.3982 132.882 18.6222 133.041 18.7135 133.278L18.8534 133.655C18.9125 133.813 18.906 133.989 18.8353 134.142C18.7647 134.295 18.6358 134.414 18.4774 134.471L12.3558 136.752C12.2022 136.818 12.0285 136.818 11.8748 136.752C11.7225 136.679 11.6037 136.55 11.5425 136.392L11.4026 136.015C11.3375 135.858 11.3375 135.681 11.4026 135.524C11.4783 135.373 11.6056 135.255 11.7612 135.191L17.9265 132.918Z" fill="#093F68"/>
<path d="M11.8125 139.757C11.4866 138.869 11.9408 137.885 12.8277 137.558L18.6135 135.42C19.5029 135.091 20.4903 135.547 20.8171 136.437C21.143 137.325 20.6888 138.308 19.8019 138.636L14.0162 140.774C13.1267 141.103 12.1393 140.647 11.8125 139.757Z" fill="#080C20"/>
<path fill-rule="evenodd" clip-rule="evenodd" d="M11.0615 140.244C11.4089 141.183 12.3019 141.806 13.3003 141.805C13.5811 141.807 13.8598 141.756 14.1223 141.656L20.2439 139.384C20.8387 139.167 21.3226 138.721 21.5885 138.144C21.8544 137.568 21.8803 136.909 21.6606 136.314L21.5206 135.936C21.0655 134.697 19.6962 134.061 18.4599 134.515L12.3383 136.796C11.1063 137.256 10.477 138.629 10.9303 139.867L11.0615 140.244ZM19.107 136.129C19.1793 136.117 19.2533 136.117 19.3256 136.129C19.5797 136.12 19.8158 136.261 19.929 136.489L20.0602 136.866C20.1193 137.024 20.1128 137.2 20.0421 137.353C19.9715 137.506 19.8426 137.625 19.6842 137.682L13.5626 139.963C13.406 140.029 13.2294 140.029 13.0729 139.963C12.9206 139.89 12.8018 139.761 12.7406 139.603L12.6006 139.226C12.5417 139.066 12.5492 138.888 12.6215 138.733C12.6938 138.578 12.8248 138.459 12.9854 138.402L19.107 136.129Z" fill="#093F68"/>
<path d="M98.5999 124.663C91.9012 122.127 78.3812 120.469 66.724 132.383C55.0668 144.297 59.0283 158.702 71.3414 164.387C83.6545 170.072 94.1836 167.335 96.6235 159.615C99.0634 151.894 90.8955 151.298 94.2274 147.227C97.5592 143.156 101.722 147.727 105.246 141.27C108.77 134.813 105.316 127.198 98.5999 124.663Z" fill="#080C20"/>
<path fill-rule="evenodd" clip-rule="evenodd" d="M70.983 165.186C74.99 167.136 79.3684 168.198 83.8208 168.3C86.2683 168.361 88.7016 167.91 90.9656 166.975C94.054 165.71 96.4285 163.142 97.4544 159.957C98.8974 155.333 96.921 152.938 95.4693 151.184C94.1838 149.631 93.8252 149.087 94.8571 147.815C96.0639 146.324 97.3495 146.227 98.9761 146.113L98.9786 146.113C101.129 145.955 103.778 145.761 105.972 141.726C107.692 138.636 107.967 134.942 106.724 131.629C105.365 128.033 102.52 125.205 98.9236 123.873C90.0823 120.496 76.816 120.82 66.112 131.769C60.4626 137.542 57.9965 144.315 59.1858 150.833C60.314 157 64.6166 162.238 70.983 165.186ZM67.3625 132.997C74.0088 126.198 81.687 123.733 88.5344 123.733C91.8678 123.721 95.1763 124.31 98.3027 125.47C101.427 126.624 103.902 129.078 105.089 132.199C106.146 135.035 105.909 138.194 104.442 140.84C102.705 144.071 100.933 144.2 98.883 144.349L98.8711 144.35L98.8503 144.351C97.1327 144.482 95.2001 144.63 93.5191 146.701C91.5201 149.144 92.9107 150.818 94.1334 152.29L94.14 152.298L94.1401 152.298C95.5305 153.974 96.9647 155.702 95.8016 159.378C94.9245 162.079 92.9058 164.255 90.2834 165.326C85.4474 167.467 78.7137 166.844 71.7176 163.624C65.8758 160.913 61.9318 156.149 60.9086 150.543C59.8242 144.578 62.1155 138.358 67.3625 132.997Z" fill="#093F68"/>
<path d="M79.037 129.55C79.107 129.892 79.2819 130.208 79.3519 130.55C79.3791 131.495 78.8983 132.383 78.0926 132.875C77.2897 133.345 76.5833 133.964 76.0112 134.699C75.3697 136.005 75.7746 137.585 76.9644 138.419C78.1657 139.193 79.6742 139.308 80.9785 138.726C82.3427 138.165 83.7944 137.033 85.1061 137.691C85.567 137.999 85.9897 138.362 86.3654 138.77C88.1263 140.161 90.6634 139.93 92.146 138.244C93.5241 136.489 93.5241 134.015 92.146 132.26C90.292 129.962 91.8486 126.119 87.8346 125.751C85.7708 125.549 78.4861 126.488 79.037 129.55Z" fill="#080C20"/>
<path fill-rule="evenodd" clip-rule="evenodd" d="M85.7883 139.428C86.6522 140.176 87.7605 140.579 88.9016 140.56L89.3038 140.568C90.655 140.47 91.9123 139.839 92.8019 138.814C94.4418 136.734 94.4418 133.796 92.8019 131.716C92.2893 130.946 91.9657 130.065 91.8574 129.146L91.8567 129.142C91.4982 127.388 91.0506 125.198 87.8959 124.882C86.4092 124.733 80.8736 125.189 78.8884 127.365C78.2799 127.983 78.0148 128.863 78.1801 129.716C78.2268 129.935 78.2912 130.149 78.3725 130.357C78.4234 130.469 78.4615 130.587 78.4862 130.708C78.5823 131.208 78.0751 131.795 77.5679 132.181L77.052 132.55C76.3352 132.976 75.7226 133.557 75.2592 134.252C74.3758 135.951 74.889 138.044 76.4573 139.138C77.9034 140.088 79.7311 140.237 81.3108 139.533C81.6519 139.393 81.9929 139.226 82.3427 139.051C83.4009 138.48 84.1442 138.191 84.7214 138.48C84.9627 138.629 85.1808 138.812 85.3686 139.024C85.4998 139.168 85.64 139.302 85.7883 139.428ZM85.4997 136.91C85.1155 136.713 84.6897 136.61 84.2579 136.612C83.2878 136.701 82.3513 137.013 81.5207 137.524C81.2496 137.682 80.9523 137.831 80.6462 137.954C79.6199 138.418 78.4314 138.342 77.4717 137.752C76.6482 137.183 76.3529 136.101 76.7721 135.191C77.1121 134.719 77.5471 134.324 78.0489 134.033L78.6261 133.62C79.723 132.951 80.3388 131.708 80.2089 130.427C80.1592 130.208 80.0919 129.994 80.0078 129.786C79.962 129.669 79.924 129.549 79.8941 129.427C79.8166 129.103 79.9284 128.763 80.1827 128.549C81.5294 127.067 86.1993 126.47 87.721 126.628C89.5225 126.804 89.7761 127.69 90.1434 129.497C90.296 130.692 90.7406 131.831 91.4377 132.813C92.5577 134.236 92.5757 136.239 91.4814 137.682C90.8906 138.347 90.0595 138.748 89.1727 138.796C88.368 138.877 87.5645 138.631 86.9427 138.112C86.8255 138.011 86.7145 137.902 86.6104 137.787C86.2912 137.435 85.9159 137.139 85.4997 136.91Z" fill="#093F68"/>
<path d="M96.8509 135.199C96.1651 135.917 95.7373 136.843 95.6354 137.831C95.5603 138.51 95.8062 139.186 96.3 139.656C96.7299 139.964 97.2502 140.118 97.7779 140.095C99.1397 140.044 100.449 139.555 101.512 138.7C102.911 137.621 105.246 134.568 103.077 133.103C101.101 131.831 98.1015 133.796 96.8509 135.199Z" fill="#093F68"/>
<path fill-rule="evenodd" clip-rule="evenodd" d="M95.7491 140.367C96.331 140.802 97.0438 141.025 97.7692 140.998C99.3255 140.954 100.824 140.399 102.037 139.419C103.147 138.568 104.888 136.524 104.835 134.638C104.811 133.724 104.332 132.884 103.558 132.401C101.145 130.778 97.7692 132.857 96.2039 134.612C95.3785 135.483 94.8701 136.608 94.7609 137.805C94.6614 138.768 95.029 139.721 95.7491 140.367ZM96.475 137.919C96.5522 137.119 96.901 136.369 97.4632 135.796L97.4981 135.805C98.7312 134.445 101.259 132.997 102.588 133.875C102.89 134.039 103.081 134.354 103.086 134.699C103.121 135.787 101.853 137.358 100.979 138.033C100.078 138.787 98.9508 139.216 97.778 139.252C97.4521 139.271 97.1285 139.188 96.851 139.016C96.5677 138.725 96.4296 138.323 96.475 137.919Z" fill="#093F68"/>
<path d="M102.526 131.532C102.177 130.716 101.503 129.778 100.637 129.979C99.7717 130.181 99.4743 131.12 99.3344 131.997C98.9321 134.278 98.8622 136.603 98.4599 138.884C98.3924 139.091 98.4247 139.318 98.5474 139.498C98.6596 139.593 98.8029 139.643 98.9496 139.639C100.737 139.685 102.396 138.713 103.235 137.129C104.004 135.506 103.191 133.094 102.526 131.532Z" fill="#080C20"/>
<path fill-rule="evenodd" clip-rule="evenodd" d="M98.8535 140.498H99.2033C101.221 140.425 103.049 139.283 104.004 137.498C104.73 136.033 104.503 133.971 103.331 131.208C102.684 129.69 101.521 128.927 100.471 129.128C99.4219 129.33 98.7573 130.234 98.4774 131.822C98.2931 132.875 98.1822 133.913 98.0708 134.957C98.0606 135.053 98.0504 135.148 98.0402 135.243C98.0343 135.299 98.0283 135.354 98.0224 135.41C97.9057 136.499 97.7851 137.623 97.5854 138.709C97.4557 139.199 97.5769 139.721 97.909 140.103C98.1652 140.346 98.5012 140.487 98.8535 140.498ZM100.235 132.12C100.384 131.234 100.655 130.848 100.83 130.848V130.83C101.083 130.83 101.468 131.278 101.757 131.883C102.937 134.673 102.798 136.05 102.474 136.717C101.84 137.861 100.686 138.619 99.3869 138.744C99.5793 137.629 99.7018 136.498 99.8154 135.41C99.8202 135.364 99.825 135.318 99.8298 135.272C99.9389 134.228 100.051 133.154 100.235 132.12Z" fill="#093F68"/>
<path d="M68.0795 139.059C66.4704 139.639 64.8876 140.902 64.9313 142.516C65.0377 143.293 65.1866 144.063 65.3773 144.823C65.6222 146.692 64.5902 148.798 65.6309 150.359C66.4027 151.282 67.5436 151.812 68.7442 151.807C70.4932 151.956 72.557 151.5 73.4228 149.947C73.5499 149.61 73.757 149.308 74.0262 149.07C74.3136 148.923 74.6308 148.845 74.9532 148.841C76.0792 148.663 77.0308 147.908 77.463 146.85C78.1539 145.095 76.9383 143.218 75.714 141.981C74.2623 140.472 72.0061 138.691 69.8111 138.709C69.2192 138.734 68.6349 138.852 68.0795 139.059Z" fill="#080C20"/>
<path fill-rule="evenodd" clip-rule="evenodd" d="M68.6741 152.71H69.4087C71.5949 152.71 73.3527 151.868 74.1485 150.342C74.162 150.317 74.1787 150.293 74.1955 150.269C74.2332 150.214 74.2709 150.159 74.2709 150.105C74.3266 149.987 74.3939 149.875 74.4721 149.771C74.5887 149.736 74.7091 149.716 74.8306 149.71H75.0493C76.4836 149.487 77.6956 148.524 78.2412 147.175C78.9233 145.411 78.25 143.358 76.3435 141.367C75.0842 140.068 72.5307 137.858 69.8372 137.858C69.1381 137.876 68.4469 138.01 67.7908 138.252C66.0331 138.884 64.0042 140.384 64.0567 142.551C64.0827 143.072 64.1708 143.587 64.319 144.086C64.3977 144.402 64.4677 144.692 64.5114 144.964C64.5599 145.626 64.5276 146.292 64.4152 146.946L64.413 146.965C64.2562 148.249 64.0868 149.637 64.9049 150.868C65.8118 152.031 67.2021 152.711 68.6741 152.71ZM68.403 139.84C68.8748 139.668 69.3704 139.57 69.8722 139.551V139.595C71.9972 139.595 74.2535 141.691 75.1455 142.595C75.8013 143.279 77.2618 145.025 76.6758 146.534C76.3628 147.302 75.6734 147.851 74.8569 147.982H74.6907C74.2956 148.004 73.9117 148.121 73.5713 148.324C73.2212 148.579 72.9462 148.925 72.7755 149.324L72.6881 149.499C72.006 150.719 70.2482 151.035 68.8402 150.912C67.9103 150.925 67.019 150.539 66.3916 149.85C65.9281 149.157 66.0418 148.21 66.1817 147.113C66.3122 146.313 66.3415 145.499 66.2692 144.692C66.216 144.327 66.1371 143.966 66.0331 143.613C65.9233 143.241 65.8558 142.859 65.8319 142.472C65.7794 141.297 67.1 140.314 68.403 139.84Z" fill="#093F68"/>
<path d="M76.0987 157.071C76.2044 158.199 76.787 159.227 77.6991 159.895C78.6045 160.55 79.6393 161.001 80.7336 161.22C83.5843 161.901 86.5663 161.786 89.3563 160.887C89.8716 160.751 90.3479 160.495 90.7468 160.141C91.4901 159.22 91.4901 157.904 90.7468 156.983C90.0006 156.106 89.0299 155.451 87.9396 155.088C85.9544 154.263 85.7271 151.035 82.9899 150.947C81.8093 150.947 81.1446 151.71 80.3663 152.465C79.107 153.693 79.0546 153.517 77.358 153.526C75.8626 153.535 76.0462 156.097 76.0987 157.071Z" fill="#080C20"/>
<path fill-rule="evenodd" clip-rule="evenodd" d="M80.5326 162.08C81.8173 162.378 83.1318 162.528 84.4504 162.527C86.2088 162.529 87.9562 162.251 89.6275 161.703C90.2824 161.534 90.8841 161.202 91.3766 160.738C92.4098 159.501 92.439 157.708 91.4465 156.439C90.6039 155.433 89.5031 154.678 88.2633 154.254C87.625 153.875 87.1043 153.325 86.7591 152.666C85.9896 151.508 85.0364 150.096 83.0075 150.035C81.8305 150.07 80.7294 150.626 79.9992 151.552L79.7543 151.798C79.2936 152.237 79.0806 152.439 78.8272 152.533C78.6092 152.614 78.3614 152.614 77.9004 152.614H77.3407C76.8205 152.605 76.3211 152.819 75.9677 153.202C75.0731 154.151 75.1705 155.958 75.2233 156.936L75.2244 156.956V157.079C75.3329 158.476 76.0414 159.757 77.1658 160.589C78.1653 161.328 79.3148 161.837 80.5326 162.08ZM77.227 154.404C77.2632 154.387 77.3045 154.387 77.3407 154.404L77.8304 154.368C79.2733 154.377 79.6581 154.281 80.9174 153.061L81.1798 152.807C81.8794 152.14 82.3079 151.789 82.9288 151.789C84.0132 151.824 84.5379 152.509 85.29 153.631C85.8143 154.584 86.6086 155.36 87.5724 155.86C88.5139 156.172 89.3579 156.726 90.0211 157.465C90.4977 158.045 90.5368 158.87 90.1173 159.492C89.8141 159.743 89.4584 159.923 89.0766 160.018C86.4387 160.863 83.6212 160.973 80.9262 160.334C79.952 160.145 79.0302 159.747 78.2239 159.167C77.5145 158.655 77.0565 157.864 76.9646 156.992V156.86C76.8859 155.5 76.9821 154.675 77.227 154.404Z" fill="#093F68"/>
</svg>
