<svg width="47" height="47" viewBox="0 0 47 47" fill="none" xmlns="http://www.w3.org/2000/svg">
<g id="Group 3">
<path id="Shape" fill-rule="evenodd" clip-rule="evenodd" d="M18.6416 29.4041H44.8416C45.4993 29.4041 46.0325 28.8687 46.0325 28.2082V1.89736C46.0325 1.23686 45.4993 0.701416 44.8416 0.701416H18.6416C17.9839 0.701416 17.4507 1.23686 17.4507 1.89736V28.2082C17.4507 28.8687 17.9839 29.4041 18.6416 29.4041ZM43.6507 27.0122H19.8325V3.09331H43.6507V27.0122Z" fill="#093F68"/>
<path id="Shape_2" fill-rule="evenodd" clip-rule="evenodd" d="M0.409816 30.471C0.42076 39.1403 7.42554 46.1604 16.0583 46.1539C20.2095 46.1507 24.1891 44.49 27.12 41.5377C30.0509 38.5854 31.6925 34.584 31.683 30.4152C31.6633 21.7459 24.6514 14.7329 16.0187 14.7483C7.38591 14.7637 0.398872 21.8017 0.409816 30.471ZM3.79947 25.372C5.85199 20.3926 10.6918 17.1474 16.0583 17.1522C23.3528 17.1652 29.2685 23.0899 29.3012 30.4152C29.3205 35.8044 26.102 40.6734 21.1491 42.7481C16.1962 44.8227 10.4864 43.6935 6.68658 39.888C2.88678 36.0824 1.74694 30.3514 3.79947 25.372Z" fill="#093F68"/>
</g>
</svg>
