<svg width="102" height="212" viewBox="0 0 102 212" fill="none" xmlns="http://www.w3.org/2000/svg">
<g id="painting_an_egg_outline 2">
<g id="painting_an_egg_outline">
<path id="Path" d="M66.4735 205.237V170.119C66.4735 154.441 53.7578 141.73 38.0681 141.724H10.9319C-4.75784 141.73 -17.4736 154.441 -17.4736 170.119V205.237H66.4735Z" fill="#080C20"/>
<path id="Shape" fill-rule="evenodd" clip-rule="evenodd" d="M-17.4736 206.36H66.4735C67.0939 206.36 67.5967 205.857 67.5967 205.237V170.119C67.5844 153.827 54.373 140.62 38.0681 140.602H10.9319C-5.37301 140.62 -18.5844 153.827 -18.5967 170.119V205.237C-18.5967 205.857 -18.0939 206.36 -17.4736 206.36ZM65.3504 204.115H-16.3504V170.119C-16.338 155.066 -4.13237 142.865 10.9319 142.846H38.0681C53.1324 142.865 65.338 155.066 65.3504 170.119V204.115Z" fill="#093F68"/>
<path id="Path_2" d="M26.3758 206.36C25.7554 206.36 25.2526 205.857 25.2526 205.237V143.509C25.2526 142.889 25.7554 142.386 26.3758 142.386C26.9961 142.386 27.4989 142.889 27.4989 143.509V205.237C27.4989 205.857 26.9961 206.36 26.3758 206.36Z" fill="#093F68"/>
<path id="Path_3" d="M56.1964 200.512C55.671 200.529 55.2043 200.179 55.0732 199.671L43.3583 154.328C43.2203 153.929 43.3181 153.486 43.6114 153.182C43.9048 152.878 44.344 152.765 44.7481 152.888C45.1522 153.011 45.4529 153.351 45.5261 153.767L57.2859 199.154C57.435 199.752 57.074 200.358 56.4772 200.512C56.3843 200.528 56.2893 200.528 56.1964 200.512Z" fill="#093F68"/>
<path id="Path_4" d="M57.4768 206.651C58.9161 208.166 60.8225 209.154 62.8906 209.457C67.3834 209.996 71.6515 206.236 72.9993 201.87C74.3471 197.504 73.6058 192.768 72.4602 188.335C71.0674 182.948 70.1015 177.572 65.4065 174.306C60.9924 171.242 55.2979 168.29 51.3442 173.823C47.3906 179.356 51.2094 190.916 52.7931 197.011C53.3906 199.791 54.462 202.449 55.9605 204.867C56.4111 205.506 56.9186 206.104 57.4768 206.651Z" fill="#080C20"/>
<path id="Shape_2" fill-rule="evenodd" clip-rule="evenodd" d="M62.767 210.568C63.1134 210.613 63.4623 210.636 63.8116 210.636C68.7536 210.636 72.7971 206.449 74.0888 202.218C75.6276 197.437 74.6953 192.375 73.5721 188.054L73.2015 186.607L73.2013 186.606C71.9658 181.69 70.6853 176.595 66.0692 173.385C63.1826 171.376 55.5 166.034 50.4457 173.172C46.6942 178.526 49.3786 188.593 51.187 195.26C51.3779 195.989 51.5576 196.674 51.7261 197.291C52.3599 200.206 53.5003 202.986 55.0957 205.507C55.5622 206.205 56.0964 206.855 56.6906 207.448C58.3046 209.145 60.4467 210.245 62.767 210.568ZM52.3102 174.474C53.2774 172.863 55.0119 171.869 56.8919 171.848C58.9904 171.851 61.5707 172.974 64.8899 175.226C68.821 177.964 69.9442 182.42 71.1236 187.156L71.4942 188.615C72.5388 192.622 73.4149 197.302 72.0558 201.534C70.8428 205.26 67.1587 208.829 63.0703 208.346C61.2566 208.067 59.5884 207.19 58.3305 205.855C57.8286 205.365 57.3805 204.823 56.9939 204.238C55.5654 201.926 54.5436 199.387 53.9725 196.73C53.8851 196.381 53.7873 196.014 53.6849 195.63C53.603 195.323 53.5182 195.005 53.4334 194.676C51.7935 188.795 49.1315 178.963 52.3102 174.474ZM56.8919 171.848C56.8922 171.848 56.8925 171.848 56.8928 171.848H56.8815C56.885 171.848 56.8885 171.848 56.8919 171.848Z" fill="#093F68"/>
<path id="Path_5" d="M84.9837 95.2255C84.9837 130.22 57.9036 145.372 24.5 145.372C-8.90363 145.372 -35.9725 130.22 -35.9725 95.2255C-35.9725 60.231 -8.90363 24.2824 24.5 24.2824C57.9036 24.2824 84.9837 60.2422 84.9837 95.2255Z" fill="#093F68"/>
<path id="Shape_3" fill-rule="evenodd" clip-rule="evenodd" d="M-37.0956 95.2255C-37.0956 127.336 -14.0703 146.494 24.5 146.494C63.0703 146.494 86.1069 127.324 86.1069 95.2255C86.1069 61.2074 59.7569 23.16 24.5 23.16C-10.7569 23.16 -37.0956 61.2074 -37.0956 95.2255ZM-34.8493 95.2255C-34.8493 55.2702 -3.51231 25.4047 24.5 25.4047C52.5797 25.4047 83.8605 55.2702 83.8605 95.2255C83.8605 125.922 61.6663 144.249 24.5 144.249C-12.6663 144.249 -34.8493 125.922 -34.8493 95.2255Z" fill="#093F68"/>
<path id="Path_6" d="M73.0442 73.6991C72.9965 76.183 72.7863 78.6612 72.4152 81.1177C70.7836 91.8147 67.9697 102.298 64.025 112.375C62.2055 116.999 60.0602 121.679 56.3873 125.035C53.4062 127.486 50.0449 129.434 46.4359 130.804C35.5634 135.551 23.5116 139.906 12.0888 136.73C0.66597 133.553 -7.567 123.43 -13.0819 112.902C-19.3657 100.882 -23.1843 87.7296 -24.3137 74.2153C-24.9877 66.1569 -23.8645 56.2579 -19.821 49.1086C-18.0232 45.7961 -15.5148 42.9217 -12.4753 40.691C-10.7456 39.4677 -2.55758 37.5148 -1.95106 36.4486C4.42865 25.2252 20.8609 22.5428 31.5312 25.2252C55.9493 31.4878 73.4373 48.9178 73.0442 73.6991Z" fill="#080C20"/>
<path id="Shape_4" fill-rule="evenodd" clip-rule="evenodd" d="M11.7855 137.807C14.5455 138.558 17.3938 138.936 20.2543 138.929C29.1388 138.929 38.2254 135.607 46.8851 131.791C50.7826 130.085 54.242 128.458 57.1398 125.821C60.9699 122.319 63.2163 117.459 65.0696 112.734C69.0371 102.581 71.8624 92.0183 73.4935 81.2412C73.8794 78.7332 74.097 76.2023 74.1449 73.6654C74.5268 49.8717 58.2743 30.8705 31.7333 24.1365C25.4941 22.6609 18.9822 22.7922 12.8076 24.5181C7.78695 25.9098 0.980431 29.0074 -2.91703 35.7415C-4.44474 36.4696 -6.03009 37.0702 -7.65689 37.5372C-9.57644 38.0681 -11.4273 38.8215 -13.1717 39.7819C-16.3326 42.106 -18.9407 45.0991 -20.8094 48.5474C-24.4935 55.1131 -26.212 64.7428 -25.4145 74.2939C-24.2467 87.9572 -20.3836 101.254 -14.0478 113.419C-7.17392 126.584 1.76666 135.024 11.7855 137.807ZM-1.01885 37.0097C3.47391 29.1421 13.7174 25.3935 23.2196 25.3935C25.9204 25.37 28.6139 25.6791 31.2391 26.3138C56.6793 32.8346 72.2804 51.0053 71.921 73.6317C71.8788 76.0671 71.6725 78.4968 71.3033 80.9045C69.685 91.5181 66.8898 101.919 62.9692 111.915C61.2395 116.393 59.1167 120.972 55.6235 124.159C52.9841 126.617 49.6931 128.155 45.9866 129.771C34.9344 134.597 23.2083 138.649 12.392 135.652C0.50869 132.353 -7.47718 121.174 -12.0823 112.386C-18.2871 100.493 -22.0703 87.4889 -23.213 74.1255C-23.9656 64.9897 -22.3482 55.8426 -18.8888 49.6473C-17.1721 46.483 -14.7746 43.7384 -11.8688 41.6113C-10.2879 40.8389 -8.64162 40.208 -6.94928 39.7258C-2.95073 38.4014 -1.51305 37.8627 -1.01885 37.0097Z" fill="#093F68"/>
<ellipse id="Oval" cx="64.5529" cy="107.167" rx="13.8714" ry="11.9417" fill="#080C20"/>
<path id="Shape_5" fill-rule="evenodd" clip-rule="evenodd" d="M49.5583 107.167C49.5583 114.373 56.2862 120.231 64.5529 120.231C72.7971 120.231 79.5362 114.283 79.5362 107.122C79.5362 99.9618 72.8083 94.1032 64.5529 94.1032C56.2975 94.1032 49.5583 99.9618 49.5583 107.167ZM51.8047 107.167C51.8047 101.208 57.5218 96.3479 64.5529 96.3479C71.5728 96.3479 77.2899 101.107 77.2899 107.122C77.2899 113.138 71.5841 117.987 64.5529 117.987C57.5218 117.987 51.8047 113.127 51.8047 107.167Z" fill="#093F68"/>
<path id="Path_7" d="M62.4525 81.5666C67.5069 87.8854 66.159 95.2928 66.159 103.172C66.159 126.249 47.4372 144.956 24.3427 144.956C1.24822 144.956 -17.4736 126.249 -17.4736 103.172C-17.4736 82.0156 -3.13046 68.2108 16.2895 61.6451C15.1123 66.7567 12.1443 71.279 7.92172 74.3949C21.3333 76.3261 34.9861 73.2363 46.2561 65.7192C44.7174 66.763 60.3072 79.1873 61.3743 80.3096C61.7674 80.7473 62.1268 81.1514 62.4525 81.5666Z" fill="#080C20"/>
<path id="Shape_6" fill-rule="evenodd" clip-rule="evenodd" d="M-18.5967 103.172C-18.572 126.856 0.629528 146.053 24.3315 146.09C48.0204 146.065 67.2266 126.899 67.2822 103.228C67.2822 102.533 67.3021 101.845 67.3219 101.16C67.3415 100.484 67.3609 99.8118 67.3609 99.1425C67.563 92.6217 67.754 86.4488 63.3399 80.9269C63.0029 80.478 62.4975 79.8944 62.2167 79.6138C61.9513 79.3486 61.2045 78.7127 59.7109 77.4407L59.4424 77.212C56.3536 74.5857 48.4913 67.8853 47.3681 65.9886C47.4509 65.6844 47.3932 65.3592 47.2109 65.1019C47.0461 64.8527 46.7887 64.6795 46.4956 64.6205C46.2026 64.5615 45.8981 64.6217 45.6496 64.7877C35.3446 71.6487 22.99 74.7558 10.6623 73.5868C14.0181 70.4368 16.3633 66.363 17.4014 61.8808C17.5063 61.471 17.3717 61.0371 17.0533 60.7585C16.7503 60.4803 16.3194 60.3898 15.9301 60.5228C-6.01703 67.9976 -18.5967 83.5308 -18.5967 103.172ZM-16.3504 103.172C-16.3504 92.487 -12.3293 73.3623 14.6272 63.4184C13.2395 67.4593 10.6539 70.9824 7.21413 73.5195C6.85152 73.789 6.68588 74.2494 6.79375 74.6879C6.90163 75.1264 7.26201 75.4576 7.70833 75.5285C20.8958 77.4228 34.3278 74.5706 45.6047 67.4813C46.8514 69.1872 50.0975 72.2512 57.9598 78.9067C58.1364 79.0559 58.3117 79.2038 58.4829 79.3483C59.5096 80.2143 60.3923 80.959 60.5656 81.1514C60.9232 81.5064 61.2607 81.8811 61.5764 82.2737C65.4851 87.1559 65.3167 92.6554 65.1145 99.0191C65.0359 100.388 65.0359 101.769 65.0359 103.172C65.0359 125.629 46.8169 143.834 24.3428 143.834C1.86856 143.834 -16.3504 125.629 -16.3504 103.172Z" fill="#093F68"/>
<ellipse id="Oval_2" cx="7.5623" cy="113.419" rx="3.76268" ry="3.75984" fill="#093F68"/>
<ellipse id="Oval_3" cx="41.4377" cy="113.419" rx="3.76268" ry="3.75984" fill="#093F68"/>
<path id="Path_8" d="M24.3091 120.86C23.0529 120.851 21.799 120.749 20.5576 120.557C20.2641 120.505 20.0034 120.338 19.8327 120.094C19.6621 119.85 19.5956 119.548 19.6478 119.255C19.6999 118.962 19.8664 118.701 20.1108 118.531C20.3551 118.36 20.6573 118.294 20.9507 118.346C22.8742 118.652 24.8341 118.652 26.7576 118.346C27.0609 117.313 25.6344 113.104 23.5116 109.12C23.2309 108.574 23.441 107.904 23.9833 107.616C24.5323 107.328 25.2111 107.539 25.4997 108.088C26.5554 110.097 29.8913 116.853 28.7681 119.311C28.5216 119.877 28.0218 120.293 27.4203 120.433C26.4043 120.701 25.3596 120.844 24.3091 120.86Z" fill="#093F68"/>
<path id="Path_9" d="M15.7953 94.2828H15.5145L-2.73731 92.0381C-3.97795 91.8862 -4.86048 90.7582 -4.7085 89.5185C-4.55652 88.2788 -3.42758 87.3969 -2.18694 87.5487L16.0761 89.7934C17.3167 89.8709 18.2596 90.9387 18.1821 92.1784C18.1045 93.4181 17.0359 94.3603 15.7953 94.2828Z" fill="#093F68"/>
<path id="Path_10" d="M33.2047 94.2828C31.9641 94.3603 30.8955 93.4181 30.8179 92.1784C30.7404 90.9387 31.6833 89.8709 32.9239 89.7934L51.187 87.5487C52.4276 87.3969 53.5565 88.2788 53.7085 89.5185C53.8605 90.7582 52.978 91.8862 51.7373 92.0381L33.4855 94.2828H33.2047Z" fill="#093F68"/>
<path id="Path_11" d="M84.9837 95.2256C85.0412 100.845 84.2343 106.439 82.5913 111.814C75.2906 81.1626 52.0518 49.7371 24.5 49.7371C-3.05182 49.7371 -26.2906 81.1626 -33.5913 111.814C-35.2343 106.439 -36.0412 100.845 -35.9837 95.2256C-35.9837 60.2422 -8.8924 24.2936 24.5 24.2936C57.8924 24.2936 84.9837 60.2422 84.9837 95.2256Z" fill="#080C20"/>
<path id="Shape_7" fill-rule="evenodd" clip-rule="evenodd" d="M81.5355 112.083C81.6562 112.572 82.0878 112.921 82.5913 112.936C83.0926 112.949 83.5418 112.628 83.6921 112.15C85.3712 106.667 86.197 100.959 86.1406 95.2255C86.1406 61.2186 59.7906 23.1713 24.5337 23.1713C-10.7232 23.1713 -37.0732 61.2186 -37.0732 95.2255C-37.1296 100.959 -36.3037 106.667 -34.6246 112.15C-34.4705 112.626 -34.0207 112.942 -33.521 112.926C-33.0214 112.911 -32.5922 112.567 -32.4681 112.083C-28.7808 96.5978 -21.5144 82.1911 -11.2511 70.0178C-3.64708 61.2859 8.71923 50.8594 24.5337 50.8594C40.3482 50.8594 52.7257 61.2859 60.3297 70.0178C70.5851 82.1948 77.8473 96.6004 81.5355 112.083ZM-34.8605 95.2255C-34.8605 55.2702 -3.51229 25.4159 24.5 25.4159C52.5797 25.4159 83.8605 55.2702 83.8605 95.2255C83.8789 99.3217 83.4571 103.408 82.6026 107.414C78.5842 93.1384 71.5569 79.8864 61.9921 68.5475C50.6479 55.5171 37.675 48.6147 24.5 48.6147C11.325 48.6147 -1.63657 55.4947 -12.9808 68.5475C-22.5534 79.8829 -29.5851 93.1357 -33.6025 107.414C-34.4571 103.408 -34.8788 99.3217 -34.8605 95.2255Z" fill="#093F68"/>
<path id="Path_12" d="M9.39309 35.2926C9.39309 35.2926 -9.08336 -6.23403 -23.9207 3.50788C-38.758 13.2498 -61.1881 46.8078 -47.0247 50.1748C-32.8613 53.5418 -20.2142 25.4833 -20.2142 25.4833L1.53077 41.2971" fill="#080C20"/>
<path id="Path_13" d="M-44.621 51.5777C-45.5176 51.5772 -46.411 51.4717 -47.283 51.2635C-50.0176 50.7585 -52.1216 48.5611 -52.5058 45.8089C-54.4826 34.5855 -36.2532 10.2868 -24.5384 2.57632C-22.0763 0.897302 -18.9785 0.442097 -16.1369 1.34175C-2.87208 5.22505 9.87611 33.5754 10.4152 34.7763C10.6696 35.3434 10.4156 36.0092 9.84803 36.2634C9.28043 36.5175 8.61413 36.2638 8.3598 35.6966C8.23625 35.4048 -4.50071 7.08813 -16.7659 3.49664C-18.9744 2.77681 -21.3927 3.12973 -23.3029 4.45063C-35.4109 12.4193 -51.9891 35.7752 -50.2594 45.4161C-50.0193 47.2812 -48.5879 48.7708 -46.7326 49.0861C-33.6362 52.195 -21.3261 25.3262 -21.2025 25.0568C-21.066 24.7483 -20.7979 24.5175 -20.4724 24.4283C-20.1434 24.3404 -19.7923 24.4065 -19.5177 24.6079L2.2272 40.4216C2.70073 40.7938 2.79613 41.4729 2.44341 41.961C2.09069 42.449 1.41547 42.572 0.913063 42.2398L-19.7761 27.2229C-22.3145 32.4081 -32.4906 51.5777 -44.621 51.5777Z" fill="#093F68"/>
<path id="Path_14" d="M39.6069 35.2925C39.6069 35.2925 58.0833 -6.23407 72.9206 3.56397C87.758 13.362 110.188 46.8639 96.0246 50.2309C81.8612 53.5979 69.2141 25.5394 69.2141 25.5394L47.4692 41.3307" fill="#080C20"/>
<path id="Path_15" d="M93.621 51.5777C81.4906 51.5777 71.3145 32.4081 68.7761 27.2229L48.087 42.2398C47.762 42.4764 47.3353 42.5218 46.9678 42.3588C46.6002 42.1958 46.3476 41.8492 46.3051 41.4497C46.2626 41.0501 46.4366 40.6582 46.7616 40.4217L68.5066 24.6079C68.7811 24.4065 69.1322 24.3404 69.4613 24.4283C69.7868 24.5176 70.0549 24.7483 70.1913 25.0568C70.3149 25.3262 82.625 52.195 95.7214 49.0861C97.6014 48.7862 99.0571 47.2813 99.2931 45.3936C100.989 35.7527 84.4109 12.3968 72.3366 4.4282C70.4264 3.10729 68.0082 2.75438 65.7997 3.47421C53.5345 7.0657 40.7975 35.3824 40.6739 35.6742C40.4196 36.2413 39.7533 36.4951 39.1857 36.2409C38.6181 35.9868 38.3642 35.321 38.6185 34.7538C39.1576 33.5529 51.9058 5.20262 65.1707 1.31932C68.0122 0.417946 71.1107 0.873264 73.5721 2.55389C85.287 10.2644 103.516 34.5294 101.54 45.7864C101.155 48.5386 99.0513 50.7361 96.3167 51.241C95.4347 51.4595 94.5298 51.5725 93.621 51.5777Z" fill="#093F68"/>
<path id="Path_16" d="M1.27248 206.36C0.652161 206.36 0.149292 205.857 0.149292 205.237V159.985C0.149292 159.365 0.652161 158.862 1.27248 158.862C1.8928 158.862 2.39567 159.365 2.39567 159.985V205.237C2.39567 205.857 1.8928 206.36 1.27248 206.36Z" fill="#093F68"/>
<path id="Path_17" d="M4.40615 207.942C-1.63515 209.155 -7.91118 207.919 -13.0406 204.507C-18.1699 201.095 -21.7323 195.786 -22.9435 189.749C-23.6973 185.244 -23.7693 180.651 -23.1569 176.124C-22.8865 173.791 -22.4853 171.476 -21.9551 169.188C-19.6301 159.087 -14.7891 149.839 -7.54457 148.391C1.50833 146.573 11.8417 157.527 17.8844 168.514C18.8024 170.171 19.631 171.876 20.3667 173.621C21.3494 175.87 22.102 178.213 22.613 180.613C25.134 193.183 16.9841 205.416 4.40615 207.942Z" fill="#080C20"/>
<path id="Shape_8" fill-rule="evenodd" clip-rule="evenodd" d="M-24.0779 189.973C-21.7825 201.33 -11.8048 209.503 -0.210173 209.525C1.40806 209.524 3.02222 209.363 4.6083 209.042C17.7988 206.398 26.3472 193.57 23.7025 180.389C23.1754 177.916 22.3925 175.505 21.3663 173.195C20.6189 171.411 19.7752 169.668 18.8391 167.976C12.4145 156.27 1.69925 145.394 -7.80293 147.291C-17.4623 149.233 -21.7305 163.071 -23.0783 168.93C-23.624 171.257 -24.0328 173.614 -24.3026 175.989C-24.9346 180.635 -24.8588 185.35 -24.0779 189.973ZM-7.35365 149.491C-6.76913 149.375 -6.17492 149.315 -5.57901 149.311H-5.54532C2.40686 149.311 11.4822 159.21 16.8174 169.098C17.7165 170.723 18.53 172.394 19.2547 174.104C20.2268 176.268 20.9794 178.524 21.5011 180.838C22.6515 186.586 21.4695 192.555 18.215 197.432C14.9605 202.309 9.90032 205.694 4.1478 206.842C-1.60188 207.999 -7.57575 206.823 -12.4573 203.575C-17.3389 200.326 -20.7275 195.272 -21.8765 189.525C-22.6103 185.138 -22.6784 180.666 -22.0787 176.258C-21.8119 173.964 -21.4182 171.686 -20.8993 169.435C-18.271 158.121 -13.2167 150.613 -7.35365 149.491Z" fill="#093F68"/>
<path id="Path_18" d="M16.6377 172.218C15.3186 175.838 14.4547 179.608 14.0656 183.441C13.6762 186.958 13.4441 190.49 13.3692 194.036C13.4497 195.601 13.2168 197.165 12.6841 198.638C12.0972 200.132 10.6278 201.092 9.02248 201.029C6.88843 200.726 5.94495 198.2 5.5406 196.079C5.05068 193.483 4.72431 190.859 4.56343 188.223C4.55642 187.304 4.3931 186.393 4.08045 185.529C3.75331 184.651 2.95723 184.034 2.02502 183.935C0.54241 183.935 -0.35614 185.551 -1.64781 186.27C-3.66955 187.392 -6.32027 185.911 -7.37607 183.868C-8.43186 181.825 -8.42063 179.379 -8.58911 177.134C-8.58876 176.322 -8.79351 175.523 -9.1844 174.811C-9.60802 174.095 -10.4637 173.758 -11.2623 173.991C-11.8347 174.33 -12.2654 174.864 -12.4753 175.495C-13.1605 176.988 -13.958 178.604 -15.4518 179.266C-16.4453 179.64 -17.5338 179.68 -18.5518 179.379C-20.4148 178.885 -22.0376 177.738 -23.1232 176.146C-22.8528 173.814 -22.4516 171.498 -21.9214 169.21C-19.5964 159.109 -14.7554 149.861 -7.51085 148.413C0.284077 146.842 7.47248 154.025 11.8866 159.502C13.375 161.359 14.7551 163.3 16.0199 165.316C17.4801 167.639 18.2663 168.38 17.1431 170.927C16.941 171.32 16.7725 171.747 16.6377 172.218Z" fill="#080C20"/>
<path id="Shape_9" fill-rule="evenodd" clip-rule="evenodd" d="M8.83154 202.151C9.01107 202.162 9.19113 202.162 9.37067 202.151C11.2688 202.035 12.9385 200.858 13.6837 199.109C14.2735 197.556 14.541 195.899 14.4699 194.238V194.07C14.5373 190.602 14.762 187.078 15.1551 183.576C15.5405 179.832 16.3855 176.149 17.671 172.611C17.8283 172.196 17.9968 171.769 18.1652 171.354C19.3758 168.52 18.5616 167.251 17.3415 165.35L17.3341 165.338L16.9522 164.732C15.6615 162.676 14.2514 160.697 12.729 158.806C5.54059 149.906 -1.35578 146.034 -7.75796 147.325C-17.4174 149.266 -21.6855 163.105 -23.0333 168.963C-23.579 171.291 -23.9878 173.648 -24.2576 176.023C-24.2882 176.292 -24.2204 176.563 -24.0667 176.786C-22.8296 178.602 -20.9797 179.913 -18.8551 180.479C-17.5893 180.839 -16.2403 180.776 -15.0138 180.299C-13.0706 179.435 -12.1047 177.358 -11.4869 175.989C-11.3297 175.664 -11.0377 175.114 -10.8692 175.046C-10.7007 174.979 -10.3413 175.136 -10.1503 175.428C-9.87366 175.986 -9.73135 176.601 -9.73477 177.224L-9.66738 178.256C-9.68703 180.381 -9.25439 182.485 -8.39817 184.429C-7.59545 185.938 -6.23861 187.076 -4.61303 187.605C-3.45583 187.993 -2.18927 187.879 -1.11991 187.291C-0.565786 186.956 -0.0530796 186.557 0.407623 186.101C1.08154 185.473 1.53081 185.103 1.96885 185.103C2.45977 185.199 2.86199 185.55 3.02465 186.023C3.27025 186.707 3.39933 187.428 3.40654 188.155V188.335C3.57561 191.009 3.90946 193.67 4.40617 196.304C5.24857 200.737 7.28154 201.926 8.83154 202.151ZM2.03625 182.824H1.94639C0.734789 182.941 -0.380564 183.535 -1.15361 184.474C-1.49544 184.809 -1.87196 185.106 -2.2768 185.361C-2.81988 185.638 -3.45235 185.682 -4.02897 185.484C-5.07072 185.129 -5.93807 184.39 -6.45506 183.419C-7.15942 181.751 -7.50755 179.954 -7.47716 178.144L-7.54455 177.089C-7.55396 176.088 -7.82084 175.106 -8.31955 174.238C-9.0363 173.062 -10.4761 172.544 -11.779 172.992C-12.6136 173.434 -13.2541 174.17 -13.5761 175.058C-14.2275 176.483 -14.8565 177.796 -15.9797 178.267C-16.7487 178.525 -17.5807 178.525 -18.3496 178.267C-19.8139 177.88 -21.109 177.02 -22.0337 175.821C-21.773 173.674 -21.398 171.542 -20.9105 169.435C-18.2822 158.121 -13.2279 150.613 -7.36484 149.491C-1.84999 148.38 4.30509 151.982 10.9319 160.187C12.3946 162.012 13.7521 163.92 14.9978 165.899L15.391 166.517C16.5478 168.324 16.7837 168.694 16.0424 170.456C15.8627 170.894 15.683 171.343 15.5145 171.792C14.1782 175.493 13.3066 179.346 12.9199 183.262C12.5156 186.831 12.2797 190.434 12.2123 193.958V194.126C12.2772 195.48 12.0788 196.833 11.6283 198.11C11.2376 199.147 10.2541 199.841 9.14603 199.861C7.57357 199.637 6.87719 197.224 6.60762 195.821C6.13057 193.277 5.81172 190.705 5.65291 188.122V187.931C5.64018 186.952 5.45384 185.983 5.10255 185.069C4.60363 183.789 3.40795 182.914 2.03625 182.824Z" fill="#093F68"/>
<path id="Path_19" d="M39.5283 168.088C39.1462 168.715 39.1123 169.495 39.4384 170.153C40.0129 170.881 40.8621 171.339 41.7859 171.421C43.8797 171.971 46.068 172.059 48.1993 171.679C49.691 171.461 50.9647 170.489 51.5688 169.109C52.4786 166.315 49.1428 164.036 46.6942 163.868C44.2457 163.7 40.6402 166.023 39.5283 168.088Z" fill="#080C20"/>
<path id="Shape_10" fill-rule="evenodd" clip-rule="evenodd" d="M41.5612 172.521C42.9917 172.849 44.4519 173.029 45.9192 173.06C46.7714 173.076 47.6228 172.997 48.4576 172.824C50.337 172.506 51.9131 171.229 52.6134 169.457C53.0283 168.195 52.8155 166.811 52.0406 165.731C50.7879 164.023 48.8609 162.935 46.7503 162.746C43.8188 162.544 39.7978 165.226 38.5398 167.549C37.9778 168.518 37.9481 169.707 38.4612 170.703C39.1836 171.728 40.3137 172.39 41.5612 172.521ZM40.4156 169.558C40.2938 169.231 40.3311 168.866 40.5166 168.57C41.4826 166.786 44.7623 164.822 46.5931 164.945C48.0143 165.082 49.3134 165.806 50.1761 166.943C50.5616 167.449 50.6749 168.111 50.4793 168.716C50.075 169.962 48.4351 170.434 47.9522 170.546C45.9751 170.882 43.949 170.79 42.0105 170.276C41.3478 170.142 40.629 169.951 40.4156 169.558Z" fill="#093F68"/>
<path id="Rectangle" d="M32.2717 177.671L38.7188 173.6L42.4389 179.482L35.9918 183.553L32.2717 177.671Z" fill="#080C20"/>
<path id="Shape_11" fill-rule="evenodd" clip-rule="evenodd" d="M35.7319 184.687H35.979C36.1887 184.704 36.3989 184.661 36.5855 184.564L43.0326 180.467C43.2843 180.308 43.4624 180.055 43.5277 179.765C43.593 179.474 43.5402 179.17 43.3808 178.918L39.663 173.037C39.5024 172.785 39.2477 172.607 38.9554 172.544C38.6663 172.479 38.3636 172.532 38.113 172.689L31.6659 176.764C31.4142 176.923 31.236 177.175 31.1707 177.466C31.1054 177.756 31.1583 178.061 31.3177 178.312L35.0355 184.182C35.1913 184.436 35.4418 184.618 35.7319 184.687ZM36.3271 182.016L33.8112 178.032L38.3601 175.159L40.8761 179.143L36.3271 182.016Z" fill="#093F68"/>
<path id="Path_20" d="M42.471 179.491L71.5279 162.117C72.5464 161.523 73.2796 160.541 73.5592 159.396C73.8387 158.251 73.6407 157.041 73.0105 156.045C72.3803 155.047 71.3717 154.347 70.2156 154.106C69.0596 153.865 67.8551 154.103 66.8779 154.766L38.7083 173.576L42.471 179.491Z" fill="#080C20"/>
<path id="Shape_12" fill-rule="evenodd" clip-rule="evenodd" d="M41.5275 180.097C41.7337 180.418 42.0891 180.613 42.471 180.613C42.6731 180.617 42.8719 180.562 43.0438 180.456L72.1344 163.116C73.8285 162.094 74.838 160.237 74.7743 158.261C74.7106 156.285 73.5837 154.497 71.8274 153.586C70.071 152.675 67.9592 152.783 66.3051 153.868L38.1355 172.678C37.626 173.017 37.4811 173.7 37.8098 174.216L41.5275 180.097ZM42.7743 177.964L40.2246 173.935L67.4956 155.697C68.2189 155.203 69.1126 155.024 69.9708 155.201C70.829 155.379 71.5778 155.899 72.0445 156.64C72.5055 157.381 72.6462 158.276 72.4345 159.122C72.2228 159.969 71.6769 160.693 70.9214 161.129L42.7743 177.964Z" fill="#093F68"/>
<path id="Rectangle_2" d="M28.4049 180.768C27.9885 180.11 28.185 179.238 28.8438 178.822L30.7511 177.618C31.4092 177.202 32.2796 177.399 32.6956 178.056L35.8084 182.979C36.2248 183.637 36.0283 184.509 35.3695 184.925L33.4622 186.129C32.8041 186.544 31.9338 186.348 31.5177 185.69L28.4049 180.768Z" fill="#080C20"/>
<path id="Shape_13" fill-rule="evenodd" clip-rule="evenodd" d="M30.5203 186.169C31.0104 186.938 31.8542 187.41 32.7667 187.426C33.2942 187.434 33.8129 187.29 34.2605 187.011L35.8667 186C37.1286 185.198 37.5051 183.528 36.709 182.263L33.7775 177.628C33.3943 177.02 32.7834 176.592 32.0815 176.438C31.3808 176.281 30.6464 176.406 30.0373 176.786L28.4311 177.807C27.1706 178.605 26.7938 180.272 27.5888 181.534L30.5203 186.169ZM31.1942 178.683C31.2685 178.637 31.3542 178.614 31.4413 178.615L31.5424 178.627C31.6634 178.651 31.769 178.724 31.8344 178.829L34.7659 183.464C34.897 183.678 34.832 183.958 34.6199 184.092L33.0138 185.114C32.7959 185.246 32.5125 185.181 32.3735 184.968L29.442 180.333C29.3839 180.226 29.3641 180.104 29.3859 179.985C29.4181 179.87 29.4897 179.771 29.588 179.704L31.1942 178.683Z" fill="#093F68"/>
<path id="Path_21" d="M28.4424 179.098L33.0587 186.404C33.0587 186.404 32.3623 189.042 27.2967 191.186C26.0612 191.694 24.7882 192.107 23.4891 192.42C14.9417 194.609 10.9094 188.234 10.9094 188.234C15.4022 190.793 17.5475 186.606 19.7489 182.095L20.0185 181.534C22.321 176.865 28.4424 179.098 28.4424 179.098Z" fill="#080C20"/>
<path id="Shape_14" fill-rule="evenodd" clip-rule="evenodd" d="M9.89857 188.874C12.2418 192.117 16.0043 194.034 20.0073 194.025C21.2542 194.016 22.4952 193.854 23.7026 193.543C25.0551 193.2 26.3803 192.757 27.6674 192.218C33.0812 189.929 33.991 187.022 34.0808 186.696C34.1611 186.395 34.1123 186.074 33.946 185.81L29.3185 178.503C29.1875 178.292 28.9899 178.13 28.7569 178.043C26.3084 177.156 21.1192 176.64 18.9515 181.073L18.6707 181.635L18.666 181.644C17.3755 184.279 15.9166 187.258 14.0656 187.83C13.1419 188.031 12.176 187.836 11.4036 187.291C10.9547 187.036 10.3893 187.119 10.0334 187.493C9.67519 187.867 9.61951 188.437 9.89857 188.874ZM23.2533 191.365C20.2557 192.275 17.0085 191.806 14.3913 190.086L14.7283 190.007C17.5174 189.157 19.2007 185.716 20.6803 182.692L20.6924 182.667L20.9732 182.095C22.5906 178.885 26.5105 179.738 27.7123 180.074L31.7895 186.517C31.3515 187.235 30.116 188.795 26.8587 190.176C25.6885 190.662 24.4832 191.06 23.2533 191.365Z" fill="#093F68"/>
<path id="Path_22" d="M12.1449 182.959C12.36 183.778 12.6612 184.572 13.0435 185.327C13.7273 186.021 14.7705 186.218 15.6605 185.821C16.4781 185.502 17.2037 184.985 17.7721 184.317C18.3562 183.666 18.8953 182.948 19.4344 182.297C19.5176 182.19 19.6255 182.105 19.7489 182.05C20.187 181.904 20.4678 182.622 20.5352 182.925C20.6283 183.455 20.666 183.993 20.6475 184.53C20.6475 185.103 20.6475 185.652 20.6475 186.247C20.5854 186.547 20.5854 186.857 20.6475 187.156C20.6921 187.284 20.7849 187.388 20.9058 187.448C21.0094 187.471 21.1167 187.471 21.2203 187.448C21.7482 187.325 22.2312 187.067 22.7703 186.988C23.3091 186.876 23.8551 187.144 24.0957 187.639C24.2304 188.077 23.9721 188.526 23.9721 188.986C23.9766 189.47 24.2613 189.908 24.7022 190.108C25.0184 190.215 25.3466 190.283 25.6794 190.31C26.3136 190.42 26.9004 190.717 27.3641 191.163C26.1074 191.683 24.8117 192.103 23.4891 192.42C18.6027 193.678 13.4307 191.977 10.2467 188.066C9.48789 187.154 9.12047 185.98 9.22464 184.8" fill="#080C20"/>
<path id="Path_23" d="M20.2768 193.98C16.0331 194.011 12.0096 192.096 9.35944 188.784C8.41053 187.641 7.96127 186.165 8.1127 184.687C8.19334 184.067 8.76158 183.63 9.3819 183.711C10.0022 183.791 10.4397 184.359 10.3591 184.979C10.2963 185.86 10.5827 186.731 11.1565 187.403C14.0524 190.98 18.7766 192.53 23.2308 191.365L24.1294 191.118C23.3009 190.718 22.7828 189.871 22.804 188.952C22.8144 188.695 22.8521 188.439 22.9163 188.189V188.099H22.8489C22.6323 188.151 22.4185 188.215 22.2087 188.29C21.9457 188.393 21.6754 188.475 21.4 188.537C21.0918 188.625 20.7648 188.625 20.4565 188.537C20.0456 188.377 19.7173 188.057 19.5468 187.65C19.3942 187.246 19.3516 186.808 19.4232 186.382V185.922C19.4232 185.473 19.4232 185.024 19.4232 184.564V183.991C19.1199 184.373 18.8167 184.743 18.491 185.114C17.8033 185.925 16.9227 186.55 15.9301 186.932C14.5587 187.52 12.9638 187.136 12.0102 185.989C11.6537 185.404 11.3885 184.768 11.2239 184.104C11.1453 183.868 11.0779 183.621 10.9993 183.397C10.8311 183.016 10.8878 182.573 11.1465 182.247C11.4052 181.92 11.8234 181.764 12.233 181.84C12.6426 181.917 12.9762 182.213 13.0997 182.611C13.2007 182.892 13.2906 183.183 13.3692 183.464C13.4794 183.916 13.6534 184.351 13.8859 184.755C13.987 184.923 14.616 185.002 15.1888 184.811C15.8304 184.548 16.3974 184.132 16.8399 183.599C17.1319 183.273 17.4127 182.925 17.6823 182.589C17.9518 182.252 18.2102 181.915 18.491 181.601C18.7031 181.34 18.9828 181.142 19.2997 181.028C19.6993 180.894 20.1375 180.939 20.5015 181.152C21.037 181.527 21.4072 182.094 21.5348 182.734C21.6437 183.345 21.6888 183.966 21.6696 184.586C21.6696 185.069 21.6696 185.552 21.6696 186.023V186.135C21.9481 186.042 22.2335 185.971 22.5232 185.922C23.6122 185.698 24.701 186.304 25.0841 187.347C25.2104 187.803 25.2104 188.284 25.0841 188.739C25.0584 188.839 25.0397 188.94 25.0279 189.042C25.0295 189.089 25.0549 189.131 25.0953 189.154C25.2152 189.194 25.3399 189.216 25.466 189.222H25.8029C26.6449 189.37 27.4254 189.76 28.0493 190.344C28.3207 190.605 28.4432 190.984 28.3754 191.355C28.3076 191.725 28.0586 192.036 27.7123 192.185C26.4253 192.723 25.1 193.166 23.7475 193.509C22.6144 193.808 21.4487 193.966 20.2768 193.98Z" fill="#093F68"/>
<path id="Path_24" d="M62.6884 164.362C60.5158 162.666 57.7471 161.925 55.017 162.308C52.3073 162.698 49.7619 163.841 47.6714 165.607C46.1373 166.695 45.0295 168.283 44.5377 170.097C44.3594 171.252 44.4361 172.432 44.7623 173.554C45.8714 178.032 48.9292 181.78 53.0964 183.767C58.7123 186.281 67.0464 184.44 69.2254 178.043C70.7529 173.643 65.9456 166.999 62.6884 164.362Z" fill="#080C20"/>
<path id="Shape_15" fill-rule="evenodd" clip-rule="evenodd" d="M52.692 184.755C54.5091 185.547 56.4714 185.952 58.454 185.944C60.4389 185.952 62.4042 185.551 64.2271 184.766C67.0786 183.598 69.2968 181.271 70.3261 178.369C72.0558 173.273 66.6982 166.169 63.4409 163.497C61.0303 161.604 57.9537 160.77 54.9159 161.185C51.9958 161.602 49.2518 162.831 46.9974 164.732C45.2497 165.964 43.9992 167.779 43.4706 169.85C43.2501 171.164 43.3308 172.511 43.7065 173.789C44.8831 178.617 48.1881 182.65 52.692 184.755ZM55.1967 163.419C55.5958 163.374 55.997 163.352 56.3985 163.352C58.4465 163.308 60.4477 163.966 62.0706 165.215C65.384 167.942 69.45 174.126 68.2482 177.639C67.4238 179.942 65.6542 181.784 63.3848 182.701C60.274 184.025 56.7575 184.025 53.6467 182.701C49.7924 180.856 46.9659 177.385 45.9416 173.239C45.6523 172.283 45.5794 171.275 45.7282 170.288C46.167 168.738 47.1319 167.388 48.4576 166.472C50.3772 164.849 52.7105 163.792 55.1967 163.419Z" fill="#093F68"/>
<ellipse id="Oval_4" cx="7.56232" cy="174.597" rx="2.42609" ry="2.42426" fill="#093F68"/>
<ellipse id="Oval_5" cx="5.08008" cy="161.556" rx="2.42609" ry="2.42426" fill="#093F68"/>
<path id="Shape_16" fill-rule="evenodd" clip-rule="evenodd" d="M-6.63785 113.703C-4.59159 118.631 0.224127 121.841 5.56302 121.836C12.8448 121.824 18.7431 115.925 18.7493 108.649C18.7493 103.314 15.5326 98.5045 10.5996 96.464C5.66671 94.4235 -0.0106335 95.5538 -3.7842 99.3277C-7.55776 103.102 -8.6841 108.776 -6.63785 113.703ZM-4.56247 104.453C-2.86391 100.365 1.1327 97.7013 5.56302 97.7059C11.6042 97.7182 16.4967 102.612 16.5029 108.649C16.5029 113.076 13.8335 117.067 9.73999 118.76C5.64647 120.453 0.935335 119.514 -2.19577 116.382C-5.32687 113.251 -6.26103 108.542 -4.56247 104.453Z" fill="#093F68"/>
<path id="Shape_17" fill-rule="evenodd" clip-rule="evenodd" d="M29.1388 108.649C29.1388 115.932 35.0475 121.836 42.3363 121.836C49.6224 121.83 55.5275 115.929 55.5337 108.649C55.5337 101.365 49.625 95.4612 42.3363 95.4612C35.0475 95.4612 29.1388 101.365 29.1388 108.649ZM31.3852 108.649C31.3852 102.605 36.2881 97.7059 42.3363 97.7059C48.3818 97.7121 53.2812 102.608 53.2873 108.649C53.2873 114.692 48.3844 119.592 42.3363 119.592C36.2881 119.592 31.3852 114.692 31.3852 108.649Z" fill="#093F68"/>
<path id="Path_25" d="M30.3631 108.245C30.1251 108.246 29.8931 108.171 29.7004 108.031C26.3987 105.451 21.8456 105.174 18.2551 107.336C17.7456 107.627 17.0972 107.478 16.7674 106.992C16.4376 106.507 16.5377 105.849 16.9971 105.484C21.3825 102.837 26.9391 103.126 31.0258 106.213C31.4208 106.499 31.5861 107.007 31.435 107.47C31.2838 107.933 30.8508 108.246 30.3631 108.245Z" fill="#093F68"/>
<path id="Path_26" d="M54.1073 107.122C53.7959 107.121 53.499 106.991 53.2873 106.763C52.867 106.31 52.8921 105.603 53.3435 105.181L65.5525 93.8226C66.0112 93.451 66.6794 93.4977 67.0818 93.9294C67.4843 94.3611 67.4835 95.0305 67.0801 95.4612L54.8261 106.808C54.6321 106.996 54.3769 107.107 54.1073 107.122Z" fill="#093F68"/>
<path id="Path_27" d="M14.3913 126.707L34.6087 124.462C34.6087 124.462 34.1819 137.515 25.5446 137.773C16.9072 138.032 14.3913 126.707 14.3913 126.707Z" fill="#080C20"/>
<path id="Shape_18" fill-rule="evenodd" clip-rule="evenodd" d="M13.2906 126.943C13.4029 127.448 16.0649 138.941 25.2413 138.941L25.6232 138.896C35.1591 138.604 35.7319 125.069 35.7319 124.496C35.7437 124.17 35.6125 123.854 35.3725 123.632C35.1331 123.411 34.8093 123.304 34.4851 123.34L14.2678 125.585C13.9483 125.617 13.6581 125.785 13.4703 126.045C13.2854 126.305 13.22 126.632 13.2906 126.943ZM25.5221 136.696C19.4681 136.943 16.7388 130.467 15.829 127.717L33.3844 125.753C33.0138 128.84 31.5761 136.449 25.5221 136.696Z" fill="#093F68"/>
</g>
</g>
</svg>
