<svg width="95" height="77" viewBox="0 0 95 77" fill="none" xmlns="http://www.w3.org/2000/svg">
<path id="Path" d="M48.8296 0.733678C45.9037 0.0588109 42.8579 0.112183 39.9573 0.889151C29.8323 3.92607 21.1701 10.5906 15.6151 19.6177C14.6522 15.1131 16.2303 10.4413 19.7238 7.45489C12.9493 7.56903 6.72836 11.2348 3.32495 17.1181C0.573946 21.9856 -0.557417 30.4888 3.12249 35.2606C6.36176 39.4464 12.2806 38.681 15.6151 42.0177C17.6873 44.0987 18.4257 51.5853 19.5213 54.4675C22.308 61.99 25.6069 69.3092 28.6437 76.736L94.8106 64.37C94.8106 64.37 93.703 47.854 91.2379 34.3517C88.7727 20.8495 79.424 3.92685 63.6326 10.6959C62.7414 8.8812 61.4455 7.29737 59.8455 6.0676C56.6606 3.41567 52.8792 1.58468 48.8296 0.733678Z" fill="#093F68"/>
</svg>
