<svg width="10" height="13" viewBox="0 0 10 13" fill="none" xmlns="http://www.w3.org/2000/svg">
<path id="Shape" d="M2.86194 12.3588H2.37366C1.77001 12.3236 1.21827 12.0045 0.885028 11.4978C-0.508336 9.48857 1.09939 3.50884 1.86157 1.02128C1.97688 0.600869 2.31091 0.27681 2.73327 0.175584C3.15564 0.0743587 3.59939 0.212013 3.89132 0.53482C4.18326 0.857626 4.27709 1.31441 4.13621 1.72688C3.06439 5.25493 2.46894 8.90256 2.76666 9.97891C4.39639 9.9179 6.00533 9.59071 7.5303 9.0102C8.13318 8.8223 8.77732 9.13945 8.99862 9.73313C9.21992 10.3268 8.94149 10.9908 8.36394 11.2466C6.59671 11.8954 4.74149 12.2704 2.86194 12.3588Z" fill="#093F68"/>
</svg>
